<svg id="Calque_1" data-name="Calque 1" xmlns="http://www.w3.org/2000/svg" viewBox="0 0 441.14 346.51"><defs><style>.cls-1{fill:#ff6100;}</style></defs><title>CRRT LOGO</title><path d="M423.49,249.53a173.23,173.23,0,0,1-170.1,173.23V326.34a264.38,264.38,0,0,0,39.5-3.46,46,46,0,1,0-1.47-5.87,256.84,256.84,0,0,1-82.08,0,46.36,46.36,0,1,0-1.47,5.87,264.48,264.48,0,0,0,39.49,3.46v96.42a172.25,172.25,0,0,1-59.92-11.69c-5.7-6.94-10.17-14.94-14.14-22.94-2.07-4.14-3.66-8.64-6.12-12.57a23.7,23.7,0,0,0-8.3-8,78.19,78.19,0,0,0-10.79-4.79,69.17,69.17,0,0,1-12.15-6.05,61.49,61.49,0,0,1-18.81-19.28,56.48,56.48,0,0,1-8.43-29.33c0-1.2-4.38-.43-4.38,1.17,0,18.48,9.79,36.1,24.53,47a61.54,61.54,0,0,0,11.86,6.89c3.78,1.67,7.7,3,11.45,4.74a25.46,25.46,0,0,1,9,6.53c3,3.59,4.54,8.13,6.55,12.31a146.47,146.47,0,0,0,11.92,21A173.33,173.33,0,0,1,299.22,83.28a183.3,183.3,0,0,1,26.63,27.37,241,241,0,0,1,26.8,41.16c7.69,14.94,13.61,30.91,16.22,47.56a110.09,110.09,0,0,1,1,26.28,96.69,96.69,0,0,1-2.08,13.22c-.53,2.24-1.1,4.48-1.79,6.67a5.87,5.87,0,0,1-3.14,3.45,14.39,14.39,0,0,1-5.74,1.91c-2.2.13-4.25-.62-6.37-1.08a55.59,55.59,0,0,0-12.41-1.29,57.05,57.05,0,0,0-23.26,5,45.86,45.86,0,0,0-4.89,2.61c-2.49,1.52-.21,5.43,2.28,3.9a49.44,49.44,0,0,1,22.28-6.89,52.62,52.62,0,0,1,12.29.5c2.16.37,4.25,1,6.4,1.43a15.26,15.26,0,0,0,7.23-.34c3.92-1.18,7.91-3.27,9.44-7.29a71.5,71.5,0,0,0,3.26-13.64,108.44,108.44,0,0,0,.92-27.41c-1.63-17.68-7.1-34.75-14.66-50.75a239.87,239.87,0,0,0-26.34-42.87A211.36,211.36,0,0,0,310.16,86.9,173.32,173.32,0,0,1,423.49,249.53Z" transform="translate(-29.97 -76.25)"/><path class="cls-1" d="M67.58,249.53a172.42,172.42,0,0,0,23.16,86.58C57.05,335.13,30,296.74,30,249.53s27.08-85.62,60.77-86.6A172.41,172.41,0,0,0,67.58,249.53Z" transform="translate(-29.97 -76.25)"/><path class="cls-1" d="M471.11,249.53c0,47-26.65,85.25-59.88,86.57a173.41,173.41,0,0,0,0-173.16C444.46,164.26,471.11,202.5,471.11,249.53Z" transform="translate(-29.97 -76.25)"/><path d="M337,268.44a40.35,40.35,0,0,0-40.31,40.29,39.31,39.31,0,0,0,.66,7.24,37.11,37.11,0,0,0,1.54,5.86A40.29,40.29,0,1,0,337,268.44Zm-30.12,51.78a32.41,32.41,0,0,1-1.62-5.83,33,33,0,0,1-.49-5.66,32.22,32.22,0,0,1,60.79-14.91l-51.45,37.6A32.29,32.29,0,0,1,306.89,320.22Zm13.85,16.32,47.71-34.87a29.63,29.63,0,0,1,.53,3.13L323.53,338A27.5,27.5,0,0,1,320.74,336.54ZM337,341a32.32,32.32,0,0,1-11.31-2l43.49-31.77c0,.52,0,1.05,0,1.58A32.22,32.22,0,0,1,337,341Z" transform="translate(-29.97 -76.25)"/><path d="M163.94,269.77a39,39,0,0,0-39,39,38.53,38.53,0,0,0,.64,7,37.18,37.18,0,0,0,1.48,5.67,39,39,0,1,0,36.85-51.63Zm-29.12,50.07a31.11,31.11,0,0,1-1.56-5.64,31.79,31.79,0,0,1-.48-5.47,31.16,31.16,0,0,1,58.77-14.42l-49.74,36.35A31.37,31.37,0,0,1,134.82,319.84Zm13.39,15.78,46.13-33.71a27.58,27.58,0,0,1,.51,3L150.91,337A27.77,27.77,0,0,1,148.21,335.62Zm15.73,4.27a31,31,0,0,1-10.93-2l42-30.71c0,.51,0,1,0,1.53A31.15,31.15,0,0,1,163.94,339.89Z" transform="translate(-29.97 -76.25)"/></svg>