<svg width="550" height="550" viewBox="0 0 550 550" fill="none" xmlns="http://www.w3.org/2000/svg">
<rect width="550" height="550" rx="275" fill="#F7F7F7"/>
<path fill-rule="evenodd" clip-rule="evenodd" d="M397.465 287.672C397.465 292.216 393.76 295.921 389.216 295.921C385.546 295.921 382.435 293.544 381.351 290.224H374.186C373.522 290.224 372.858 289.979 372.368 289.49L349.684 266.805H343.987C342.588 266.805 341.435 265.652 341.435 264.219C341.435 262.786 342.588 261.632 343.987 261.632H350.767C351.432 261.632 352.096 261.912 352.585 262.401L375.269 285.086H381.351C382.435 281.8 385.546 279.388 389.216 279.388C393.76 279.388 397.465 283.093 397.465 287.672ZM392.292 287.672C392.292 285.96 390.928 284.561 389.216 284.561C387.503 284.561 386.105 285.96 386.105 287.672C386.105 289.35 387.503 290.748 389.216 290.748C390.928 290.748 392.292 289.35 392.292 287.672Z" fill="#1E1E1E"/>
<path fill-rule="evenodd" clip-rule="evenodd" d="M413.613 264.918C413.613 269.462 409.908 273.167 405.364 273.167C401.729 273.167 398.618 270.79 397.535 267.504H371.949C370.516 267.504 369.362 266.351 369.362 264.918C369.362 263.485 370.516 262.331 371.949 262.331H397.535C398.618 259.046 401.729 256.669 405.364 256.669C409.908 256.669 413.613 260.374 413.613 264.918ZM408.475 264.918C408.475 263.205 407.077 261.807 405.364 261.807C403.651 261.807 402.253 263.205 402.253 264.918C402.253 266.631 403.651 268.029 405.364 268.029C407.077 268.029 408.475 266.631 408.475 264.918Z" fill="#1E1E1E"/>
<path fill-rule="evenodd" clip-rule="evenodd" d="M427 241.604C427 246.148 423.295 249.853 418.751 249.853C415.081 249.853 411.97 247.476 410.887 244.191H356.36L333.815 266.735C333.361 267.225 332.697 267.504 331.998 267.504H325.147C323.749 267.504 322.595 266.351 322.595 264.918C322.595 263.485 323.749 262.331 325.147 262.331H330.949L353.494 239.787C353.983 239.297 354.612 239.053 355.311 239.053H410.887C411.97 235.732 415.081 233.355 418.751 233.355C423.295 233.355 427 237.06 427 241.604ZM421.827 241.604C421.827 239.892 420.429 238.528 418.751 238.528C417.038 238.528 415.64 239.892 415.64 241.604C415.64 243.317 417.038 244.715 418.751 244.715C420.429 244.715 421.827 243.317 421.827 241.604Z" fill="#1E1E1E"/>
<path fill-rule="evenodd" clip-rule="evenodd" d="M405.364 210.356C409.908 210.356 413.613 214.061 413.613 218.605C413.613 223.149 409.908 226.854 405.364 226.854C401.729 226.854 398.618 224.477 397.535 221.192H367.58C366.147 221.192 364.993 220.038 364.993 218.605C364.993 217.172 366.147 216.019 367.58 216.019H397.535C398.618 212.733 401.729 210.356 405.364 210.356ZM402.253 218.605C402.253 220.318 403.651 221.716 405.364 221.716C407.077 221.716 408.475 220.318 408.475 218.605C408.475 216.892 407.077 215.529 405.364 215.529C403.651 215.529 402.253 216.892 402.253 218.605Z" fill="#1E1E1E"/>
<path fill-rule="evenodd" clip-rule="evenodd" d="M324.692 218.605C324.692 217.172 325.846 216.019 327.244 216.019H353.878L376.143 193.788C376.598 193.299 377.262 193.019 377.961 193.019H386.21C387.258 189.664 390.404 187.217 394.109 187.217C398.653 187.217 402.358 190.922 402.358 195.466C402.358 200.01 398.653 203.715 394.109 203.715C390.509 203.715 387.433 201.408 386.315 198.192H379.009L356.744 220.423C356.29 220.912 355.626 221.192 354.927 221.192H327.244C325.846 221.192 324.692 220.038 324.692 218.605ZM390.998 195.466C390.998 197.179 392.396 198.542 394.109 198.542C395.822 198.542 397.185 197.179 397.185 195.466C397.185 193.753 395.822 192.355 394.109 192.355C392.396 192.355 390.998 193.753 390.998 195.466Z" fill="#1E1E1E"/>
<path fill-rule="evenodd" clip-rule="evenodd" d="M327.908 231.118C327.908 229.685 329.062 228.532 330.495 228.532H338.848C339.932 225.246 343.043 222.869 346.713 222.869C351.257 222.869 354.962 226.574 354.962 231.118C354.962 235.662 351.257 239.367 346.713 239.367C343.043 239.367 339.932 236.99 338.848 233.705H330.495C329.062 233.705 327.908 232.516 327.908 231.118ZM343.602 231.118C343.602 232.831 345 234.194 346.713 234.194C348.426 234.194 349.789 232.831 349.789 231.118C349.789 229.406 348.426 228.007 346.713 228.007C345 228.007 343.602 229.406 343.602 231.118Z" fill="#1E1E1E"/>
<path d="M351.327 229.091C350.383 229.091 349.614 229.86 349.614 230.804C349.614 231.747 350.383 232.516 351.327 232.516H399.562C400.541 232.516 401.309 231.747 401.309 230.804C401.309 229.86 400.541 229.091 399.562 229.091H351.327Z" fill="#1E1E1E"/>
<path d="M395.018 255.061C395.997 255.061 396.766 254.292 396.766 253.348C396.766 252.405 395.997 251.636 395.018 251.636H361.323C360.379 251.636 359.611 252.405 359.611 253.348C359.611 254.292 360.379 255.061 361.323 255.061H395.018Z" fill="#1E1E1E"/>
<path d="M385.825 278.2C386.769 278.2 387.538 277.431 387.538 276.487C387.538 275.544 386.769 274.775 385.825 274.775H374.92C373.976 274.775 373.207 275.544 373.207 276.487C373.207 277.431 373.976 278.2 374.92 278.2H385.825Z" fill="#1E1E1E"/>
<path d="M385.825 208.818C386.769 208.818 387.538 208.049 387.538 207.106C387.538 206.162 386.769 205.393 385.825 205.393H374.92C373.976 205.393 373.207 206.162 373.207 207.106C373.207 208.049 373.976 208.818 374.92 208.818H385.825Z" fill="#1E1E1E"/>
<path fill-rule="evenodd" clip-rule="evenodd" d="M152.535 194.553C152.535 190.009 156.24 186.304 160.784 186.304C164.454 186.304 167.565 188.681 168.649 192.001H175.814C176.478 192.001 177.142 192.246 177.632 192.735L200.316 215.42H206.014C207.412 215.42 208.565 216.573 208.565 218.006C208.565 219.439 207.412 220.593 206.014 220.593H199.233C198.569 220.593 197.904 220.313 197.415 219.824L174.731 197.139H168.649C167.565 200.425 164.454 202.836 160.784 202.836C156.24 202.836 152.535 199.131 152.535 194.553ZM157.708 194.553C157.708 196.265 159.072 197.663 160.784 197.663C162.497 197.663 163.895 196.265 163.895 194.553C163.895 192.875 162.497 191.477 160.784 191.477C159.072 191.477 157.708 192.875 157.708 194.553Z" fill="#1E1E1E"/>
<path fill-rule="evenodd" clip-rule="evenodd" d="M136.387 217.307C136.387 212.763 140.092 209.058 144.636 209.058C148.271 209.058 151.382 211.435 152.465 214.721H178.051C179.484 214.721 180.638 215.874 180.638 217.307C180.638 218.74 179.484 219.894 178.051 219.894H152.465C151.382 223.179 148.271 225.556 144.636 225.556C140.092 225.556 136.387 221.851 136.387 217.307ZM141.525 217.307C141.525 219.02 142.923 220.418 144.636 220.418C146.349 220.418 147.747 219.02 147.747 217.307C147.747 215.594 146.349 214.196 144.636 214.196C142.923 214.196 141.525 215.594 141.525 217.307Z" fill="#1E1E1E"/>
<path fill-rule="evenodd" clip-rule="evenodd" d="M123 240.621C123 236.077 126.705 232.372 131.249 232.372C134.919 232.372 138.03 234.749 139.113 238.034H193.64L216.185 215.49C216.639 215 217.303 214.721 218.002 214.721H224.853C226.251 214.721 227.405 215.874 227.405 217.307C227.405 218.74 226.251 219.894 224.853 219.894H219.051L196.506 242.438C196.017 242.928 195.388 243.172 194.689 243.172H139.113C138.03 246.493 134.919 248.87 131.249 248.87C126.705 248.87 123 245.165 123 240.621ZM128.173 240.621C128.173 242.333 129.571 243.697 131.249 243.697C132.962 243.697 134.36 242.333 134.36 240.621C134.36 238.908 132.962 237.51 131.249 237.51C129.571 237.51 128.173 238.908 128.173 240.621Z" fill="#1E1E1E"/>
<path fill-rule="evenodd" clip-rule="evenodd" d="M144.636 271.869C140.092 271.869 136.387 268.164 136.387 263.62C136.387 259.076 140.092 255.371 144.636 255.371C148.271 255.371 151.382 257.748 152.465 261.033H182.42C183.853 261.033 185.007 262.187 185.007 263.62C185.007 265.053 183.853 266.206 182.42 266.206H152.465C151.382 269.492 148.271 271.869 144.636 271.869ZM147.747 263.62C147.747 261.907 146.349 260.509 144.636 260.509C142.923 260.509 141.525 261.907 141.525 263.62C141.525 265.333 142.923 266.696 144.636 266.696C146.349 266.696 147.747 265.333 147.747 263.62Z" fill="#1E1E1E"/>
<path fill-rule="evenodd" clip-rule="evenodd" d="M225.308 263.62C225.308 265.053 224.154 266.206 222.756 266.206H196.122L173.857 288.437C173.402 288.926 172.738 289.206 172.039 289.206H163.79C162.742 292.561 159.596 295.008 155.891 295.008C151.347 295.008 147.642 291.303 147.642 286.759C147.642 282.215 151.347 278.51 155.891 278.51C159.491 278.51 162.567 280.817 163.685 284.032H170.991L193.256 261.802C193.71 261.313 194.374 261.033 195.073 261.033H222.756C224.154 261.033 225.308 262.187 225.308 263.62ZM159.002 286.759C159.002 285.046 157.604 283.683 155.891 283.683C154.178 283.683 152.815 285.046 152.815 286.759C152.815 288.472 154.178 289.87 155.891 289.87C157.604 289.87 159.002 288.472 159.002 286.759Z" fill="#1E1E1E"/>
<path fill-rule="evenodd" clip-rule="evenodd" d="M222.092 251.107C222.092 252.54 220.938 253.693 219.505 253.693H211.152C210.068 256.979 206.957 259.356 203.287 259.356C198.743 259.356 195.038 255.651 195.038 251.107C195.038 246.563 198.743 242.858 203.287 242.858C206.957 242.858 210.068 245.235 211.152 248.52H219.505C220.938 248.52 222.092 249.709 222.092 251.107ZM206.398 251.107C206.398 249.394 205 248.031 203.287 248.031C201.574 248.031 200.211 249.394 200.211 251.107C200.211 252.819 201.574 254.217 203.287 254.217C205 254.217 206.398 252.819 206.398 251.107Z" fill="#1E1E1E"/>
<path d="M198.673 253.134C199.617 253.134 200.386 252.365 200.386 251.421C200.386 250.478 199.617 249.709 198.673 249.709H150.438C149.459 249.709 148.691 250.478 148.691 251.421C148.691 252.365 149.459 253.134 150.438 253.134H198.673Z" fill="#1E1E1E"/>
<path d="M154.982 227.164C154.003 227.164 153.234 227.933 153.234 228.877C153.234 229.82 154.003 230.589 154.982 230.589H188.677C189.621 230.589 190.389 229.82 190.389 228.877C190.389 227.933 189.621 227.164 188.677 227.164H154.982Z" fill="#1E1E1E"/>
<path d="M164.175 204.025C163.231 204.025 162.462 204.794 162.462 205.738C162.462 206.681 163.231 207.45 164.175 207.45H175.08C176.024 207.45 176.793 206.681 176.793 205.738C176.793 204.794 176.024 204.025 175.08 204.025H164.175Z" fill="#1E1E1E"/>
<path d="M164.175 273.407C163.231 273.407 162.462 274.176 162.462 275.119C162.462 276.063 163.231 276.832 164.175 276.832H175.08C176.024 276.832 176.793 276.063 176.793 275.119C176.793 274.176 176.024 273.407 175.08 273.407H164.175Z" fill="#1E1E1E"/>
<path d="M313.884 200.3C336.222 222.554 336.29 258.703 314.036 281.041C291.782 303.379 255.634 303.447 233.296 281.193C210.958 258.939 210.89 222.79 233.144 200.452C255.398 178.114 291.547 178.046 313.884 200.3ZM237.325 277.148C257.429 297.177 289.963 297.115 309.992 277.011C330.02 256.907 329.959 224.373 309.855 204.345C289.751 184.316 257.217 184.377 237.188 204.481C217.16 224.585 217.221 257.119 237.325 277.148Z" fill="#1E1E1E"/>
<path d="M260.935 315.222L254.541 315.222L247 273L227 239L227 170L309 170L285 273L260.935 315.222Z" fill="#F7F7F7"/>
<path fill-rule="evenodd" clip-rule="evenodd" d="M293.001 214.348L309.456 212.929C310.875 212.645 312.293 213.496 313.145 214.631C313.996 216.05 313.996 217.752 313.145 219.171L262.643 298.328C261.792 300.03 259.806 300.881 257.82 300.314C256.118 299.746 254.983 298.044 254.983 296.058L259.522 244.989C259.522 244.138 259.238 243.57 258.671 243.003C258.104 242.436 257.347 242.152 256.401 242.152L238.811 243.854C237.487 243.854 236.447 243.476 235.69 242.719C234.744 241.963 234.272 240.922 234.272 239.598L233.988 184.274H239.095V178.883H243.067V188.246H252.429V178.883H261.508V188.246H270.871V178.883H279.95V184.557H276.261V188.246H289.312V178.883H298.391L290.447 210.376C289.029 212.929 290.163 214.348 293.001 214.348ZM261.508 178.883V164.981H266.331V169.804H270.871V178.883H261.508ZM254.983 190.799V194.771H258.671V190.799H254.983ZM273.992 166.683V163.279H277.113V166.683H273.992ZM252.713 169.804V164.981H257.536V169.804H252.713ZM239.095 169.804V174.627H234.272V169.804H239.095ZM294.136 155.902V160.442H289.596V164.981H294.136V169.804H280.517V160.442H289.596V155.902H294.136ZM261.792 155.902V160.442H257.252V155.902H261.792ZM252.429 151.079V160.442H247.606V164.981H243.35V151.079H252.429ZM238.527 151.079V155.902H233.988V151.079H238.527ZM275.41 151.079V155.902H270.871V142H279.95V151.079H275.41ZM258.955 202.715V206.687H262.927V202.715H258.955ZM273.424 190.799V194.771H277.396V190.799H273.424Z" fill="url(#paint0_linear_22_3)"/>
<path d="M63.056 348.512V352.688H73.616V360.704H63.056V365.504H75.056V374H52.4V340.016H75.056V348.512H63.056ZM96.9279 365.936H107.2V374H86.2719V340.016H96.9279V365.936ZM128.409 348.512V352.688H138.969V360.704H128.409V365.504H140.409V374H117.753V340.016H140.409V348.512H128.409ZM150.665 356.96C150.665 353.6 151.337 350.608 152.681 347.984C154.057 345.36 156.009 343.328 158.537 341.888C161.065 340.416 164.041 339.68 167.465 339.68C170.409 339.68 173.033 340.24 175.337 341.36C177.673 342.448 179.561 344 181.001 346.016C182.473 348.032 183.449 350.384 183.929 353.072H172.697C172.185 351.952 171.449 351.088 170.489 350.48C169.561 349.84 168.489 349.52 167.273 349.52C165.481 349.52 164.057 350.192 163.001 351.536C161.977 352.88 161.465 354.688 161.465 356.96C161.465 359.232 161.977 361.04 163.001 362.384C164.057 363.728 165.481 364.4 167.273 364.4C168.489 364.4 169.561 364.096 170.489 363.488C171.449 362.848 172.185 361.968 172.697 360.848H183.929C183.449 363.536 182.473 365.888 181.001 367.904C179.561 369.92 177.673 371.488 175.337 372.608C173.033 373.696 170.409 374.24 167.465 374.24C164.041 374.24 161.065 373.52 158.537 372.08C156.009 370.608 154.057 368.56 152.681 365.936C151.337 363.312 150.665 360.32 150.665 356.96ZM221.654 340.016V348.464H212.63V374H201.974V348.464H193.046V340.016H221.654ZM248.832 374L242.448 361.808H242.4V374H231.744V340.016H247.584C250.336 340.016 252.688 340.512 254.64 341.504C256.592 342.464 258.048 343.792 259.008 345.488C260 347.152 260.496 349.04 260.496 351.152C260.496 353.424 259.856 355.44 258.576 357.2C257.328 358.96 255.52 360.224 253.152 360.992L260.544 374H248.832ZM242.4 354.704H246.624C247.648 354.704 248.416 354.48 248.928 354.032C249.44 353.552 249.696 352.816 249.696 351.824C249.696 350.928 249.424 350.224 248.88 349.712C248.368 349.2 247.616 348.944 246.624 348.944H242.4V354.704ZM281.756 340.016V374H271.1V340.016H281.756ZM292.809 356.96C292.809 353.6 293.481 350.608 294.825 347.984C296.201 345.36 298.153 343.328 300.681 341.888C303.209 340.416 306.185 339.68 309.609 339.68C312.553 339.68 315.177 340.24 317.481 341.36C319.817 342.448 321.705 344 323.145 346.016C324.617 348.032 325.593 350.384 326.073 353.072H314.841C314.329 351.952 313.593 351.088 312.633 350.48C311.705 349.84 310.633 349.52 309.417 349.52C307.625 349.52 306.201 350.192 305.145 351.536C304.121 352.88 303.609 354.688 303.609 356.96C303.609 359.232 304.121 361.04 305.145 362.384C306.201 363.728 307.625 364.4 309.417 364.4C310.633 364.4 311.705 364.096 312.633 363.488C313.593 362.848 314.329 361.968 314.841 360.848H326.073C325.593 363.536 324.617 365.888 323.145 367.904C321.705 369.92 319.817 371.488 317.481 372.608C315.177 373.696 312.553 374.24 309.609 374.24C306.185 374.24 303.209 373.52 300.681 372.08C298.153 370.608 296.201 368.56 294.825 365.936C293.481 363.312 292.809 360.32 292.809 356.96ZM351.506 356.96C351.506 353.6 352.178 350.608 353.522 347.984C354.898 345.36 356.85 343.328 359.378 341.888C361.906 340.416 364.882 339.68 368.306 339.68C371.25 339.68 373.874 340.24 376.178 341.36C378.514 342.448 380.402 344 381.842 346.016C383.314 348.032 384.29 350.384 384.77 353.072H373.538C373.026 351.952 372.29 351.088 371.33 350.48C370.402 349.84 369.33 349.52 368.114 349.52C366.322 349.52 364.898 350.192 363.842 351.536C362.818 352.88 362.306 354.688 362.306 356.96C362.306 359.232 362.818 361.04 363.842 362.384C364.898 363.728 366.322 364.4 368.114 364.4C369.33 364.4 370.402 364.096 371.33 363.488C372.29 362.848 373.026 361.968 373.538 360.848H384.77C384.29 363.536 383.314 365.888 381.842 367.904C380.402 369.92 378.514 371.488 376.178 372.608C373.874 373.696 371.25 374.24 368.306 374.24C364.882 374.24 361.906 373.52 359.378 372.08C356.85 370.608 354.898 368.56 353.522 365.936C352.178 363.312 351.506 360.32 351.506 356.96ZM406.462 365.936H416.734V374H395.806V340.016H406.462V365.936ZM437.704 340.016V359.168C437.704 360.736 438.04 361.984 438.712 362.912C439.416 363.808 440.536 364.256 442.072 364.256C443.608 364.256 444.744 363.808 445.48 362.912C446.216 361.984 446.584 360.736 446.584 359.168V340.016H457.192V359.168C457.192 362.4 456.52 365.168 455.176 367.472C453.832 369.744 451.992 371.456 449.656 372.608C447.32 373.76 444.712 374.336 441.832 374.336C438.952 374.336 436.392 373.76 434.152 372.608C431.944 371.456 430.216 369.744 428.968 367.472C427.72 365.2 427.096 362.432 427.096 359.168V340.016H437.704ZM491.739 356.576C493.787 357.056 495.371 358.048 496.491 359.552C497.643 361.024 498.219 362.736 498.219 364.688C498.219 367.664 497.227 369.968 495.243 371.6C493.291 373.2 490.475 374 486.795 374H468.987V340.016H486.315C489.771 340.016 492.491 340.768 494.475 342.272C496.459 343.776 497.451 345.968 497.451 348.848C497.451 350.832 496.923 352.512 495.867 353.888C494.843 355.232 493.467 356.128 491.739 356.576ZM479.643 353.264H483.771C484.731 353.264 485.435 353.072 485.883 352.688C486.363 352.304 486.603 351.712 486.603 350.912C486.603 350.08 486.363 349.472 485.883 349.088C485.435 348.672 484.731 348.464 483.771 348.464H479.643V353.264ZM484.491 365.456C485.451 365.456 486.155 365.28 486.603 364.928C487.083 364.544 487.323 363.936 487.323 363.104C487.323 361.472 486.379 360.656 484.491 360.656H479.643V365.456H484.491Z" fill="#1E1E1E"/>
<path d="M183.032 388.048V393.64H189.128V395.44H183.032V401.2H189.848V403H180.848V386.248H189.848V388.048H183.032ZM209.905 403H207.721L198.937 389.68V403H196.753V386.248H198.937L207.721 399.544V386.248H209.905V403ZM222.532 403.168C221.428 403.168 220.436 402.976 219.556 402.592C218.692 402.192 218.012 401.648 217.516 400.96C217.02 400.256 216.764 399.448 216.748 398.536H219.076C219.156 399.32 219.476 399.984 220.036 400.528C220.612 401.056 221.444 401.32 222.532 401.32C223.572 401.32 224.388 401.064 224.98 400.552C225.588 400.024 225.892 399.352 225.892 398.536C225.892 397.896 225.716 397.376 225.364 396.976C225.012 396.576 224.572 396.272 224.044 396.064C223.516 395.856 222.804 395.632 221.908 395.392C220.804 395.104 219.916 394.816 219.244 394.528C218.588 394.24 218.02 393.792 217.54 393.184C217.076 392.56 216.844 391.728 216.844 390.688C216.844 389.776 217.076 388.968 217.54 388.264C218.004 387.56 218.652 387.016 219.484 386.632C220.332 386.248 221.3 386.056 222.388 386.056C223.956 386.056 225.236 386.448 226.228 387.232C227.236 388.016 227.804 389.056 227.932 390.352H225.532C225.452 389.712 225.116 389.152 224.524 388.672C223.932 388.176 223.148 387.928 222.172 387.928C221.26 387.928 220.516 388.168 219.94 388.648C219.364 389.112 219.076 389.768 219.076 390.616C219.076 391.224 219.244 391.72 219.58 392.104C219.932 392.488 220.356 392.784 220.852 392.992C221.364 393.184 222.076 393.408 222.988 393.664C224.092 393.968 224.98 394.272 225.652 394.576C226.324 394.864 226.9 395.32 227.38 395.944C227.86 396.552 228.1 397.384 228.1 398.44C228.1 399.256 227.884 400.024 227.452 400.744C227.02 401.464 226.38 402.048 225.532 402.496C224.684 402.944 223.684 403.168 222.532 403.168ZM244.802 399.28H237.506L236.162 403H233.858L239.906 386.368H242.426L248.45 403H246.146L244.802 399.28ZM244.178 397.504L241.154 389.056L238.13 397.504H244.178ZM274.572 399.28H267.276L265.932 403H263.628L269.676 386.368H272.196L278.22 403H275.916L274.572 399.28ZM273.948 397.504L270.924 389.056L267.9 397.504H273.948ZM297.128 391.12C296.664 390.144 295.992 389.392 295.112 388.864C294.232 388.32 293.208 388.048 292.04 388.048C290.872 388.048 289.816 388.32 288.872 388.864C287.944 389.392 287.208 390.16 286.664 391.168C286.136 392.16 285.872 393.312 285.872 394.624C285.872 395.936 286.136 397.088 286.664 398.08C287.208 399.072 287.944 399.84 288.872 400.384C289.816 400.912 290.872 401.176 292.04 401.176C293.672 401.176 295.016 400.688 296.072 399.712C297.128 398.736 297.744 397.416 297.92 395.752H291.248V393.976H300.248V395.656C300.12 397.032 299.688 398.296 298.952 399.448C298.216 400.584 297.248 401.488 296.048 402.16C294.848 402.816 293.512 403.144 292.04 403.144C290.488 403.144 289.072 402.784 287.792 402.064C286.512 401.328 285.496 400.312 284.744 399.016C284.008 397.72 283.64 396.256 283.64 394.624C283.64 392.992 284.008 391.528 284.744 390.232C285.496 388.92 286.512 387.904 287.792 387.184C289.072 386.448 290.488 386.08 292.04 386.08C293.816 386.08 295.384 386.52 296.744 387.4C298.12 388.28 299.12 389.52 299.744 391.12H297.128ZM316.623 399.28H309.327L307.983 403H305.679L311.727 386.368H314.247L320.271 403H317.967L316.623 399.28ZM315.999 397.504L312.975 389.056L309.951 397.504H315.999ZM331.715 386.272C333.539 386.272 335.115 386.616 336.443 387.304C337.787 387.976 338.811 388.944 339.515 390.208C340.235 391.472 340.595 392.96 340.595 394.672C340.595 396.384 340.235 397.872 339.515 399.136C338.811 400.384 337.787 401.344 336.443 402.016C335.115 402.672 333.539 403 331.715 403H326.507V386.272H331.715ZM331.715 401.2C333.875 401.2 335.523 400.632 336.659 399.496C337.795 398.344 338.363 396.736 338.363 394.672C338.363 392.592 337.787 390.968 336.635 389.8C335.499 388.632 333.859 388.048 331.715 388.048H328.691V401.2H331.715ZM349.26 386.272V403H347.076V386.272H349.26ZM365.39 403L361.406 396.16H358.766V403H356.582V386.272H361.982C363.246 386.272 364.31 386.488 365.174 386.92C366.054 387.352 366.71 387.936 367.142 388.672C367.574 389.408 367.79 390.248 367.79 391.192C367.79 392.344 367.454 393.36 366.782 394.24C366.126 395.12 365.134 395.704 363.806 395.992L368.006 403H365.39ZM358.766 394.408H361.982C363.166 394.408 364.054 394.12 364.646 393.544C365.238 392.952 365.534 392.168 365.534 391.192C365.534 390.2 365.238 389.432 364.646 388.888C364.07 388.344 363.182 388.072 361.982 388.072H358.766V394.408Z" fill="#1E1E1E"/>
<defs>
<linearGradient id="paint0_linear_22_3" x1="117.077" y1="314.956" x2="117.077" y2="167.305" gradientUnits="userSpaceOnUse">
<stop stop-color="#FF9000"/>
<stop offset="1" stop-color="#FFDB10"/>
</linearGradient>
</defs>
</svg>
