<svg xmlns="http://www.w3.org/2000/svg" height='100' width='100' viewBox="0 0 100 100">
<g>
	<polygon fill="#3D373A" points="256.771,113.587 256.771,113.159 259.84,113.159 259.84,113.587 258.562,113.587 258.562,116.996 
		258.055,116.996 258.055,113.587 "/>
	<polygon fill="#3D373A" points="260.869,113.159 262.076,116.381 263.291,113.159 263.99,113.159 263.99,116.996 263.507,116.996 
		263.507,113.801 263.495,113.801 262.294,116.996 261.864,116.996 260.663,113.801 260.651,113.801 260.651,116.996 
		260.165,116.996 260.165,113.159 "/>
	<polygon fill="#FFBF10" points="91.186,60.492 73.278,42.596 33.153,2.469 33.153,60.492 1.01,60.492 33.153,92.639 65.207,60.492 "/>
	<polygon fill="#C57706" points="33.153,92.64 33.153,60.493 29.518,60.493 	"/>
	<polygon fill="#C57706" points="78.173,47.49 65.207,60.493 69.216,60.493 	"/>
</g>
</svg>
