<svg xmlns="http://www.w3.org/2000/svg" width="100" height="350" viewBox="0 0 78 652">
  <path d="M38.6743 652C31.2663 652 24.6208 650.293 18.738 646.88C12.8551 643.394 8.27958 638.709 5.01132 632.826C1.67044 626.871 -1.38257e-06 620.371 -1.69051e-06 613.326C-2.0429e-06 605.264 1.99726 598.11 5.9918 591.864C9.9137 585.545 15.506 580.97 22.7688 578.137L22.7688 593.062C18.7743 595.023 15.7966 597.747 13.8356 601.233C11.8747 604.719 10.8942 608.75 10.8942 613.326C10.8942 618.337 12.0199 622.804 14.2714 626.725C16.5228 630.647 19.7548 633.734 23.9672 635.986C28.1796 638.164 33.082 639.254 38.6743 639.254C44.2667 639.254 49.1691 638.164 53.3815 635.986C57.5939 633.734 60.8622 630.647 63.1862 626.725C65.4377 622.804 66.5634 618.337 66.5634 613.326C66.5634 608.75 65.583 604.719 63.622 601.233C61.6611 597.747 58.6833 595.023 54.6888 593.062L54.6888 578.137C61.9516 580.97 67.5439 585.545 71.4658 591.864C75.3877 598.11 77.3487 605.264 77.3487 613.326C77.3487 620.443 75.7145 626.943 72.4463 632.826C69.1054 638.709 64.4936 643.394 58.6107 646.88C52.7278 650.293 46.0824 652 38.6743 652Z" fill="url(#paint0_linear_832_4288)"/>
  <path d="M77.6755 531.027C77.6755 536.692 76.4045 541.812 73.8625 546.388C71.2479 550.963 67.6165 554.558 62.9684 557.173C58.2475 559.788 52.8005 561.095 46.6271 561.095C40.5264 561.095 35.1156 559.751 30.3948 557.064C25.674 554.377 22.0426 550.709 19.5006 546.061C16.9586 541.413 15.6876 536.22 15.6876 530.482C15.6876 524.745 16.9586 519.552 19.5006 514.904C22.0426 510.255 25.6739 506.588 30.3948 503.9C35.1156 501.213 40.5263 499.87 46.6271 499.87C52.7278 499.87 58.1386 501.25 62.8594 504.009C67.5802 506.769 71.2479 510.546 73.8625 515.339C76.4045 520.06 77.6755 525.289 77.6755 531.027ZM66.8903 531.027C66.8903 527.831 66.1277 524.854 64.6025 522.094C63.0773 519.261 60.7895 516.973 57.7392 515.23C54.6888 513.487 50.9848 512.616 46.6271 512.616C42.2694 512.616 38.6017 513.451 35.624 515.121C32.5736 516.792 30.2858 519.007 28.7606 521.767C27.2354 524.527 26.4729 527.504 26.4729 530.7C26.4729 533.896 27.2354 536.873 28.7606 539.633C30.2858 542.321 32.5736 544.463 35.624 546.061C38.6017 547.659 42.2694 548.458 46.6271 548.458C53.091 548.458 58.1023 546.823 61.6611 543.555C65.1472 540.214 66.8903 536.038 66.8903 531.027Z" fill="url(#paint1_linear_832_4288)"/>
  <path d="M15.6876 450.77C15.6876 446.049 16.6681 441.837 18.629 438.133C20.59 434.356 23.4951 431.415 27.3444 429.308C31.1937 427.202 35.8418 426.149 41.2889 426.149L76.695 426.149L76.695 438.46L43.1409 438.46C37.7665 438.46 33.663 439.803 30.8305 442.49C27.9254 445.178 26.4729 448.845 26.4729 453.494C26.4729 458.142 27.9254 461.846 30.8305 464.606C33.663 467.293 37.7665 468.636 43.1409 468.636L76.695 468.636L76.695 481.056L16.6681 481.056L16.6681 468.636L23.5314 468.636C21.0621 466.603 19.1374 464.025 17.7575 460.902C16.3776 457.706 15.6876 454.329 15.6876 450.77Z" fill="url(#paint2_linear_832_4288)"/>
  <path d="M26.7997 389.282L60.0269 389.282C62.2784 389.282 63.9125 388.773 64.9293 387.757C65.8735 386.667 66.3455 384.851 66.3455 382.309L66.3455 374.684L76.695 374.684L76.695 384.488C76.695 390.081 75.3877 394.366 72.7731 397.343C70.1585 400.321 65.9098 401.81 60.0269 401.81L26.7997 401.81L26.7997 408.891L16.6681 408.891L16.6681 401.81L1.74306 401.81L1.74306 389.282L16.6681 389.282L16.6681 374.684L26.7997 374.684L26.7997 389.282Z" fill="url(#paint3_linear_832_4288)"/>
  <path d="M46.4092 360.84C40.3811 360.84 35.0429 359.606 30.3948 357.136C25.7466 354.594 22.1515 351.181 19.6095 346.896C16.9949 342.538 15.6876 337.745 15.6876 332.515C15.6876 327.795 16.6318 323.691 18.5201 320.205C20.3358 316.646 22.6236 313.814 25.3834 311.708L16.6681 311.708L16.6681 299.179L76.695 299.179L76.695 311.708L67.7618 311.708C70.5943 313.814 72.9547 316.683 74.843 320.314C76.7313 323.945 77.6755 328.085 77.6755 332.733C77.6755 337.89 76.3682 342.611 73.7536 346.896C71.0664 351.181 67.3623 354.594 62.6415 357.136C57.8481 359.606 52.4373 360.84 46.4092 360.84ZM46.6271 311.708C42.4873 311.708 38.8922 312.579 35.8418 314.322C32.7915 315.993 30.4674 318.208 28.8696 320.968C27.2718 323.727 26.4728 326.705 26.4728 329.901C26.4728 333.096 27.2718 336.074 28.8696 338.834C30.3948 341.594 32.6825 343.845 35.7329 345.588C38.7106 347.259 42.2694 348.094 46.4092 348.094C50.549 348.094 54.1804 347.259 57.3034 345.588C60.4264 343.845 62.8231 341.594 64.4935 338.834C66.0913 336.002 66.8903 333.024 66.8903 329.901C66.8903 326.705 66.0913 323.727 64.4935 320.968C62.8957 318.208 60.5716 315.993 57.5213 314.322C54.3983 312.579 50.7669 311.708 46.6271 311.708Z" fill="url(#paint4_linear_832_4288)"/>
  <path d="M46.6271 280.47C40.4537 280.47 35.0429 279.236 30.3948 276.766C25.6739 274.224 22.0425 270.738 19.5006 266.308C16.9586 261.877 15.6876 256.793 15.6876 251.056C15.6876 243.793 17.4307 237.801 20.9168 233.08C24.3303 228.287 29.2327 225.055 35.624 223.385L35.624 236.785C32.6462 237.874 30.3221 239.617 28.6517 242.014C26.9812 244.41 26.146 247.424 26.146 251.056C26.146 256.14 27.9617 260.207 31.5931 263.257C35.1519 266.235 40.1632 267.724 46.6271 267.724C53.091 267.724 58.1386 266.235 61.77 263.257C65.4014 260.207 67.2171 256.14 67.2171 251.056C67.2171 243.866 64.0578 239.109 57.7391 236.785L57.7391 223.385C63.8399 225.128 68.7059 228.396 72.3373 233.189C75.8961 237.983 77.6755 243.938 77.6755 251.056C77.6755 256.793 76.4045 261.877 73.8625 266.308C71.2479 270.738 67.6165 274.224 62.9683 276.766C58.2475 279.236 52.8004 280.47 46.6271 280.47Z" fill="url(#paint5_linear_832_4288)"/>
  <path d="M26.7997 189.982L60.0269 189.982C62.2784 189.982 63.9125 189.474 64.9293 188.457C65.8735 187.367 66.3455 185.552 66.3455 183.01L66.3455 175.384L76.695 175.384L76.695 185.189C76.695 190.781 75.3877 195.066 72.7731 198.044C70.1585 201.022 65.9098 202.51 60.0269 202.51L26.7997 202.51L26.7997 209.592L16.6681 209.592L16.6681 202.51L1.74305 202.51L1.74305 189.982L16.6681 189.982L16.6681 175.384L26.7997 175.384L26.7997 189.982Z" fill="url(#paint6_linear_832_4288)"/>
  <path d="M16.6681 68.2031L76.695 68.2031L76.695 80.6224L69.6138 80.6224C72.0831 82.5833 74.0441 85.1616 75.4966 88.3573C76.8766 91.4803 77.5665 94.8211 77.5665 98.3799C77.5665 103.101 76.5861 107.349 74.6251 111.126C72.6642 114.83 69.759 117.772 65.9098 119.95C62.0605 122.057 57.4123 123.11 51.9652 123.11L16.6681 123.11L16.6681 110.799L50.1132 110.799C55.4877 110.799 59.6275 109.456 62.5326 106.768C65.3651 104.081 66.7813 100.413 66.7813 95.7653C66.7813 91.1171 65.3651 87.4494 62.5326 84.7622C59.6275 82.0023 55.4877 80.6224 50.1132 80.6224L16.6681 80.6224L16.6681 68.2031Z" fill="url(#paint7_linear_832_4288)"/>
  <path d="M77.6755 23.4918C77.6755 28.2126 76.8403 32.4614 75.1698 36.238C73.4268 39.942 71.1027 42.8834 68.1975 45.0623C65.2198 47.2411 61.9152 48.4032 58.2838 48.5484L58.2838 35.6933C60.8258 35.4754 62.9683 34.2771 64.7114 32.0982C66.3818 29.8468 67.2171 27.0506 67.2171 23.7097C67.2171 20.2236 66.5634 17.5363 65.2561 15.648C63.8762 13.6871 62.1331 12.7066 60.0269 12.7066C57.7754 12.7066 56.105 13.796 55.0156 15.9748C53.9262 18.081 52.7278 21.4582 51.4205 26.1064C50.1858 30.6093 48.9875 34.277 47.8254 37.1095C46.6634 39.942 44.884 42.4113 42.4873 44.5176C40.0906 46.5511 36.9312 47.568 33.0093 47.568C29.8137 47.568 26.9086 46.6238 24.294 44.7354C21.6068 42.8471 19.5006 40.1599 17.9754 36.6738C16.4502 33.115 15.6876 29.0479 15.6876 24.4723C15.6876 17.6453 17.4307 12.1619 20.9168 8.02209C24.3303 3.80968 29.0148 1.55818 34.9703 1.26767L34.9703 13.6871C32.2831 13.905 30.1405 14.9943 28.5427 16.9553C26.9449 18.9162 26.146 21.5672 26.146 24.9081C26.146 28.1763 26.7633 30.682 27.998 32.4251C29.2327 34.1681 30.8668 35.0397 32.9004 35.0397C34.4982 35.0397 35.8418 34.4586 36.9312 33.2966C38.0207 32.1345 38.8922 30.7183 39.5458 29.0478C40.1269 27.3774 40.8895 24.908 41.8336 21.6398C42.9957 17.2821 44.194 13.7234 45.4287 10.9635C46.5908 8.13103 48.3338 5.69802 50.6579 3.66444C52.982 1.63086 56.0687 0.577695 59.918 0.505066C63.3315 0.505066 66.3818 1.44926 69.0691 3.33759C71.7563 5.22591 73.8625 7.91313 75.3877 11.3993C76.9129 14.8128 77.6755 18.8436 77.6755 23.4918Z" fill="url(#paint8_linear_832_4288)"/>
  <defs>
    <linearGradient id="paint0_linear_832_4288" x1="45.3107" y1="706.759" x2="45.3107" y2="-297.161" gradientUnits="userSpaceOnUse">
      <stop stop-color="#4FDEDC"/>
      <stop offset="1" stop-color="#F4C45B"/>
    </linearGradient>
    <linearGradient id="paint1_linear_832_4288" x1="45.3107" y1="706.759" x2="45.3107" y2="-297.161" gradientUnits="userSpaceOnUse">
      <stop stop-color="#4FDEDC"/>
      <stop offset="1" stop-color="#F4C45B"/>
    </linearGradient>
    <linearGradient id="paint2_linear_832_4288" x1="45.3107" y1="706.759" x2="45.3107" y2="-297.161" gradientUnits="userSpaceOnUse">
      <stop stop-color="#4FDEDC"/>
      <stop offset="1" stop-color="#F4C45B"/>
    </linearGradient>
    <linearGradient id="paint3_linear_832_4288" x1="45.3107" y1="706.759" x2="45.3107" y2="-297.161" gradientUnits="userSpaceOnUse">
      <stop stop-color="#4FDEDC"/>
      <stop offset="1" stop-color="#F4C45B"/>
    </linearGradient>
    <linearGradient id="paint4_linear_832_4288" x1="45.3107" y1="706.759" x2="45.3107" y2="-297.161" gradientUnits="userSpaceOnUse">
      <stop stop-color="#4FDEDC"/>
      <stop offset="1" stop-color="#F4C45B"/>
    </linearGradient>
    <linearGradient id="paint5_linear_832_4288" x1="45.3107" y1="706.759" x2="45.3107" y2="-297.161" gradientUnits="userSpaceOnUse">
      <stop stop-color="#4FDEDC"/>
      <stop offset="1" stop-color="#F4C45B"/>
    </linearGradient>
    <linearGradient id="paint6_linear_832_4288" x1="45.3107" y1="706.759" x2="45.3107" y2="-297.161" gradientUnits="userSpaceOnUse">
      <stop stop-color="#4FDEDC"/>
      <stop offset="1" stop-color="#F4C45B"/>
    </linearGradient>
    <linearGradient id="paint7_linear_832_4288" x1="45.3107" y1="706.759" x2="45.3107" y2="-297.161" gradientUnits="userSpaceOnUse">
      <stop stop-color="#4FDEDC"/>
      <stop offset="1" stop-color="#F4C45B"/>
    </linearGradient>
    <linearGradient id="paint8_linear_832_4288" x1="45.3107" y1="706.759" x2="45.3107" y2="-297.161" gradientUnits="userSpaceOnUse">
      <stop stop-color="#4FDEDC"/>
      <stop offset="1" stop-color="#F4C45B"/>
    </linearGradient>
  </defs>
</svg>