<svg viewBox="0 0 38 44" fill="white" xmlns="http://www.w3.org/2000/svg">
<path d="M24.806 20.9156C24.806 22.2177 23.8446 23.285 22.6267 23.285C21.4302 23.285 20.4474 22.2177 20.4474 20.9156C20.4474 19.6134 21.4088 18.5461 22.6267 18.5461C23.8446 18.5461 24.806 19.6134 24.806 20.9156ZM14.8281 18.5461C13.6102 18.5461 12.6487 19.6134 12.6487 20.9156C12.6487 22.2177 13.6316 23.285 14.8281 23.285C16.0459 23.285 17.0074 22.2177 17.0074 20.9156C17.0288 19.6134 16.0459 18.5461 14.8281 18.5461ZM37.3907 5.03403V43.329C32.0079 38.5767 33.7294 40.1498 27.4768 34.3423L28.6092 38.2913H4.38005C1.96568 38.2913 0 36.3275 0 33.894V5.03403C0 2.60057 1.96568 0.636719 4.38005 0.636719H33.0106C35.425 0.636719 37.3907 2.60057 37.3907 5.03403ZM31.3013 25.2702C31.3013 18.3967 28.2246 12.8254 28.2246 12.8254C25.1479 10.52 22.2207 10.584 22.2207 10.584L21.9216 10.9256C25.5539 12.0356 27.2418 13.6365 27.2418 13.6365C22.1664 10.8574 16.2045 10.8569 11.2813 13.0175C10.4908 13.3804 10.0207 13.6365 10.0207 13.6365C10.0207 13.6365 11.7941 11.9502 15.64 10.8402L15.4263 10.584C15.4263 10.584 12.4992 10.52 9.42245 12.8254C9.42245 12.8254 6.34573 18.3967 6.34573 25.2702C6.34573 25.2702 8.14048 28.3654 12.8624 28.5148C12.8624 28.5148 13.6529 27.5542 14.2939 26.7431C11.5804 25.9319 10.5549 24.2242 10.5549 24.2242C10.8692 24.444 11.3875 24.7289 11.4309 24.7579C15.0372 26.7756 20.1599 27.4366 24.7633 25.505C25.5111 25.2275 26.3444 24.8219 27.2204 24.2456C27.2204 24.2456 26.1521 25.9959 23.3531 26.7858C23.9941 27.5969 24.7633 28.5148 24.7633 28.5148C29.4852 28.3654 31.3013 25.2702 31.3013 25.2702Z"/>
</svg>
