<svg width="423" height="480" viewBox="0 0 423 480" xmlns="http://www.w3.org/2000/svg">
<path d="M0.296114 0C111.043 0 222.085 0 333.128 0H417.224C420.777 0 422.554 1.87539 422.554 5.62616C422.554 162.566 422.554 319.21 422.554 476.151C422.554 477.335 422.554 478.519 422.554 480C282.788 480 143.319 480 3.55336 480C0.592227 480 0 479.408 0 476.447C0.296114 317.73 0.296114 159.013 0.296114 0Z" fill="#5DA693"/>
<path d="M203.427 146.874C203.427 166.714 203.427 186.554 203.427 206.393C203.427 209.058 202.834 209.947 199.873 209.947C160.49 209.947 121.107 209.947 81.724 209.947C78.7629 209.947 77.8745 209.058 77.8745 206.097C77.8745 166.714 77.8745 127.331 77.8745 87.9479C77.8745 84.9868 78.7629 84.3945 81.724 84.3945C121.107 84.3945 160.49 84.3945 199.873 84.3945C202.538 84.3945 203.427 84.9868 203.427 87.9479C203.427 107.788 203.427 127.331 203.427 146.874Z" fill="#FEFEFE"/>
<path d="M203.427 288.41C203.427 308.25 203.427 327.793 203.427 347.633C203.427 350.298 202.834 351.186 199.873 351.186C160.49 351.186 121.107 351.186 81.724 351.186C78.7629 351.186 77.8745 350.594 77.8745 347.337C77.8745 307.954 77.8745 268.57 77.8745 229.187C77.8745 226.226 78.7629 225.338 81.724 225.338C121.107 225.338 160.49 225.338 199.873 225.338C202.834 225.338 203.427 226.226 203.427 228.891C203.427 248.731 203.427 268.57 203.427 288.41Z" fill="#FEFEFE"/>
<path d="M344.688 288.114C344.688 307.657 344.688 327.201 344.688 346.744C344.688 349.706 344.096 350.89 340.838 350.89C301.455 350.89 262.368 350.89 222.985 350.89C220.024 350.89 219.136 350.002 219.136 347.041C219.136 307.657 219.136 268.274 219.136 228.891C219.136 225.634 220.32 225.338 222.985 225.338C262.368 225.338 301.455 225.338 340.838 225.338C343.8 225.338 344.688 226.226 344.392 229.187C344.392 249.027 344.392 268.57 344.392 288.41" fill="#FEFEFE"/>
<path d="M219.425 146.874C219.425 127.331 219.425 107.788 219.425 88.244C219.425 85.579 219.721 84.3945 222.978 84.3945C262.361 84.3945 301.744 84.3945 341.127 84.3945C343.792 84.3945 344.681 84.9868 344.681 87.9479C344.681 127.331 344.681 167.01 344.681 206.689C344.681 209.651 343.792 210.243 341.127 210.243C301.744 210.243 262.361 210.243 222.978 210.243C219.721 210.243 219.425 209.058 219.425 206.393C219.425 186.554 219.425 167.01 219.425 147.171" fill="#FEFEFE"/>
<path d="M150.733 409.236C148.068 409.236 145.995 409.236 143.626 409.236C142.442 409.236 141.849 408.94 141.849 407.46C141.849 405.979 142.738 406.275 143.626 406.275C145.995 406.275 148.068 406.275 150.437 406.275C154.582 406.275 154.878 406.867 153.694 410.717C152.213 416.047 147.476 419.304 141.257 419.008C135.039 418.712 130.005 414.27 129.116 408.348C128.228 402.129 131.485 396.207 137.112 394.134C142.145 392.358 146.587 393.246 150.437 396.799C151.029 397.392 153.102 398.28 151.621 399.761C150.437 401.241 149.548 400.353 148.364 399.168C145.107 395.911 140.073 395.615 136.223 398.28C132.67 400.945 131.189 405.683 132.966 409.828C134.447 413.974 138.592 416.047 143.33 415.455C146.883 415.159 149.844 413.382 150.437 409.236" fill="#FDFCFC"/>
<path d="M236.312 406.566C236.312 403.308 236.312 400.347 236.312 397.09C236.312 394.721 237.201 394.129 239.274 394.129C241.643 394.129 243.715 394.129 246.084 394.129C252.895 394.129 257.633 399.459 257.633 406.566C257.633 413.376 252.895 418.41 246.38 418.706C239.866 418.904 236.609 415.745 236.609 409.231V406.566" fill="#FDFBFB"/>
<path d="M344.366 418.121C341.997 419.01 340.813 418.417 339.924 416.641C339.036 414.864 337.852 413.087 336.963 411.311C335.779 408.349 333.41 408.942 331.041 409.238C328.376 409.534 329.857 411.903 329.56 413.087C329.56 414.272 329.56 415.456 329.56 416.937C329.56 418.121 328.968 418.417 327.784 418.417C326.599 418.417 326.303 417.825 326.303 416.937C326.303 409.83 326.303 402.723 326.303 395.617C326.303 393.84 327.488 393.84 328.672 393.84C331.337 393.84 334.002 393.84 336.667 393.84C340.221 393.84 342.293 395.913 343.478 398.874C344.366 401.835 344.07 404.796 341.405 406.573C338.74 408.349 339.628 409.83 340.813 411.607C341.997 413.383 343.182 415.456 344.366 417.529" fill="#FDFCFC"/>
<path d="M204.923 418.114C202.555 419.002 201.074 418.41 200.778 416.337C200.186 413.376 198.409 412.784 196.04 413.08C194.559 413.08 193.375 413.08 191.894 413.08C189.229 412.784 187.749 413.672 187.453 416.337C187.157 418.41 185.676 419.299 183.307 418.114C185.972 410.711 188.933 403.308 191.598 395.906C192.191 394.721 192.783 394.129 193.967 394.129C195.448 394.129 196.336 394.721 196.632 396.202C199.297 403.605 201.962 410.711 204.923 418.41" fill="#FDFCFC"/>
<path d="M99.4839 416.936C99.4839 416.936 99.4839 418.417 98.5955 418.713C97.7072 418.713 96.5227 418.713 95.9305 417.825C95.0422 416.344 95.9305 413.679 93.5616 413.679C90.6005 413.383 87.3432 413.679 84.086 413.679C82.3093 413.679 82.6054 415.752 82.0132 416.936C81.4209 418.417 80.5326 419.601 79.052 419.009C77.2754 418.417 78.7559 416.936 79.052 416.344C81.4209 409.83 83.7899 403.611 86.1588 397.097C86.751 395.912 87.0471 394.728 88.8238 394.432C90.6005 394.432 91.1927 395.32 91.7849 396.801C94.1538 403.315 96.5227 409.83 98.8916 416.344C98.8916 416.936 99.1878 417.232 99.1878 417.232" fill="#FDFCFC"/>
<path d="M292.847 406.566V416.337C292.847 416.337 292.847 418.706 291.366 418.706C289.59 418.706 289.886 417.522 289.886 416.337V396.202C289.886 396.202 289.886 394.129 291.366 394.129C293.143 394.129 293.143 395.017 293.143 396.202C293.143 399.755 293.143 403.012 293.143 406.566" fill="#FEFEFE"/>
<path d="M112.228 146.869C112.228 132.656 112.228 118.739 112.228 104.525C112.228 101.86 112.524 100.676 115.782 100.676C132.364 100.676 148.946 100.676 165.529 100.676C168.194 100.676 169.082 101.268 168.786 103.933C168.786 107.783 168.786 111.632 168.786 115.185C168.786 117.554 167.898 118.146 165.825 118.146C155.165 118.146 144.505 118.146 134.141 118.146C131.18 118.146 130.587 119.035 130.587 121.7C130.587 126.142 130.587 130.583 130.587 135.025C130.587 137.394 131.18 137.986 133.548 137.986C143.024 137.986 152.796 137.986 162.271 137.986C164.936 137.986 165.825 138.578 165.529 141.243C165.529 144.797 165.529 148.35 165.529 151.903C165.529 154.272 164.936 155.161 162.271 155.161C152.796 155.161 143.32 155.161 133.845 155.161C130.883 155.161 129.995 155.753 130.291 158.714C130.291 163.452 130.291 168.19 130.291 172.631C130.291 175.296 130.883 176.185 133.548 175.889C144.209 175.889 155.165 175.889 165.825 175.889C168.786 175.889 169.674 176.481 169.378 179.442C169.378 183.291 169.378 187.141 169.378 191.287C169.378 193.063 168.786 193.655 167.009 193.655C149.539 193.655 132.068 193.655 114.893 193.655C112.228 193.655 112.228 192.175 112.228 190.398C112.228 175.889 112.228 161.675 112.228 147.166" fill="#5DA693"/>
<path d="M142.122 336.387C127.02 336.09 114.583 331.056 107.18 316.843C105.7 314.178 106.292 312.994 108.957 311.809C112.51 310.032 115.767 307.96 119.025 305.887C120.801 304.998 121.394 304.702 122.578 306.775C127.908 316.547 138.568 320.989 149.228 318.027C154.262 316.547 156.927 313.882 157.223 309.736C157.519 305.295 155.743 302.63 150.709 300.261C143.306 296.707 135.015 295.227 127.612 292.266C111.918 285.751 105.403 271.834 111.326 257.324C115.767 246.664 124.651 241.926 135.607 240.446C150.117 238.373 164.33 245.776 171.437 258.213C172.621 259.989 172.917 261.174 170.548 262.654C166.995 264.431 163.442 266.504 160.184 268.873C158.112 270.353 157.519 269.761 156.335 267.688C151.893 260.285 145.083 257.324 136.791 258.509C132.054 259.101 128.796 262.062 127.908 266.208C127.316 270.057 129.093 273.61 133.534 275.979C140.937 280.125 149.228 281.309 156.927 284.567C164.922 287.824 171.733 292.266 174.694 300.853C179.728 316.843 170.252 331.945 153.078 335.794C149.524 336.683 145.971 336.683 142.122 336.979" fill="#5DA693"/>
<path d="M238.076 334.318C244.887 314.478 251.698 295.527 258.212 276.28C261.766 265.916 265.615 255.552 269.168 244.892C270.057 242.523 270.945 241.338 273.61 241.635C279.236 241.635 284.862 241.635 290.785 241.635C292.265 241.635 293.154 241.635 293.746 243.411C304.11 273.319 314.77 303.522 325.726 334.022C319.804 334.022 314.178 334.022 308.551 334.022C307.071 334.022 306.775 332.838 306.479 331.653C304.998 327.507 303.518 323.658 302.333 319.512C301.741 317.736 300.852 317.143 299.076 317.143C287.824 317.143 276.867 317.143 265.911 317.143C264.134 317.143 263.246 317.736 262.654 319.512C261.469 323.658 259.989 327.507 258.804 331.653C258.508 332.838 257.916 333.726 256.435 333.726C250.513 333.726 244.887 333.726 238.669 333.726" fill="#5DA693"/>
<path d="M264.121 137.99C264.121 154.868 264.121 171.747 264.121 188.625C264.121 192.475 263.232 193.955 259.383 193.363C255.829 193.067 251.98 193.363 248.427 193.363C246.354 193.363 246.058 192.771 246.058 190.698C246.058 161.383 246.058 132.364 246.058 103.048C246.058 101.272 246.354 100.087 248.427 100.383C248.427 100.383 248.427 100.383 248.723 100.383C256.718 98.9027 261.752 101.864 266.193 108.971C275.965 124.072 286.625 138.286 296.989 153.091C297.581 153.98 298.47 154.868 299.062 155.756C300.246 154.572 299.654 153.388 299.654 152.499C299.654 136.213 299.654 120.223 299.654 103.937C299.654 101.272 300.246 100.087 303.208 100.383C307.057 100.383 310.906 100.383 315.052 100.383C318.013 100.383 318.013 101.864 318.013 103.937C318.013 128.81 318.013 153.388 318.013 178.261C318.013 182.407 318.013 186.552 318.013 190.698C318.013 192.475 317.421 193.363 315.644 193.067C315.348 193.067 314.756 193.067 314.46 193.067C306.761 194.547 302.023 191.29 297.877 184.479C287.514 168.489 275.965 153.091 265.009 137.397H264.417L264.121 137.99Z" fill="#5DA693"/>
<path d="M239.558 405.982C239.558 405.982 239.558 404.502 239.558 403.613C239.854 401.541 238.374 398.283 240.446 397.395C243.111 396.507 246.369 396.507 249.33 397.691C252.883 399.172 254.956 403.909 254.364 408.055C253.475 412.201 250.514 414.866 246.369 415.162C242.026 415.359 239.854 413.286 239.854 408.943V405.39L239.558 405.982Z" fill="#5DA693"/>
<path d="M329.859 401.528C328.97 398.27 329.859 396.79 333.708 397.086C338.742 397.382 340.815 398.566 340.815 401.824C340.815 404.785 338.446 405.969 334.004 406.265C329.859 406.561 329.266 404.489 330.155 401.528" fill="#5DA693"/>
<path d="M198.697 410.113H189.813C191.294 406.264 192.478 402.414 194.255 397.973C196.032 402.414 197.216 405.968 198.697 410.113Z" fill="#5DA693"/>
<path d="M93.5753 410.124H84.988C86.1725 406.274 87.3569 402.425 89.4297 398.279C90.9103 402.425 92.3909 405.978 93.8714 410.124" fill="#5DA693"/>
<path d="M281.89 262.945C286.331 275.086 290.181 286.634 294.326 297.887C295.215 299.96 295.215 300.848 292.254 300.848C285.443 300.848 278.632 300.848 271.822 300.848C270.341 300.848 268.861 301.144 269.749 298.775C273.598 287.227 277.448 275.382 281.593 262.945" fill="#FEFEFE"/>
</svg>
