<svg width="1920" height="1080" viewBox="0 0 1920 1080" fill="none" xmlns="http://www.w3.org/2000/svg">
<path opacity="0.08" d="M927.907 871.378C1102.78 871.378 1244.54 729.478 1244.54 554.435C1244.54 379.392 1102.78 237.492 927.907 237.492C753.037 237.492 611.276 379.392 611.276 554.435C611.276 729.478 753.037 871.378 927.907 871.378Z" fill="#206261"/>
<path d="M915.185 860.38C1090.06 860.38 1231.82 718.48 1231.82 543.437C1231.82 368.394 1090.06 226.494 915.185 226.494C740.314 226.494 598.554 368.394 598.554 543.437C598.554 718.48 740.314 860.38 915.185 860.38Z" fill="#F0F7FC"/>
<path opacity="0.31" d="M-22.875 575.156C-7.15213 583.089 0.817354 602.459 8.52627 621.188C10.382 625.698 12.3013 630.361 14.2905 634.738C25.0499 658.428 38.2752 686.189 54.7924 712.494C82.2725 756.261 141.548 829.298 229.79 826.772C310.845 824.457 392.053 790.283 464.204 759.2L469.186 770.931L497.283 758.971L505.411 778.113C508.087 784.405 515.344 787.337 521.63 784.665L606.269 748.647L607.159 750.74C608.201 753.189 611.029 754.334 613.476 753.291L627.877 747.164C630.323 746.121 631.467 743.29 630.425 740.841L629.535 738.748L636.342 735.854L637.232 737.947C638.274 740.396 641.102 741.541 643.549 740.498L657.95 734.371C660.396 733.328 661.54 730.497 660.498 728.048L659.608 725.955L671.62 720.847C677.905 718.169 680.835 710.904 678.166 704.612L676.59 700.897L739.068 674.306L706.917 598.604L644.438 625.195L642.862 621.48C640.187 615.189 632.929 612.256 626.637 614.928L614.626 620.036L613.736 617.943C612.694 615.494 609.866 614.349 607.419 615.392L593.018 621.518C590.571 622.562 589.427 625.393 590.47 627.842L591.359 629.935L584.553 632.829L583.663 630.736C582.621 628.287 579.793 627.142 577.346 628.185L562.945 634.311C560.498 635.355 559.354 638.186 560.397 640.635L561.286 642.728L476.647 678.746C470.362 681.425 467.432 688.69 470.101 694.981L478.026 713.646L449.93 725.605L454.868 737.228C384.661 767.477 305.697 800.716 229.11 802.904C196.324 803.839 132.701 791.695 74.9894 699.784C59.222 674.682 46.4353 647.817 36.0063 624.852C34.1951 620.863 32.441 616.601 30.5853 612.091C21.6498 590.379 11.5196 565.773 -12.1283 553.832" fill="#206261"/>
<path d="M640.74 714.592C641.783 717.041 644.611 718.187 647.058 717.143L661.459 711.017C663.905 709.974 665.049 707.143 664.007 704.694L663.117 702.601L675.129 697.493C681.414 694.814 684.344 687.55 681.675 681.258L646.365 598.132C643.689 591.841 636.432 588.908 630.146 591.58L618.135 596.688L617.245 594.595C616.203 592.146 613.375 591.001 610.928 592.044L596.527 598.17C594.08 599.214 592.936 602.045 593.979 604.494L594.868 606.587L588.062 609.481L587.172 607.388C586.13 604.939 583.302 603.794 580.855 604.837L566.454 610.963C564.007 612.007 562.863 614.838 563.906 617.287L564.795 619.38L480.156 655.399C473.871 658.077 470.941 665.342 473.61 671.633L508.92 754.759C511.596 761.05 518.853 763.983 525.139 761.311L609.778 725.292L610.667 727.385C611.71 729.834 614.538 730.979 616.984 729.936L631.385 723.81C633.832 722.767 634.976 719.936 633.934 717.487L633.044 715.394L639.851 712.499L640.74 714.592Z" fill="#E2F0FE"/>
<mask id="mask0_909_4083" style="mask-type:luminance" maskUnits="userSpaceOnUse" x="472" y="590" width="211" height="173">
<path d="M640.74 714.592C641.783 717.041 644.611 718.187 647.058 717.143L661.459 711.017C663.905 709.974 665.049 707.143 664.007 704.694L663.117 702.601L675.129 697.493C681.414 694.814 684.344 687.55 681.675 681.258L646.365 598.132C643.689 591.841 636.432 588.908 630.146 591.58L618.135 596.688L617.245 594.595C616.203 592.146 613.375 591.001 610.928 592.044L596.527 598.17C594.08 599.214 592.936 602.045 593.979 604.494L594.868 606.587L588.062 609.481L587.172 607.388C586.13 604.939 583.302 603.794 580.855 604.837L566.454 610.963C564.007 612.007 562.863 614.838 563.906 617.287L564.795 619.38L480.156 655.399C473.871 658.077 470.941 665.342 473.61 671.633L508.92 754.759C511.596 761.05 518.853 763.983 525.139 761.311L609.778 725.292L610.667 727.385C611.71 729.834 614.538 730.979 616.984 729.936L631.385 723.81C633.832 722.767 634.976 719.936 633.934 717.487L633.044 715.394L639.851 712.499L640.74 714.592Z" fill="white"/>
</mask>
<g mask="url(#mask0_909_4083)">
<path opacity="0.14" d="M490.02 712.759L675.987 634.284L640.702 568.232L453.197 650.633L470.102 694.985L490.02 712.759Z" fill="url(#paint0_linear_909_4083)"/>
</g>
<path d="M742.51 650.931L710.36 575.227L647.884 601.811L680.034 677.515L742.51 650.931Z" fill="url(#paint1_linear_909_4083)"/>
<path d="M712.042 592.526L707.241 581.221L691.73 587.821L696.531 599.126L712.042 592.526Z" fill="white"/>
<path d="M720.055 611.395L715.254 600.09L699.743 606.69L704.544 617.995L720.055 611.395Z" fill="white"/>
<path d="M728.083 630.278L723.282 618.973L707.771 625.573L712.572 636.878L728.083 630.278Z" fill="white"/>
<path d="M736.076 649.143L731.275 637.838L715.765 644.438L720.565 655.743L736.076 649.143Z" fill="white"/>
<path d="M639.801 712.482L594.819 606.562L588.017 609.457L632.999 715.376L639.801 712.482Z" fill="url(#paint2_linear_909_4083)"/>
<path d="M499.946 736.22L480.697 690.895L450.453 703.764L469.702 749.089L499.946 736.22Z" fill="url(#paint3_linear_909_4083)"/>
<path d="M-11.5565 532.023C12.0914 543.964 22.2216 568.57 31.1571 590.282C33.0129 594.792 34.7669 599.061 36.5781 603.043C47.0071 626.008 59.8002 652.873 75.5612 677.975C133.267 769.886 196.896 782.03 229.682 781.095C308.328 778.85 389.479 743.861 461.07 712.989L471.436 708.523L480.854 730.464L470.502 734.924C396.94 766.642 313.559 802.591 230.356 804.97C142.12 807.496 82.838 734.459 55.3579 690.692C38.8406 664.387 25.6153 636.626 14.8559 612.935C12.8667 608.559 10.9474 603.896 9.0917 599.385C1.38279 580.657 -6.58669 561.286 -22.3096 553.354" fill="url(#paint4_linear_909_4083)"/>
<path opacity="0.31" d="M1951.78 620.818C1887.39 625.239 1813.88 555.422 1754.81 499.319C1731.79 477.449 1711.91 458.568 1695.02 446.303C1588.46 368.921 1493.1 343.863 1403.94 369.907L1396.66 354.118L1363.29 369.538L1356.52 354.869C1353.95 349.29 1347.35 346.853 1341.77 349.43L1256.45 388.852L1254.79 385.251C1253.45 382.363 1250.04 381.104 1247.15 382.433L1162.95 421.34C1160.06 422.676 1158.81 426.099 1160.13 428.987L1161.79 432.587L1124.81 449.674C1119.24 452.251 1116.8 458.86 1119.38 464.439L1130.48 488.511L1045.92 527.825C1039.12 530.968 1036.16 539.028 1039.29 545.835C1042.43 552.642 1050.48 555.606 1057.28 552.47L1141.89 513.251L1153.13 537.628C1155.7 543.207 1162.31 545.644 1167.88 543.067L1204.86 525.981L1206.52 529.581C1207.86 532.469 1211.28 533.729 1214.16 532.399L1298.36 493.492C1301.25 492.156 1302.5 488.734 1301.18 485.846L1299.52 482.245L1384.84 442.823C1390.42 440.247 1392.85 433.637 1390.28 428.058L1385.22 417.097L1383.51 413.382L1416.89 397.962L1408.75 380.302C1493.89 356.109 1585.54 380.779 1688.4 455.47C1704.68 467.296 1724.31 485.941 1747.04 507.532C1807.71 565.161 1883.22 636.881 1952.56 632.116" fill="#206261"/>
<path d="M1357.97 332.49L1391.72 405.673C1394.29 411.252 1391.86 417.861 1386.29 420.438L1169.33 520.682C1163.76 523.259 1157.15 520.822 1154.58 515.243L1120.83 442.06C1118.26 436.481 1120.69 429.872 1126.27 427.295L1343.22 327.051C1348.8 324.474 1355.4 326.911 1357.97 332.49Z" fill="#E2F0FE"/>
<mask id="mask1_909_4083" style="mask-type:luminance" maskUnits="userSpaceOnUse" x="1119" y="326" width="274" height="196">
<path d="M1357.97 332.49L1391.72 405.673C1394.29 411.252 1391.86 417.861 1386.29 420.438L1169.33 520.682C1163.76 523.259 1157.15 520.822 1154.58 515.243L1120.83 442.06C1118.26 436.481 1120.69 429.872 1126.27 427.295L1343.22 327.051C1348.8 324.474 1355.4 326.911 1357.97 332.49Z" fill="white"/>
</mask>
<g mask="url(#mask1_909_4083)">
<path opacity="0.14" d="M1378.86 369.063L1122.27 484.664L1101.43 420.547L1192.5 352.568L1366.92 304.672L1378.86 369.063Z" fill="url(#paint5_linear_909_4083)"/>
</g>
<path d="M1256.24 362.872L1302.63 463.46C1303.96 466.348 1302.7 469.771 1299.81 471.107L1215.61 510.014C1212.72 511.349 1209.31 510.083 1207.97 507.195L1161.58 406.607C1160.25 403.719 1161.51 400.297 1164.4 398.961L1248.6 360.054C1251.48 358.718 1254.9 359.984 1256.24 362.872Z" fill="url(#paint6_linear_909_4083)"/>
<path d="M1292.25 459.166C1293.21 461.24 1292.3 463.701 1290.23 464.662L1217.05 498.473C1214.98 499.434 1212.52 498.524 1211.56 496.45C1210.6 494.377 1211.51 491.915 1213.58 490.954L1286.76 457.143C1288.83 456.182 1291.29 457.092 1292.25 459.166Z" fill="#E2F0FE"/>
<path d="M1284.35 442.049C1285.31 444.122 1284.4 446.584 1282.33 447.545L1209.15 481.356C1207.08 482.317 1204.62 481.407 1203.66 479.333C1202.7 477.259 1203.61 474.798 1205.68 473.837L1278.86 440.026C1280.93 439.065 1283.39 439.975 1284.35 442.049Z" fill="#E2F0FE"/>
<path d="M1276.45 424.929C1277.41 427.003 1276.51 429.465 1274.43 430.426L1201.26 464.237C1199.19 465.198 1196.73 464.288 1195.77 462.214C1194.81 460.14 1195.72 457.678 1197.79 456.718L1270.96 422.906C1273.04 421.946 1275.49 422.855 1276.45 424.929Z" fill="#E2F0FE"/>
<path d="M1268.56 407.804C1269.52 409.878 1268.61 412.34 1266.54 413.301L1193.37 447.112C1191.29 448.073 1188.84 447.163 1187.88 445.089C1186.92 443.015 1187.82 440.553 1189.9 439.593L1263.07 405.781C1265.14 404.821 1267.6 405.73 1268.56 407.804Z" fill="#E2F0FE"/>
<path d="M1260.67 390.685C1261.63 392.759 1260.72 395.221 1258.65 396.182L1185.47 429.993C1183.4 430.954 1180.94 430.044 1179.98 427.97C1179.02 425.896 1179.93 423.434 1182 422.474L1255.18 388.662C1257.25 387.702 1259.71 388.611 1260.67 390.685Z" fill="#E2F0FE"/>
<path d="M1252.77 373.566C1253.73 375.64 1252.82 378.102 1250.75 379.062L1177.57 412.874C1175.5 413.834 1173.04 412.925 1172.08 410.851C1171.12 408.777 1172.03 406.315 1174.1 405.354L1247.28 371.543C1249.35 370.583 1251.81 371.492 1252.77 373.566Z" fill="#E2F0FE"/>
<path d="M1132.03 466.329L1143.39 490.967L1058.74 530.084C1051.94 533.226 1043.88 530.255 1040.75 523.449C1037.61 516.642 1040.57 508.582 1047.37 505.439L1132.03 466.322V466.329Z" fill="url(#paint7_linear_909_4083)"/>
<path d="M1364.68 347.168L1384.9 391.006L1418.27 375.586L1398.05 331.749L1364.68 347.168Z" fill="url(#paint8_linear_909_4083)"/>
<path d="M1954 609.736C1884.66 614.5 1809.15 542.781 1748.48 485.152C1725.75 463.561 1706.11 444.909 1689.83 433.089C1581.94 354.741 1486.39 331.433 1397.73 361.828L1394.06 351.115C1486.46 319.441 1585.38 343.252 1696.47 423.922C1713.35 436.187 1733.23 455.068 1756.26 476.939C1815.32 533.041 1888.83 602.865 1953.22 598.438" fill="url(#paint9_linear_909_4083)"/>
<path d="M896.259 678.626C897.326 676.132 898.788 673.956 900.65 672.092C902.506 670.235 904.686 668.765 907.177 667.697C909.668 666.628 912.338 666.093 915.185 666.093C918.032 666.093 920.701 666.628 923.192 667.697C925.684 668.765 927.857 670.228 929.719 672.092C931.575 673.956 933.043 676.132 934.111 678.626C935.178 681.119 935.712 683.791 935.712 686.641C935.712 689.491 935.178 692.163 934.111 694.657C933.043 697.15 931.581 699.326 929.719 701.19C927.863 703.054 925.684 704.517 923.192 705.586C920.701 706.654 918.032 707.189 915.185 707.189C912.338 707.189 909.668 706.654 907.177 705.586C904.686 704.517 902.512 703.054 900.65 701.19C898.788 699.332 897.326 697.15 896.259 694.657C895.191 692.163 894.657 689.491 894.657 686.641C894.657 683.791 895.191 681.119 896.259 678.626ZM945.086 355.811C945.086 344.112 942.849 335.34 938.381 329.487C933.914 323.641 926.179 320.715 915.178 320.715C904.177 320.715 896.443 323.641 891.975 329.487C887.508 335.34 885.271 344.112 885.271 355.811V461.304L900.739 618.408V617.994C901.426 623.23 903.218 626.805 906.103 628.732C908.988 630.66 912.013 631.621 915.178 631.621C918.343 631.621 921.33 630.692 924.152 628.834C926.967 626.977 928.721 623.503 929.408 618.408L945.08 461.304V355.811H945.086Z" fill="url(#paint10_linear_909_4083)"/>
<path d="M1304.67 -71.8926C1214.92 -4.4543 1111.64 45.8397 1006.01 73.5505C951.378 87.8829 896.157 96.2165 841.896 98.3094C785.468 100.491 729.789 95.9302 676.412 84.753C648.69 78.9514 621.14 71.3175 594.505 63.9318C563.447 55.3247 531.334 46.425 499.431 40.6169C431.29 28.2184 374.131 33.1104 329.523 55.1657C280.245 79.5302 244.103 125.677 209.142 170.296C200.01 181.95 190.572 194.005 181.001 205.545C139.921 255.082 92.3266 299.447 39.5336 337.394C-13.2595 375.34 -70.463 406.308 -130.488 429.438" fill="#206261"/>
<path d="M-141 402.129C-83.3007 379.895 -28.2961 350.117 22.476 313.621C73.248 277.125 119.012 234.478 158.504 186.855C167.814 175.627 177.131 163.738 186.136 152.236C223.105 105.04 261.338 56.2346 316.571 28.9247C366.924 4.02575 430.203 -1.72505 504.655 11.825C537.855 17.8684 570.616 26.9462 602.297 35.7251C628.493 42.9836 655.579 50.4902 682.385 56.1074C733.431 66.7947 786.713 71.1523 840.758 69.0658C892.903 67.0492 946.007 59.0337 998.591 45.2356C1100.59 18.4791 1200.36 -30.1228 1287.11 -95.3027" fill="#206261"/>
<path d="M1304.67 -84.5957C1214.92 -17.1574 1111.64 33.1366 1006.01 60.8473C951.378 75.1798 896.157 83.5133 841.896 85.6063C785.468 87.7883 729.789 83.2271 676.412 72.0499C648.69 66.2482 621.14 58.6144 594.505 51.2287C563.447 42.6216 531.334 33.7219 499.431 27.9138C431.29 15.5152 374.131 20.4073 329.523 42.4626C280.245 66.8271 244.103 112.973 209.142 157.593C200.01 169.247 190.572 181.302 181.001 192.842C139.921 242.379 92.3266 286.744 39.5336 324.691C-13.2595 362.637 -70.463 393.605 -130.488 416.735" fill="url(#paint11_linear_909_4083)"/>
<path d="M-141 389.425C-83.3007 367.192 -28.2961 337.414 22.476 300.918C73.248 264.422 119.012 221.774 158.504 174.152C167.814 162.924 177.131 151.034 186.136 139.533C223.105 92.3369 261.338 43.5315 316.571 16.2215C366.924 -8.67737 430.203 -14.4282 504.655 -0.878173C537.855 5.16525 570.616 14.2431 602.297 23.022C628.493 30.2805 655.579 37.787 682.385 43.4042C733.431 54.0916 786.713 58.4492 840.758 56.3626C892.903 54.346 946.007 46.3305 998.591 32.5324C1100.59 5.77596 1200.36 -42.8259 1287.11 -108.006" fill="url(#paint12_linear_909_4083)"/>
<path d="M1932.91 735.852C1857.47 702.944 1746.78 678.898 1662.38 710.107C1639.38 718.612 1621.26 735.96 1611.35 758.951C1600.43 784.295 1600.46 813.653 1611.45 839.506C1629.28 881.448 1668.65 910.908 1706.72 939.388C1727.11 954.637 1748.17 970.401 1765.42 987.799C1799.16 1021.84 1815.3 1067.34 1808.59 1109.51C1802.69 1146.51 1779.54 1177.1 1743.38 1195.65" fill="#206261"/>
<path d="M1646.37 1206C1685.34 1202.37 1713.29 1195.35 1737 1183.19C1753.7 1174.63 1767.19 1163.42 1777.11 1149.89C1786.34 1137.29 1792.28 1122.96 1794.78 1107.3C1800.79 1069.53 1786.1 1028.53 1755.49 997.655C1738.98 980.994 1719.24 966.229 1698.35 950.599C1658.8 921.005 1617.89 890.4 1598.59 844.986C1586.11 815.627 1586.08 782.248 1598.51 753.405C1609.95 726.859 1630.92 706.82 1657.53 696.972C1697.87 682.055 1745.9 677.92 1800.3 684.676C1845.66 690.312 1894.74 703.926 1938.5 723.01" fill="#206261"/>
<path d="M1922.82 735.852C1847.38 702.944 1736.69 678.898 1652.28 710.107C1629.29 718.612 1611.17 735.96 1601.26 758.951C1590.33 784.295 1590.37 813.653 1601.36 839.506C1619.19 881.448 1658.56 910.908 1696.63 939.388C1717.01 954.637 1738.08 970.401 1755.33 987.799C1789.07 1021.84 1805.2 1067.34 1798.49 1109.51C1792.6 1146.51 1769.44 1177.1 1733.28 1195.65" fill="url(#paint13_linear_909_4083)"/>
<path d="M1636.28 1206C1675.25 1202.37 1703.2 1195.35 1726.91 1183.19C1743.61 1174.63 1757.1 1163.42 1767.02 1149.89C1776.24 1137.29 1782.19 1122.96 1784.68 1107.3C1790.7 1069.53 1776.01 1028.53 1745.4 997.655C1728.88 980.994 1709.15 966.229 1688.26 950.599C1648.71 921.005 1607.8 890.4 1588.5 844.986C1576.02 815.627 1575.99 782.248 1588.42 753.405C1599.86 726.859 1620.83 706.82 1647.44 696.972C1687.78 682.055 1735.81 677.92 1790.21 684.676C1835.57 690.312 1884.65 703.926 1928.41 723.01" fill="url(#paint14_linear_909_4083)"/>
<defs>
<linearGradient id="paint0_linear_909_4083" x1="434.471" y1="652.54" x2="777.778" y2="652.54" gradientUnits="userSpaceOnUse">
<stop stop-color="#4FDEDC"/>
<stop offset="1" stop-color="#F4C45B"/>
</linearGradient>
<linearGradient id="paint1_linear_909_4083" x1="671.214" y1="584.371" x2="720.837" y2="700.992" gradientUnits="userSpaceOnUse">
<stop stop-color="#4FDEDC"/>
<stop offset="1" stop-color="#F4C45B"/>
</linearGradient>
<linearGradient id="paint2_linear_909_4083" x1="587.071" y1="599.348" x2="656.5" y2="762.515" gradientUnits="userSpaceOnUse">
<stop stop-color="#4FDEDC"/>
<stop offset="1" stop-color="#F4C45B"/>
</linearGradient>
<linearGradient id="paint3_linear_909_4083" x1="461.437" y1="694.592" x2="491.148" y2="764.415" gradientUnits="userSpaceOnUse">
<stop stop-color="#4FDEDC"/>
<stop offset="1" stop-color="#F4C45B"/>
</linearGradient>
<linearGradient id="paint4_linear_909_4083" x1="-64.6014" y1="691.279" x2="710.748" y2="691.279" gradientUnits="userSpaceOnUse">
<stop stop-color="#4FDEDC"/>
<stop offset="1" stop-color="#F4C45B"/>
</linearGradient>
<linearGradient id="paint5_linear_909_4083" x1="1078.11" y1="409.667" x2="1505.62" y2="409.667" gradientUnits="userSpaceOnUse">
<stop stop-color="#4FDEDC"/>
<stop offset="1" stop-color="#F4C45B"/>
</linearGradient>
<linearGradient id="paint6_linear_909_4083" x1="1149.11" y1="447.619" x2="1368.08" y2="447.619" gradientUnits="userSpaceOnUse">
<stop stop-color="#4FDEDC"/>
<stop offset="1" stop-color="#F4C45B"/>
</linearGradient>
<linearGradient id="paint7_linear_909_4083" x1="1030.76" y1="504.247" x2="1190.86" y2="504.247" gradientUnits="userSpaceOnUse">
<stop stop-color="#4FDEDC"/>
<stop offset="1" stop-color="#F4C45B"/>
</linearGradient>
<linearGradient id="paint8_linear_909_4083" x1="1406.06" y1="385.696" x2="1374.86" y2="318.167" gradientUnits="userSpaceOnUse">
<stop stop-color="#4FDEDC"/>
<stop offset="1" stop-color="#F4C45B"/>
</linearGradient>
<linearGradient id="paint9_linear_909_4083" x1="1346.99" y1="496.471" x2="2209.84" y2="496.471" gradientUnits="userSpaceOnUse">
<stop stop-color="#4FDEDC"/>
<stop offset="1" stop-color="#F4C45B"/>
</linearGradient>
<linearGradient id="paint10_linear_909_4083" x1="880.243" y1="546.158" x2="972.416" y2="546.158" gradientUnits="userSpaceOnUse">
<stop stop-color="#4FDEDC"/>
<stop offset="1" stop-color="#F4C45B"/>
</linearGradient>
<linearGradient id="paint11_linear_909_4083" x1="-251.115" y1="207.847" x2="1960.38" y2="207.847" gradientUnits="userSpaceOnUse">
<stop stop-color="#4FDEDC"/>
<stop offset="1" stop-color="#F4C45B"/>
</linearGradient>
<linearGradient id="paint12_linear_909_4083" x1="-261.035" y1="182.162" x2="1939.6" y2="182.162" gradientUnits="userSpaceOnUse">
<stop stop-color="#4FDEDC"/>
<stop offset="1" stop-color="#F4C45B"/>
</linearGradient>
<linearGradient id="paint13_linear_909_4083" x1="1565.38" y1="987.292" x2="2073.47" y2="987.292" gradientUnits="userSpaceOnUse">
<stop stop-color="#4FDEDC"/>
<stop offset="1" stop-color="#F4C45B"/>
</linearGradient>
<linearGradient id="paint14_linear_909_4083" x1="1549.76" y1="987.471" x2="2088" y2="987.471" gradientUnits="userSpaceOnUse">
<stop stop-color="#4FDEDC"/>
<stop offset="1" stop-color="#F4C45B"/>
</linearGradient>
</defs>
</svg>
