<svg viewBox="0 0 44 44" fill="white" xmlns="http://www.w3.org/2000/svg">
<path d="M21.8123 11.0371C15.7549 11.0371 10.869 15.9241 10.869 21.9829C10.869 28.0416 15.7549 32.9286 21.8123 32.9286C27.8697 32.9286 32.7557 28.0416 32.7557 21.9829C32.7557 15.9241 27.8697 11.0371 21.8123 11.0371ZM21.8123 29.0991C17.8979 29.0991 14.6978 25.9077 14.6978 21.9829C14.6978 18.058 17.8884 14.8667 21.8123 14.8667C25.7363 14.8667 28.9269 18.058 28.9269 21.9829C28.9269 25.9077 25.7268 29.0991 21.8123 29.0991ZM35.7558 10.5894C35.7558 12.0088 34.6129 13.1424 33.2033 13.1424C31.7842 13.1424 30.6508 11.9993 30.6508 10.5894C30.6508 9.17947 31.7937 8.03631 33.2033 8.03631C34.6129 8.03631 35.7558 9.17947 35.7558 10.5894ZM43.0037 13.1805C42.8418 9.76057 42.0608 6.7312 39.556 4.23529C37.0606 1.73939 34.0319 0.958233 30.6127 0.786759C27.0888 0.586705 16.5264 0.586705 13.0024 0.786759C9.59277 0.948707 6.56407 1.72987 4.0592 4.22577C1.55433 6.72167 0.782868 9.75105 0.611432 13.171C0.411424 16.6958 0.411424 27.2605 0.611432 30.7852C0.773344 34.2052 1.55433 37.2345 4.0592 39.7304C6.56407 42.2264 9.58325 43.0075 13.0024 43.179C16.5264 43.379 27.0888 43.379 30.6127 43.179C34.0319 43.017 37.0606 42.2359 39.556 39.7304C42.0513 37.2345 42.8323 34.2052 43.0037 30.7852C43.2037 27.2605 43.2037 16.7053 43.0037 13.1805ZM38.4512 34.5672C37.7083 36.4343 36.2701 37.8728 34.3938 38.6254C31.5842 39.74 24.9172 39.4828 21.8123 39.4828C18.7074 39.4828 12.031 39.7304 9.23085 38.6254C7.3641 37.8823 5.92595 36.4439 5.17353 34.5672C4.0592 31.7569 4.31635 25.0885 4.31635 21.9829C4.31635 18.8773 4.06872 12.1993 5.17353 9.39857C5.91642 7.53141 7.35458 6.09293 9.23085 5.34035C12.0405 4.22577 18.7074 4.48298 21.8123 4.48298C24.9172 4.48298 31.5937 4.23529 34.3938 5.34035C36.2606 6.08341 37.6987 7.52188 38.4512 9.39857C39.5655 12.2088 39.3083 18.8773 39.3083 21.9829C39.3083 25.0885 39.5655 31.7664 38.4512 34.5672Z"/>
</svg>
