<?xml version="1.0" encoding="UTF-8"?><svg id="Layer_2" xmlns="http://www.w3.org/2000/svg" viewBox="0 0 1059.34 707.82"><defs><style>.cls-1{fill:#fdfefe;}.cls-1,.cls-2{stroke-width:0px;}.cls-2{fill:#144ca0;}</style></defs><g id="Layer_1-2"><path class="cls-2" d="m1058.47.08C706.95.08,355.43.09,3.91,0,.77,0,0,.51,0,3.81c.1,234.34.09,468.68.09,703.01,1.72-.04,3.43-.12,5.15-.12h1047.9q5.33,0,5.34-5.14c-.01-233.83-.01-467.65-.01-701.48Zm-21.35,680.07c0,4.06-1.04,4.91-4.97,4.91-335.04-.1-670.09-.09-1005.14-.09q-5.05,0-5.05-5.15V26.69q0-5.03,5.18-5.03h502.57c167.39,0,334.78.02,502.17-.08,3.96,0,5.24.73,5.24,5.04-.12,217.84-.12,435.68,0,653.53Z"/><path class="cls-1" d="m.09,706.82c1.71-.04,3.43-.12,5.14-.12,349.3,0,698.6,0,1047.9,0q5.34,0,5.34-5.14c0-233.83,0-467.65,0-701.47.24.17.83-.4.8.4-.03,1.06,0,2.12,0,3.18,0,233.46,0,466.92.07,700.39,0,2.98-.67,3.65-3.65,3.65-350.67-.08-701.35-.07-1052.02-.12-1.16,0-2.69.92-3.58-.75Z"/><path class="cls-2" d="m320.25,406.4c-.86-2.63-.61-3.83,2.04-5.11,7.82-3.79,13.14-10.01,16.39-18.06,3.5-8.66,4.33-17.69,3.72-26.87-1.5-22.56-13.64-35.88-35.79-39.08-2.98-.43-3.16-1.63-3.15-4.02.07-19.72.04-39.43.04-59.15,0-27.4-.04-54.79.06-82.19.01-2.72-.61-3.71-3.48-3.56-4.62.24-9.27.25-13.89,0-3.07-.17-3.99.68-3.97,3.88.13,25.93.07,51.87.07,77.81v14.12c-1.32-.65-1.31-2.11-1.75-3.25-11.84-30.24-24.88-59.99-37.23-90.01-.78-1.89-1.7-2.6-3.74-2.53-4.76.15-9.55.32-14.3-.04-3.8-.29-4.8.8-4.79,4.69.15,46.45.06,92.9.17,139.35,0,3.27-.82,4.26-4.16,4.21-14.43-.18-28.87.06-43.3-.17-3.58-.05-4.35.99-4.34,4.43.11,49.89.08,99.78.08,149.67,0,.66.06,1.33-.01,1.98-.21,1.9.59,2.53,2.49,2.49,5.03-.11,10.08-.23,15.09.03,3,.16,3.73-.73,3.71-3.7-.14-21.3-.02-42.61-.14-63.92-.02-2.99.58-4.1,3.85-4,8.2.26,16.42-.05,24.63.16,2.88.07,3.54-.87,3.43-3.57-.21-5.02-.2-10.06-.01-15.08.11-2.69-.59-3.67-3.47-3.61-8.2.2-16.42-.05-24.62.14-2.88.06-3.88-.58-3.82-3.68.2-11.51.18-23.03.01-34.54-.05-3.06.69-4.04,3.91-4,14.43.18,28.87.02,43.3.13,2.58.02,3.66-.36,3.65-3.34-.12-35.47-.08-70.94-.07-106.4,0-2.64-.5-5.31.28-8.5,4.37,10.7,8.43,20.85,12.64,30.92,8.46,20.22,16.92,40.43,25.59,60.56,1.54,3.58.7,4.16-2.77,3.98-4.62-.23-9.28.2-13.89-.14-3.6-.25-4.34.97-4.33,4.41.11,49.9.08,99.79.08,149.68,0,.66.06,1.33-.01,1.98-.23,1.92.6,2.52,2.48,2.48,4.9-.1,9.81-.25,14.69.05,3.38.2,4.44-.59,4.4-4.24-.21-20.24-.05-40.49-.15-60.74-.01-2.66.49-3.84,3.49-3.5,3.14.35,6.35.31,9.52.12,2.78-.18,3.76,1.04,4.56,3.57,6.48,20.65,13.13,41.26,19.77,61.86.4,1.25.36,2.91,2.54,2.88,7.49-.09,14.99-.03,22.74-.03-.31-1.05-.48-1.67-.68-2.28-7.16-22.1-14.28-44.21-21.56-66.27Zm-.54-37.26c-2.14,9.64-8.48,14.99-18.46,15.25-5.94.15-11.9-.07-17.84.08-2.26.06-2.93-.61-2.88-2.87.15-6.74.05-13.48.05-20.22s0-12.95.01-19.42c0-1.3-.28-2.74,1.85-2.67,7,.22,14.04-.61,20.99.4,9.78,1.41,15.23,7.01,16.66,16.84.61,4.19.55,8.42-.38,12.61Z"/><path class="cls-2" d="m765.74,471.98c-3.07-12.85-5.91-25.75-8.84-38.63-8.55-37.6-17.11-75.21-25.64-112.82-.33-1.47-.84-2.91.46-4.46,8.7-10.41,11.1-22.85,11.16-35.95.08-17.34.02-34.67.02-52.01,0-18.79-.05-37.59.05-56.38.01-2.51-.55-3.49-3.26-3.37-4.76.23-9.55.32-14.29-.02-3.46-.24-4.05.99-4.04,4.18.11,35.73.08,71.47.06,107.2,0,5.33-.72,10.56-3.06,15.43-3.53,7.37-9.59,10.6-17.6,10.51-7.77-.08-13.33-3.63-16.68-10.65-2.44-5.13-3.17-10.58-3.17-16.2.03-15.22,0-30.44,0-45.66,0-20.25-.07-40.5.08-60.74.02-3.21-.92-4.1-4.01-3.92-4.35.25-8.75.3-13.1-.01-3.41-.24-4.41.65-4.4,4.27.16,36.26.12,72.53.07,108.79,0,3.72.25,7.41.92,11.05,3.72,20.36,17.82,37.17,42.22,36.84,3.15-.04,2.34,1.59,1.97,3.2-4.03,17.64-8.11,35.27-12.15,52.9-6.57,28.71-13.09,57.44-19.76,86.13-.61,2.62-.38,3.46,2.52,3.35,5.42-.21,10.86-.18,16.28,0,2.43.07,3.42-.6,3.89-3.11,2.19-11.69,4.74-23.31,6.87-35.01.51-2.81,1.43-3.75,4.28-3.68,8.07.18,16.16.21,24.23-.02,2.95-.08,3.78,1.1,4.29,3.72,2.27,11.67,4.8,23.29,7.08,34.96.47,2.39,1.37,3.23,3.87,3.15,5.69-.21,11.39-.16,17.08-.02,2.39.05,3.25-.26,2.59-3.02Zm-38.38-60.41c-5.55-.07-11.12-.13-16.68.02-2.41.07-2.91-.72-2.44-2.98,2.27-10.86,4.47-21.74,6.59-32.63,1.26-6.44,2.32-12.92,3.47-19.39,3.79,17.73,7.19,35.23,10.93,52.66.39,1.79-.06,2.34-1.87,2.32Z"/><path class="cls-2" d="m447.9,473.77c-11.75-51.36-23.54-102.72-35.19-154.11-.56-2.45-1.61-2.83-3.73-2.78-4.93.12-9.87.04-15.28.04,17.21-19.42,16.37-47.29-1.73-65.45-5.54-5.56-11.76-10.25-18.19-14.68-6.31-4.36-12.83-8.44-18.45-13.71-6.44-6.05-8.6-15.08-5.58-22.85,3.4-8.77,12.41-13.15,21.31-10.21,4.95,1.63,8.75,4.91,11.7,9.11,1.28,1.83,2.1,2.14,3.88.5,3.89-3.58,7.93-7.01,12.07-10.3,1.68-1.33,1.57-2.36.53-3.93-2.2-3.33-4.53-6.52-7.52-9.18-12.16-10.8-29.21-13.27-43.23-6.25-14.37,7.18-23.46,24.03-22.5,40.3.89,15.08,7.54,26.73,19.39,35.65,7.92,5.97,16.04,11.66,23.94,17.65,4.76,3.6,9.21,7.58,11.81,13.16,4.27,9.17,1.25,20.53-6.92,26.15-7.61,5.23-16.25,3.93-23.85-3.75-2.6-2.63-5.03-5.45-7.29-8.37-1.31-1.7-2.14-1.71-3.68-.32-4.33,3.89-8.78,7.65-13.22,11.41-1.27,1.07-1.7,1.95-.67,3.6,4.28,6.8,9.22,13.01,16.22,17.13,15.95,9.4,31.63,8.76,46.87-1.8.02-.01.03-.01.05-.02,1.12,1.19.08,2.45-.17,3.55-7.73,33.85-15.53,67.69-23.32,101.53-3.5,15.18-6.93,30.37-10.57,45.52-.76,3.16.1,3.79,3.11,3.66,5.16-.24,10.34-.31,15.48.02,3.02.2,3.77-1.05,4.25-3.6,2.14-11.42,4.49-22.8,6.62-34.22.54-2.87,1.55-4.17,4.81-4.04,7.54.29,15.11.39,22.63-.03,4.03-.22,5.1,1.38,5.76,4.89,2.19,11.54,4.72,23.02,7.03,34.54.29,1.46.51,2.42,2.34,2.4,7.1-.08,14.2-.03,21.29-.03,0-.66.05-.93,0-1.18Zm-58.96-152.75c-.09-.09-.19-.17-.29-.26.16-.07.32-.13.48-.2-.06.16-.13.31-.19.46Zm18.33,90.61c-5.79-.3-11.6-.08-17.66-.08,3.7-18.5,7.51-36.51,11.3-54.73.86,4.7,1.69,9.4,2.6,14.09,2.36,12.18,4.67,24.38,7.22,36.53.69,3.32.08,4.37-3.46,4.19Z"/><path class="cls-2" d="m608.88,253.8c0,19.19.04,38.38-.05,57.56-.01,2.71.15,3.73,3.53,3.34,21.44-2.48,35.96,8.18,41.65,30.19q2.22,8.57-6.19,10.89c-3.57.99-7.17,1.87-10.69,3-2.3.73-3.35.21-3.77-2.25-.67-3.91-1.85-7.71-3.82-11.19-5.42-9.55-17.83-10.48-24.5-1.74-5.65,7.41-7.56,16.27-8.76,25.18-2.83,20.98-2.86,41.93,2.08,62.67,1.32,5.55,3.23,10.9,6.6,15.6,7.54,10.49,19.92,9.57,25.73-1.91,1.92-3.79,3.3-7.8,4.18-11.93.54-2.53,1.55-2.75,3.77-1.94,4.84,1.77,9.76,3.3,14.66,4.91,1.44.47,2.68.87,2.2,2.94-2.13,9.19-4.75,18.15-10.61,25.8-4.6,6.01-10.57,10.04-17.95,11.52-3.07.61-4.02,2.05-4.47,4.83-1.28,7.82-2.91,15.59-4.11,23.42-.44,2.84-1.53,3.7-4.35,3.56-4.75-.24-9.54-.2-14.3-.02-2.6.1-3.17-.67-2.63-3.18,1.94-9.04,3.7-18.11,5.53-27.18.25-1.23.94-2.33-.93-3.23-11.37-5.47-17.47-15.32-21.73-26.62-5.04-13.4-6.74-27.42-7.33-41.59-.8-19.37.21-38.58,5.93-57.29,1.55-5.07,3.41-10.05,6.29-14.49,1.98-3.05,2.5-6.16,2.49-9.69-.08-43.27-.09-86.54.03-129.82,0-3.27-.73-4.3-4.1-4.16-6.61.28-13.24,0-19.86.13-2.31.04-3.3-.44-3.2-3.03.21-5.42.14-10.85.02-16.27-.04-2.09.34-3.05,2.76-3.05,23.44.08,46.87.08,70.31,0,2.3,0,2.95.79,2.9,2.99-.12,5.42-.16,10.85.01,16.27.08,2.53-.89,3.12-3.23,3.08-6.88-.12-13.77.08-20.65-.1-2.85-.08-3.52.93-3.51,3.63.1,19.72.05,39.43.05,59.15Z"/><path class="cls-2" d="m465.98,316.71c6.22-.06,12.44.01,18.65-.25,2.76-.12,3.24,1.68,3.99,3.5,12.18,29.39,24.35,58.77,36.53,88.16.65,1.57,1.32,3.14,1.99,4.76,1.58-.74.63-1.94.63-2.82,0-30.04-.03-60.07-.13-90.11,0-2.23.27-3.35,2.95-3.23,5.02.23,10.06.19,15.09.01,2.45-.08,3.15.71,3.12,3.13-.12,9.53-.05,19.05-.05,28.58,0,40.49-.06,80.98.1,121.47.01,3.93-1.1,5.05-4.87,4.71-4.33-.39-9.47,1.11-12.84-.75-3.42-1.89-3.91-7.46-5.56-11.45-12.54-30.38-25.93-60.4-37.7-91.1-.22-.58-.55-1.13-1.5-1.65,0,2.9,0,5.81,0,8.71.04,30.96.05,61.92.2,92.89.01,2.87-.54,3.96-3.64,3.76-4.62-.29-9.27-.24-13.89-.01-2.76.14-3.55-.64-3.53-3.46.13-19.32.07-38.64.07-57.96,0-32.15-.02-64.31-.04-96.46.15-.14.29-.28.44-.42Z"/><path class="cls-2" d="m870.74,314.37c14.48.24,25.47,6.7,33.41,18.7,1.32,1.99,1.41,3.31-.67,4.94-4.06,3.17-7.94,6.59-11.78,10.03-1.54,1.38-2.32,1.3-3.58-.45-3.73-5.2-8.43-9.18-15.07-10.01-7.31-.91-13.09,1.87-16.72,8.2-4.09,7.15-3.7,14.5.8,21.37,3.32,5.07,8.4,8.37,13.23,11.84,9.02,6.48,18.36,12.51,25.9,20.85,14.99,16.61,17.39,40.04,5.78,57.87-15.78,24.26-48.23,26.41-67.11,4.44q-8.27-9.63,1.25-17.89c2.69-2.33,5.36-6.16,8.24-6.35,2.73-.18,4.36,4.72,6.79,7.11,1.51,1.48,2.93,3.06,4.53,4.43,5.58,4.8,11.85,6.45,18.73,3.24,7.04-3.28,10.83-9.07,11.62-16.75.87-8.41-2.34-15.21-8.44-20.85-5.07-4.69-10.69-8.63-16.3-12.62-7.65-5.44-15.4-10.78-21.29-18.28-15.55-19.84-11.13-56.77,17.41-67.6,4.25-1.61,8.65-2.38,13.24-2.22Z"/><path class="cls-2" d="m786.32,259.35c0-21.43-.05-42.86.06-64.29.02-3-.64-4.18-3.9-4.06-6.61.25-13.24-.03-19.85.13-2.64.06-3.78-.51-3.65-3.45.24-5.41.14-10.85.03-16.27-.04-2.09.35-3.04,2.77-3.03,23.56.09,47.12.09,70.69,0,2.37,0,2.83.83,2.78,2.96-.13,5.55-.17,11.12.01,16.67.08,2.45-.65,3.18-3.1,3.13-6.75-.15-13.51.11-20.25-.13-3.16-.11-3.93.87-3.92,3.96.1,42.6,0,85.2.17,127.79.01,3.97-.86,5.37-4.96,4.99-4.2-.39-8.49-.37-12.69,0-3.75.33-4.27-1.21-4.25-4.5.14-21.3.07-42.6.07-63.9Z"/><path class="cls-2" d="m465.54,317.13c-5.56-.02-11.14-.39-16.67.04-4.26.33-4.85-1.26-4.83-5.04.14-38.75,0-77.51.2-116.26.02-4.19-1.22-5.08-5.07-4.89-6.34.31-12.7.02-19.05.12-2.23.04-3.4-.39-3.32-3,.17-5.55.13-11.11.01-16.66-.05-2.26.76-2.93,2.99-2.92,23.43.07,46.85.07,70.28,0,2.08,0,2.75.62,2.7,2.69-.12,5.69-.15,11.38,0,17.06.06,2.34-.79,2.87-2.96,2.84-7.01-.11-14.03,0-21.04-.07-1.96-.02-3.12.13-3.12,2.68.08,40.47.06,80.95.08,121.42,0,.52.16,1.04.24,1.56-.15.14-.3.28-.44.42Z"/><path class="cls-2" d="m514.18,220.73c0-16.27.06-32.54-.06-48.82-.02-2.68.51-3.71,3.41-3.55,4.75.26,9.54.25,14.29,0,2.94-.15,3.8.64,3.77,3.68-.17,14.42-.08,28.84-.08,43.26,0,18.12-.07,36.25.07,54.37.02,2.9-.63,3.96-3.7,3.79-4.75-.27-9.54-.25-14.29,0-2.83.14-3.5-.76-3.48-3.52.13-16.4.07-32.81.07-49.21Z"/><path class="cls-2" d="m786.32,421.34c0-16.4.09-32.8-.08-49.19-.03-3.04.83-3.83,3.76-3.68,4.75.25,9.53.21,14.28,0,2.61-.11,3.3.7,3.29,3.29-.1,20.76-.06,41.52-.06,62.28,0,12.56-.07,25.13.06,37.69.03,2.62-.73,3.38-3.31,3.27-4.76-.2-9.53-.24-14.28.01-2.96.16-3.77-.69-3.75-3.7.16-16.66.08-33.32.08-49.99Z"/><path class="cls-2" d="m190.14,220.84c0,16.28-.07,32.56.06,48.83.02,2.85-.52,3.99-3.64,3.79-4.62-.29-9.27-.25-13.9-.01-2.9.15-3.88-.61-3.8-3.68.22-8.86.08-17.73.08-26.6,0-23.69.05-47.38-.07-71.07-.01-2.9.62-3.94,3.69-3.76,4.62.28,9.27.25,13.9,0,2.9-.15,3.8.58,3.76,3.65-.17,16.28-.08,32.56-.08,48.83Z"/><path class="cls-2" d="m174.9,548.12c0,9.24.01,18.48,0,27.73,0,1.97.78,4.15-2.88,4.06-3.35-.08-2.67-2.01-2.67-3.86-.01-10.97-.06-21.95.07-32.92.01-1.24-1.36-3.71,1.3-3.73,2.25-.02,4.98-1.42,6.75,1.59,3.6,6.14,7.38,12.18,11.35,18.69,3.77-6.2,7.3-12.03,10.85-17.85,1.31-2.16,5.77-3.54,7.86-2.49,1.13.57.74,1.58.74,2.41.03,11.9-.06,23.8.08,35.69.03,2.56-1.32,2.26-2.95,2.37-2,.14-2.76-.42-2.73-2.59.12-8.46.05-16.92.05-25.38,0-1.26,0-2.52,0-3.78-.23-.07-.45-.13-.68-.2-3.09,4.99-6.19,9.97-9.28,14.96-2.66,4.28-5.18,4.33-7.78.15-3.12-5.02-6.24-10.04-9.35-15.06-.24.07-.48.14-.71.2Z"/><path class="cls-2" d="m287.15,549.61c-8.96.12-15.71,6.82-15.66,15.55.05,8.88,7.15,15.6,16.22,15.37,8.98-.23,15.63-6.99,15.46-15.73-.16-8.74-7.09-15.3-16.02-15.19Zm.31,26.32c-6.04.06-10.78-4.62-10.85-10.72-.06-6.11,4.57-10.91,10.6-10.98,6.04-.07,10.78,4.6,10.84,10.71.07,6.13-4.55,10.92-10.59,10.99Z"/><path class="cls-2" d="m242.55,576.47c.09-4.75-.06-9.5.07-14.25.12-4.97-.95-9.19-5.97-11.44-4.99-2.22-11.72-1.11-15.63,2.37-1.87,1.67-1.39,2.51.4,3.83,1.76,1.3,2.29-.23,3.22-.91,4.88-3.51,11.26-2.43,12.73,2.23.78,2.45.57,4.28-2.69,4.61-3.67.37-7.37.76-10.83,2.18-3.9,1.6-5.75,4.55-5.32,8.31.45,3.98,3.01,6.04,6.65,6.88,4.58,1.06,8.51-.55,12.51-3.84-.58,3.09.74,3.47,2.96,3.4,2.81-.1,1.88-2.03,1.9-3.37Zm-8.85-1.25c-2.81,1.52-5.82,1.92-8.64.17-2.66-1.65-2.19-5.51.91-7.03,3.23-1.58,6.85-1.77,10.36-2.14,2.51-.26.52,2.06,1.24,2.49.6,3.6-1.48,5.22-3.87,6.51Z"/><path class="cls-2" d="m324.87,549.61c3.79.2,7.32,1.19,10.16,3.81.68.63,2.62,1.3,1.14,2.59-.99.86-2.04,3.25-4.12,1.09-1.4-1.45-3.19-2.31-5.2-2.69-4.97-.93-9.84,1.45-11.88,5.84-2.12,4.56-.88,10.25,2.9,13.33,3.74,3.04,9.15,3.09,13.28.28.85-.58,1.32-2.31,2.83-1.44,1,.58,2.28,1.28,2.63,2.22.35.93-1.02,1.71-1.8,2.38-5.03,4.3-13.45,4.66-19.28.86-5.48-3.56-8.01-10.91-6.02-17.47,2-6.59,8.12-10.9,15.37-10.81Z"/><path class="cls-2" d="m252.62,564.69c0-3.96-.03-7.91.02-11.87.01-.83-.45-2.08.8-2.31,1.24-.23,3.54-.58,3.68.2.75,4.09,2.28,1.05,3.37.48,1.91-.99,3.87-1.69,6.04-1.55,1.94.12,2.13,1.43,2.16,3.06.03,1.79-.85,1.68-2.21,1.72-6.52.2-8.96,2.77-8.96,9.17,0,4.62-.09,9.23.04,13.84.06,2.01-.74,2.37-2.53,2.39-1.91.02-2.51-.6-2.46-2.48.11-4.22.04-8.44.04-12.66Z"/><path class="cls-1" d="m388.59,320.78c.18-.07.36-.14.54-.22-.06.15-.12.3-.19.46-.13-.12-.26-.23-.4-.36,0,0,.04.12.04.12Z"/></g></svg>