<?xml version="1.0" encoding="UTF-8"?><svg id="Layer_2" xmlns="http://www.w3.org/2000/svg" viewBox="0 0 103.22 120.96"><defs><style>.cls-1{fill:#006ab2;}.cls-1,.cls-2,.cls-3,.cls-4{stroke-width:0px;}.cls-2{fill:#6f9ecf;}.cls-5,.cls-6,.cls-7{isolation:isolate;}.cls-3{fill:#bccee8;}.cls-6,.cls-7{fill:#006cb1;font-family:Arial-BoldMT, Arial;font-size:25.73px;font-weight:700;}.cls-7{letter-spacing:-.02em;}.cls-4{fill:#f7ad0c;}.cls-8{fill:none;stroke:#006ab2;stroke-miterlimit:8.88;stroke-width:.67px;}</style></defs><g id="svg42092"><g id="layer1"><g id="g42856"><g id="g4597"><path id="path256-5" class="cls-2" d="m12.5,32.27l39.77-6.52,39.66,6.52v8.64l-39.66-9.08-39.77,9.08v-8.64Z"/><path id="path260-8" class="cls-3" d="m12.5,52.19l39.77-13.84,39.66,13.84v10.76l-39.66-19.98L12.5,62.95v-10.76Z"/><path id="path264-9" class="cls-1" d="m12.5,8.94h79.43v14.36l-39.66-3.56-39.77,3.56v-14.36Z"/><path id="path268-1" class="cls-4" d="m52.27,47.02l39.66,39.91H12.5l39.77-39.91Z"/><g id="text278" class="cls-5"><text class="cls-7" transform="translate(10.57 111.28)"><tspan x="0" y="0">L</tspan></text><text class="cls-7" transform="translate(31.44 111.28)"><tspan x="0" y="0">P</tspan></text><text class="cls-6" transform="translate(53.74 111.28)"><tspan x="0" y="0">E</tspan></text><text class="cls-6" transform="translate(76.05 111.28)"><tspan x="0" y="0">E</tspan></text></g><path id="path282-15" class="cls-8" d="m.33,120.5h102.56V.33H.33s0,120.17,0,120.17Z"/></g></g></g></g></svg>