<?xml version="1.0" encoding="UTF-8"?><svg id="Layer_2" xmlns="http://www.w3.org/2000/svg" viewBox="0 0 474.25 422.61"><defs><style>.cls-1{fill:#cfcfce;}.cls-1,.cls-2,.cls-3{stroke-width:0px;}.cls-2{fill:#fff;}.cls-3{fill:#387bbc;}</style></defs><g id="svg42092"><path class="cls-1" d="m473.73,239.44c-.74.47-1.93.28-2.92.28-20.21-.04-40.42-.09-60.63-.14-13.33.05-26.67.13-40,.14-28.16.02-56.32.01-84.48,0-1.74,0-3.48-.11-5.22-.17-29.72,0-59.43,0-89.14.01-4.74,0-9.47,0-14.21.01-4.36.05-8.71.15-13.07.15-39.13.02-78.25.01-117.38.01-1.74,0-3.48-.08-5.23-.11-12.23,0-24.47,0-36.7-.01-1.22,0-2.79.38-3.36-.99-.6-1.45.99-2.12,1.79-2.97,13.07-13.88,26.19-27.71,39.27-41.58,11.79-12.5,23.56-25.03,35.34-37.55,11.95-12.7,23.91-25.39,35.86-38.09,11.7-12.43,23.39-24.87,35.08-37.29,15.79-16.79,31.61-33.55,47.37-50.36,8.94-9.54,17.8-19.15,26.64-28.79C224.13.47,225.68,0,227.69,0c12.36.07,24.72.04,37.09.04-.13.44-.28.84-.46,1.2-.89.63-1.67,1.41-2.46,2.19-.11.11-.21.21-.32.32,1.13-.44,2.12-1.2,2.78-2.51.61-.45,1.28-.83,2.03-1.1-24.85,25.77-49.23,51.97-73.67,78.12-8.77,9.38-17.63,18.69-26.44,28.03-22.18,23.49-44.37,46.96-66.53,70.46-15.4,16.34-30.76,32.71-46.13,49.06-3.33,3.55-6.66,7.1-9.97,10.65-.49.53-1.31.99-1.03,1.83.3.91,1.24.63,1.94.67.75.05,1.5.02,2.25.02,41.69,0,83.39-.04,125.09.1,3.56,0,5.29-1.12,6.68-4.33,12.21-28.13,24.57-56.19,36.9-84.27,12.83-29.21,25.68-58.41,38.5-87.63,4.61-10.49,9.17-21,13.76-31.5.05.22.12.43.21.63.01-.04.02-.09.03-.13.02-.07.04-.13.06-.19.07-.32.01-.62-.17-.91,1.03,1.66,2.67,1.41,4.29,1.54,2.83.23,5.74-.69,8.49.41.22.08.43.18.65.29.5.74,1.76.99,1.46,2.25-1.95-.24-2.14,1.42-2.66,2.59-22.87,51.91-45.73,103.83-68.58,155.75-6.17,14.03-12.29,28.09-18.53,42.1-1.05,2.37-.95,3.33,1.98,3.33,22.85-.06,45.7-.06,68.55.02,2.52.01,3.4-.92,3.86-3.35,5.1-26.66,10.3-53.29,15.52-79.92,3.85-19.67,7.83-39.31,11.67-58.98,1.81-9.29,3.38-18.62,5.17-27.91.26-1.35-.38-2.43-.41-3.65,2.15,2.16.52,4.56.21,6.72-.44,3.19-.92,6.38-1.42,9.56-.08.33-.13.63-.15.9-.17,2.16,1.34,2.37,3.9,2.38,3.41.02,6.91-.85,10.24.57-.39.47-1.23.65-1.3,1.28v.03c.52-.38,1.21-.18,2.2.54-2.26-1.51-2.1,1.11-2.33,2.24-2.34,11.33-4.52,22.69-6.79,34.03-5.96,29.75-11.95,59.5-17.91,89.25-1.54,7.68-2.98,15.37-4.53,23.05-.44,2.18,0,3.24,2.52,3.23,19.08-.06,38.17-.07,57.26.03,2.69.01,3.01-1.22,2.99-3.43-.26-29.91-.45-59.83-.66-89.74-.03-3.98-.19-7.97-.12-11.96.06-3.38.11-6.7-2.29-9.45,2.3,1.91,2.7,4.35,2.79,7.28.1,3.31.19,6.62.29,9.93v.14c-.01.23,0,.44.01.63.14,1.7,1.05,2.31,3.02,2.21,3.09-.14,6.2-.06,9.3-.07.95,0,2.03-.39,2.59.83-2.62-.36-2.01,1.59-2.01,2.94-.04,9.48-.02,18.96-.02,28.44,0,19.33.06,38.66-.07,58-.02,3.25.89,4.3,4.23,4.26,14.85-.16,29.7-.06,44.55-.07,4.06,0,4.06-.03,2.49-3.92-5.89-14.68-11.78-29.37-17.67-44.05-.85-.81-1.35-1.78-1.33-2.98,1.41,2.01,3.36,2.46,5.74,2.32,3.07-.19,6.17,0,9.26-.06,2.98-.04,5.24,1.03,6.45,3.88-1.14-.12-1.62-1.58-3.42-1.41,1.56,4.12,3.05,8.1,4.59,12.06,3.97,10.2,8.02,20.36,11.9,30.59.96,2.53,2.18,3.69,5.1,3.65,13.45-.17,26.9-.06,40.36-.09,1.32,0,2.77.39,3.88-.78.78.18,1.72.55.59,1.26Z"/><path class="cls-3" d="m253.94,62.85c4.61-10.49,9.17-21,13.76-31.5.05.22.12.43.21.63.01-.04.02-.09.03-.13.02-.07.04-.13.06-.19.07-.32.01-.62-.17-.91,1.74-3.82,3.48-7.65,5.24-11.47.57-1.26,1.18-2.56.63-3.93-1.89-4.72-3.91-9.38-5.78-14.1-.34-.87-.72-1.2-1.57-1.11-24.85,25.77-49.23,51.97-73.67,78.12-8.77,9.38-17.63,18.69-26.44,28.03-22.18,23.49-44.37,46.96-66.53,70.46-15.4,16.34-30.76,32.71-46.13,49.06-3.33,3.55-6.66,7.1-9.97,10.65-.49.53-1.31.99-1.03,1.83.3.91,1.24.63,1.94.67.75.05,1.5.02,2.25.02,41.69,0,83.39-.04,125.09.1,3.56,0,5.29-1.12,6.68-4.33,12.21-28.13,24.57-56.19,36.9-84.27,12.83-29.21,25.68-58.41,38.5-87.63Z"/><path class="cls-3" d="m294.53,96.78c1.81-9.29,3.38-18.62,5.17-27.91.26-1.35-.38-2.43-.41-3.65-6.08-9.68-11.22-19.89-16.57-29.98-1.95-.24-2.14,1.42-2.66,2.59-22.87,51.91-45.73,103.83-68.58,155.75-6.17,14.03-12.29,28.09-18.53,42.1-1.05,2.37-.95,3.33,1.98,3.33,22.85-.06,45.7-.06,68.55.02,2.52.01,3.4-.92,3.86-3.35,5.1-26.66,10.3-53.29,15.52-79.92,3.85-19.67,7.83-39.31,11.67-58.98Z"/><path class="cls-3" d="m343.4,133.9c.06-3.38.11-6.7-2.29-9.45-9.97-11.72-19.18-24-27.62-36.86-.19-.15-.36-.28-.52-.39-2.26-1.51-2.1,1.11-2.33,2.24-2.34,11.33-4.52,22.69-6.79,34.03-5.96,29.75-11.95,59.5-17.91,89.25-1.54,7.68-2.98,15.37-4.53,23.05-.44,2.18,0,3.24,2.52,3.23,19.08-.06,38.17-.07,57.26.03,2.69.01,3.01-1.22,2.99-3.43-.26-29.91-.45-59.83-.66-89.74-.03-3.98-.19-7.97-.12-11.96Z"/><path class="cls-3" d="m390.61,191c-.85-.81-1.35-1.78-1.33-2.98-2.78-6.78-5.56-13.55-8.34-20.33-5.89-5.34-11.7-10.74-16.69-16.95-1.71-1.78-3.43-3.56-5.14-5.34-2.62-.36-2.01,1.59-2.01,2.94-.04,9.48-.02,18.96-.02,28.44,0,19.33.06,38.66-.07,58-.02,3.25.89,4.3,4.23,4.26,14.85-.16,29.7-.06,44.55-.07,4.06,0,4.06-.03,2.49-3.92-5.89-14.68-11.78-29.37-17.67-44.05Z"/><path class="cls-3" d="m410.73,194.16c-1.14-.12-1.62-1.58-3.42-1.41,1.56,4.12,3.05,8.1,4.59,12.06,3.97,10.2,8.02,20.36,11.9,30.59.96,2.53,2.18,3.69,5.1,3.65,13.45-.17,26.9-.06,40.36-.09,1.32,0,2.77.39,3.88-.78-21.76-13.32-42.73-27.75-62.41-44.02Z"/><path class="cls-2" d="m319.63,305.5c1.9-8.44-1.85-16.54-1.29-24.9.09-1.34-.94-2.66-2.64-2.62-1.69.04-2.74,1.12-3.25,2.65-.56,1.67-.09,3.24.8,4.65,3.35,5.28,3.2,11.12,2.92,17.02-.09,1.86-.82,1.93-2.57,1.97-6.74.17-12.1-1.75-15.88-7.78-1.93-3.09-6.13-3.88-9.01-2.61-2.13.94-2.54,2.67-1.93,4.65.63,2,2.19,2.36,3.86,1.33,1.86-1.13,3.36-.38,4.82.63.8.54,1.77,1.19,1.41,2.38-.32,1.05-1.36.97-2.21,1-2.62.11-5.24.07-7.85.26-2.21.16-3.24-.63-4-2.82-1.86-5.32-5.88-7.82-11.48-7.85-5.94-.03-10.53,2.51-14.25,7.01-.7.84-1.41,3.14-2.97,1.63-2.04-1.98-2.98-2.13-3.53.86-.16.9-.93,1.06-1.71,1.11-1.79.13-3.43-.04-4.85-1.4-1.2-1.15-2.74-1.28-4.1-.22-1.45,1.13-1.23,2.64-.48,4.06.59,1.12,1.23,2.18.66,3.51-1.6,3.66-3.26,7.16-6.52,9.84-9.15,7.52-24.26,6.98-30.65-5.47.16,5.9,5.4,11.77,12.02,13.46,11.54,2.95,24.19-3.4,28.86-14.5,1.96-4.64,4.42-5.74,9.09-3.85,1.22.49,2.34.97,3.54.25,3.99-2.38,8.37-1.33,12.47-.96,3.99.37,8.37-2.65,12.03,1.21.54.56,1.44.19,2.05-.32,1.16-.97,2.58-.86,3.93-.91,7.11-.24,14.22-.53,21.33-.06,1.61.11,3.33-.03,4.8.49,4.66,1.65,5.49,1.16,6.58-3.7Zm-43.57-1.98c-2.95.32-5.9.59-8.85.88-.01-.05-.02-.11-.02-.17-.74,0-1.5.08-2.23-.02-1.52-.2-3.86.72-4.35-.87-.56-1.81,1.72-2.73,3.11-3.64,4.22-2.76,9.69-2.3,13,1.03.49.5,1.12,1.19,1.1,1.77-.04.83-1.03.94-1.76,1.02Z"/><path class="cls-2" d="m141.87,296c-6.49-.06-12.99,0-19.48-.02-4-.01-7.99-.08-11.99-.14-1.01-.02-2.08-.03-2.63-1.07-.67-1.26.19-2.23.97-2.96,2.56-2.4,4.85-5.66,9.2-3.09,1.09.65,2.57.47,3.23-.92.73-1.55.24-3.01-1.19-3.89-.81-.49-1.87-.71-2.84-.77-5.29-.33-12.05,4.14-13.95,9.12-1.41,3.69.37,6.79,4.32,7.3,2.1.27,4.23.33,6.35.34,8.74.04,17.48,0,26.22.03,1.12,0,2.27,0,3.34.25,1.3.31,2.29,1.23,2.17,2.67-.14,1.71-1.63,1.22-2.63,1.22-13.86.02-27.72-.03-41.58.04-2.15.01-3.11-.68-3.53-2.81-1.23-6.2-3.51-12.26-2.04-18.78.33-1.46-.03-3.21-1.9-3.55-1.87-.34-3.04.94-3.67,2.55-.85,2.17.31,4.03.95,6.07,2.5,8.01,5.6,16.04,1.85,24.84,1.61.18,2.38-.74,3.01-1.58,1.26-1.68,2.82-2.12,4.87-2.11,13.11.09,26.22.05,39.33.06,1.86,0,3.65.08,5.49.78,2.86,1.09,4.89-.43,5.17-3.46.57-6.24-2.79-10.06-9.03-10.12Z"/><path class="cls-2" d="m437.75,323.03c6.91-.9,10.66-5.56,13.3-11.32,1.55-3.39,3.84-3.5,6.67-2.18,3.27,1.52,4.65,1.02,5.63-2.48.47-1.67.71-3.42.83-5.15.5-7.14-2.16-14.04-1.71-21.2.08-1.41-.92-2.67-2.56-2.73-1.51-.06-2.58.84-3.2,2.18-.8,1.75-.43,3.51.51,5.01,3.25,5.17,3.31,10.84,2.99,16.63-.11,2.01-.63,2.46-2.88,2.49-3.69.06-5.22-1.19-5.91-4.77-.68-3.55-3.87-5.49-6.2-4.18-3.01,1.69-3.92,4.76-4.04,7.96-.1,2.91,1.62,4.63,4.45,5.12,1.46.25,2.25.71,1.98,2.42-.6,3.78-5.61,8.66-9.47,9.08-6.47.7-8.49-.66-11.11-7.77-.34-.91-1.69-1.88-.65-2.92.81-.8,1.84.02,2.78.31,3.4,1.04,5.23-.36,5.32-3.98.16-6.29-2.88-9.51-9.16-9.56-9.98-.07-19.96-.05-29.94-.14-4.43-.05-4.69-.53-2.98-4.44,0,0,0,0,0,0,0,0,0,0,0,0,2.96-1.99,5.49-5.36,9.81-2.56.91.59,2.3,0,2.66-1.33.38-1.42.13-2.77-1.23-3.62-1.33-.84-2.84-.92-4.35-.71-5.02.71-8.85,3.36-11.55,7.52-2.74,4.21-1.07,7.87,3.89,8.85,1.34.26,2.73.31,4.1.31,6.87.04,13.73.02,20.6.03,3.37,0,6.74-.06,10.1.13,1.6.09,3.01,1.11,2.83,2.88-.19,1.88-1.95,1.14-3.04,1.14-13.61.04-27.22.02-40.82.02-1.26,0-2.51.05-3.56-.8,0,0,0,0,0,0-1.02-4.81-2.04-9.61-3.06-14.41,0,0,0,0,0-.01-.21-2.94,1.78-5.86.05-8.81,0,0,0,0,0,0-1.01-2.1-2.55-1.25-3.59-.32-2.04,1.8-2.23,4.24-.86,6.47,1.82,2.97,2.39,6.24,2.92,9.57.89,5.62,2.98,11.24-1.34,17.43,4.01-1.41,5.08-4.7,8.82-4.57,11.97.4,23.95.22,35.93.11,2.95-.03,4.46.17,4.9,3.92.95,8.12,5.19,11.27,12.14,10.36Zm9.49-18.85c-.91,0-1.67-.41-1.88-1.39-.18-.84.2-1.47,1.05-1.6,1.16-.18,1.77.53,2.05,1.47.09,1-.34,1.52-1.22,1.52Z"/><path class="cls-2" d="m50.14,396.57c-.04-3.2-1.92-4.52-4.76-3-1.24.66-1.9.9-3.23.27-4.17-1.99-8.29-1.1-10.8,2.05-3.08,3.88-3.19,10.78-.22,14.74,2.25,3.01,6.49,3.85,10.89,2.15.67-.26,1.34-1.08,2.02-.59.79.56.56,1.6.38,2.44-.54,2.48-1.92,3.91-4.65,3.94-1.82.01-2.89-1-4.16-2.07-1.64-1.38-4.13-1.58-5.37-.06-1.09,1.36.73,2.96,2,3.89,4.02,2.94,8.5,2.72,12.83,1.07,4.02-1.54,5.13-5.11,5.09-9.14-.03-2.49,0-4.98,0-7.48,0-2.74.03-5.48-.01-8.21Zm-10.35,12.81c-2.99.12-4.97-2.29-5-6.1-.03-3.79,1.9-6.23,4.91-6.2,2.98.03,4.87,2.47,4.86,6.28,0,3.51-1.9,5.9-4.77,6.02Z"/><path class="cls-2" d="m179.02,385.06c-2.2-.02-3.14.57-3.07,2.94.14,4.85.07,9.71.03,14.56-.04,5.17-1.69,7.07-6.02,7.06-4.47,0-6.15-1.85-6.18-6.91-.03-4.73-.13-9.47.03-14.19.09-2.53-.62-3.52-3.31-3.49-2.51.03-3.2.91-3.14,3.3.14,5.35-.05,10.71.05,16.06.11,5.96,3.66,9.82,9.57,10.43,1.96.2,3.99.19,5.95-.03,5.59-.64,9.24-4.66,9.41-10.26.08-2.61.01-5.23,0-7.84,0-2.86-.16-5.74.04-8.59.19-2.7-1.16-3.02-3.37-3.04Z"/><path class="cls-2" d="m398.83,396.77c-.04-3.52-1.72-4.68-4.91-3.11-1.1.54-1.69.81-2.91.24-4.42-2.05-8.55-1.16-11.08,2.13-2.92,3.8-3.01,10.53-.2,14.42,2.31,3.21,6.51,4.23,11.11,2.21,2.61-1.15,2.51.22,2.28,1.85-.36,2.54-1.81,3.95-4.52,4.04-1.81.06-2.97-.82-4.21-1.97-1.64-1.53-4.21-1.62-5.36-.24-1.34,1.59.74,3.22,2.09,4.14,4.05,2.76,8.53,2.6,12.85.85,3.85-1.56,4.89-5.01,4.87-8.88-.02-2.49-.01-4.98-.01-7.47.01-2.74.03-5.47,0-8.21Zm-10.66,12.66c-2.98-.08-4.65-2.42-4.59-6.43.05-3.8,1.71-5.91,4.66-5.96,3.16-.05,5.13,2.43,5.11,6.42-.02,3.64-2.11,6.05-5.18,5.97Z"/><path class="cls-2" d="m18.3,387.16c-.73-2.01-2.2-2.1-3.89-2.06-1.72.05-3.48-.3-4.32,1.96-3.12,8.41-6.34,16.78-9.55,25.16-.53,1.38-.28,2.14,1.33,2.21,2.43.11,4.88.39,5.4-2.98.45-2.9,2.25-3.87,5.06-3.49,1.22.17,2.5.17,3.73,0,2.75-.37,4.23.74,4.7,3.45.41,2.33,1.74,3.52,4.07,2.99,2.16.15,3.73.08,2.64-2.75-3.13-8.14-6.18-16.31-9.17-24.5Zm-1.51,15.79c-1.81.39-3.68.47-5.49-.05-.73-.21-.66-1.02-.44-1.59,1.03-2.59,1.37-5.48,3.3-8.01,1.69,2.64,2.19,5.46,3.15,8.09.2.57.22,1.4-.52,1.56Z"/><path class="cls-2" d="m367.34,387.95c-.82-2.32-2.18-2.91-4.47-2.91-2.31-.01-3.62.64-4.45,2.94-2.69,7.5-5.62,14.91-8.37,22.38-.43,1.18-1.88,2.57-.56,3.7,1.12.96,2.88.41,4.35.29,1.8-.16,1.94-1.9,2.21-3.09.63-2.75,2.2-3.63,4.85-3.29,1.23.15,2.51.15,3.74,0,2.66-.33,4.32.58,4.79,3.34.4,2.31,1.61,3.62,4.1,3.08,3.08.49,3.45-.73,2.43-3.35-2.97-7.65-5.87-15.35-8.62-23.09Zm-4.53,15.17c-3.44.58-4.09-.87-2.63-3.7.94-1.81.66-5.22,2.65-5.21,1.88,0,1.65,3.44,2.59,5.26,1.48,2.87.75,4.25-2.61,3.65Z"/><path class="cls-2" d="m351.88,287.44c-1.09,1.82.64,2.63,1.52,3.73,1.49,1.86,1.68,3.37-1.15,4.02-.85.19-1.69.43-2.52.67-3.93,1.13-5.73,3.59-5.37,7.35.37,3.76,2.1,5.23,6.57,5.6.91.08,2.51-.43,2.5.85-.03,3.93,2.08,1.36,2.88.88,3.12-1.89,6.05-2.48,9.39-.39,2.24,1.4,3.47-.37,4.16-2.24,1.33-3.57,1.43-7.29,1.05-11.05-.5-4.94-1.83-9.79-1.49-14.84.13-2.03-.4-4.37-3.18-3.95-2.49.37-3.38,2.39-2.93,4.8.21,1.07.68,2.14,1.24,3.09,2.99,5.12,2.98,10.69,2.56,16.33-.08,1.03-.27,1.83-1.64,2.03-5.55.78-6.82-.26-6.84-5.91v-2.24h-.18c0-2.23.17-4.49-.05-6.7-.18-1.73-1.37-2.93-3.19-3.2-1.27-.19-2.6-.04-3.33,1.17Zm3.48,13.95c.15,2.2-1.14,2.79-2.88,2.7-1.57.02-3.14-.04-3.1-1.92.04-2.23,1.76-3.18,3.72-3.44,1.88-.25,2.16,1.21,2.26,2.66Z"/><path class="cls-2" d="m211.77,393.21c-4.1,1.91-4.52.37-4.08-3.06.09-.74-.07-1.5.02-2.24.28-2.45-1.07-2.88-3.15-2.89-2.02-.01-2.96.56-2.89,2.76.13,3.98.04,7.96.03,11.95,0,3.73-.02,7.47.01,11.2.02,3.43,1.54,4.77,4.51,3.26,1.84-.94,2.86-.4,4.35.17,4.98,1.89,9.56-.11,11.65-5.05,1.76-4.15,1.56-8.27-.66-12.21-2.09-3.73-6.01-5.65-9.79-3.89Zm.52,17.24c-3.03-.04-4.93-2.66-4.87-6.71s2.04-6.66,5.04-6.6c2.97.05,4.86,2.68,4.85,6.77-.01,4.11-1.91,6.58-5.02,6.54Z"/><path class="cls-2" d="m333.88,385.04c-2.52-.03-3.32.91-3.12,3.3.16,1.96.03,3.96.03,6.28-8.83-3.38-14.39-.94-15.56,6.55-1.62,10.36,6.31,17.13,14.22,12.31,1.07-.65,1.48.24,2.22.56,3.44,1.47,5.02.39,5.03-3.39.01-7.47-.05-14.94.03-22.4.03-2.12-.43-3.18-2.85-3.21Zm-7.72,25.49c-3.32.07-5.48-2.76-5.36-7.05.1-3.97,2.1-6.43,5.2-6.43,3.29.01,5.05,2.42,5.02,6.88-.03,4.35-1.64,6.54-4.86,6.6Z"/><path class="cls-2" d="m443.4,385.03c-2.56-.04-3.31,1-3.1,3.33.12,1.36-.04,2.74.02,4.11.09,1.94-.4,2.43-2.29,1.4-3.55-1.94-7.04-1.47-10.07,1.12-3.72,3.16-4.53,9.84-2.01,14.87,2.29,4.57,7.43,6.47,12,4.17,1.39-.7,2.06-.67,3.47.08,2.87,1.53,4.71.19,4.74-3.01.04-3.73.01-7.47.01-11.2s-.06-7.72.03-11.58c.04-2.03-.3-3.25-2.8-3.29Zm-7.87,25.44c-3.21,0-5.22-2.64-5.18-6.82.03-4,1.96-6.49,5.05-6.53,3.28-.04,5.08,2.39,5.05,6.82-.03,4.28-1.73,6.54-4.92,6.53Z"/><path class="cls-2" d="m156.63,288.81c.16-.49.2-1.06.48-1.45,4.06-5.57,10.15-6.16,15.19-1.38,3.37,3.21,5.11,7.32,5.87,11.85,1.04,6.18,0,7.34-6.26,8.1-6.79.83-12.12-1.53-16.48-8.04-.03,3.5,1.08,5.28,2.46,6.88,2.77,3.22,6.31,4.7,10.56,4.72,1.37,0,3.05-.58,3.91,1.32.75,1.66,2.01,2.43,3.93,1.95,1.97-.5,3.43-1.49,3.89-3.56.24-1.09.4-2.15,1.06-3.14,5.92-8.77,4.14-18.61,3.8-28.23-.04-1.14-.86-2.16-2.1-2.35-1.62-.24-2.46.96-3.2,2.14-.67,1.08-1.41,2.35-.25,3.4,5.07,4.54,1.75,10.02,2.3,15.06-.61-.12-.89-.26-.95-.46-.25-.83-.39-1.69-.64-2.52-1.88-6.07-4.88-11.25-11.34-13.41-6.55-2.19-12.46,1.73-12.23,9.11Z"/><path class="cls-2" d="m15.97,328.53c10.86,1.11,21.65-5.19,25.7-15.4,1.28-3.24,3.14-4.58,6.45-4.25,1.37.13,2.8-.02,4.1.33,3.59.97,4.8-.93,5.16-3.99.25-2.16-.05-4.26-1.19-6.14-.79-1.3-1.74-2.53-3.54-2.24-1.19.19-2.11.92-2.46,2.06-.56,1.85.56,2.74,2.13,3.33.56.21,1.22.53,1.04,1.3-.06.27-.54.7-.73.66-3.56-.81-7.53,1.24-10.8-1.61-1.27-1.11-2.78-1.21-4.13-.2-1.48,1.1-1.33,2.75-.52,4.04.98,1.56,1.06,2.94.38,4.57-3.43,8.26-9.71,13.28-18.47,13.69-8.5.4-15.68-2.8-18.66-12.51-.11,8.68,6.61,15.45,15.54,16.36Z"/><path class="cls-2" d="m245.31,405.58h-.01c0-2.24-.05-4.48.01-6.71.06-1.79-.72-3.11-2.02-4.2-3.48-2.96-12.13-2.64-15.31.64-1.07,1.1-2.91,2.6-1.31,4,1.23,1.09,3.61,1.22,5.04-.44,1.04-1.21,2.11-2.1,3.71-2.15,1.67-.05,3.48.1,3.79,2.15.3,1.94-1.38,2.48-2.85,2.82-2.05.46-4.17.65-6.22,1.14-3.33.79-5.2,2.89-4.89,6.43.31,3.55,2.63,5.19,5.94,5.59,1.86.22,3.78.19,5.5-.61,1.42-.66,2.48-.76,4.1-.08,3.29,1.39,4.62.19,4.53-3.36-.05-1.74-.01-3.48-.01-5.22Zm-5.99,1.36c-.28,2.84-2.01,4.12-4.48,4.21-2.13-.04-3.51-.75-3.64-2.74-.14-2.06,3.17-3.81,6.53-3.75,1.79.04,1.69,1.17,1.59,2.28Z"/><path class="cls-2" d="m207.9,287.55c-.9,1.83.78,2.61,1.7,3.71,1.59,1.9,1.53,3.36-1.24,3.94-.85.18-1.69.42-2.53.66-4.11,1.17-5.7,3.56-5.25,7.75.43,3.96,3.05,5.04,6.52,5.23.88.05,2.55-.73,2.36,1.24-.23,2.39,1.31,1.56,2.03.99,3.76-2.92,7.95-2.45,12.17-1.78,1.54.25,2.67-.04,3.46-1.45,1.47-2.6.81-7.78-1.29-9.86-1.7-1.69-4.08-1.44-4.94.6-.84,1.99.3,3,2.04,3.64.72.26,1.39.66,1.15,1.62-.16.65-.71.5-1.19.54-7.74.65-8.23.19-8.17-7.57v-.74h-.15c0-2.12.19-4.25-.06-6.33-.22-1.82-1.28-3.29-3.35-3.49-1.26-.12-2.62.01-3.26,1.3Zm3.52,14.03c.13,2.03-1.26,2.48-2.94,2.47-1.4-.03-3.05.01-3-1.9.06-2.26,1.85-3.15,3.81-3.37,2.02-.22,2.04,1.48,2.13,2.8Z"/><path class="cls-2" d="m64.27,392.68c-4.91-.25-8.97,2.46-10.71,7.16-1.7,4.57-.09,10.52,3.57,13.21,3.48,2.55,9.78,2.72,13.06.14,1.5-1.18,4.02-2.89,2.8-4.64-1.14-1.63-3.7-.78-5.61.73-2.27,1.8-4.84,1.77-7.13-.27-.79-.69-1.22-1.66-.98-2.69.32-1.38,1.56-.96,2.48-1,1.62-.06,3.24-.01,4.86-.02,1.25,0,2.5.01,3.74,0,4.02-.02,4.53-.7,3.49-4.62-1.33-4.99-4.62-7.74-9.57-8Zm-.89,9.13c-1.37-.7-3.84.99-3.99-1.51-.14-2.38,1.99-3.19,4.18-3.25,2.08-.05,4.12.81,4.1,2.91-.03,3.16-2.92.95-4.29,1.85Z"/><path class="cls-2" d="m420.23,395.12c-3.67-3.73-13.61-3.12-16.67,1.11-.58.8-1.27,1.66-.88,2.72.48,1.27,1.69.72,2.61.85,1.66.23,2.68-.54,3.74-1.83,1.32-1.62,3.32-1.56,5.18-.89,1.03.36,1.7,1.28,1.44,2.35-.52,2.12-2.47,2.17-4.17,2.51-1.95.39-3.98.54-5.84,1.18-2.61.89-4.04,2.85-3.94,5.71.11,2.99,1.64,4.95,4.49,5.73,2.33.65,4.74.62,6.98-.36,1.45-.63,2.51-.69,4.11-.02,3.29,1.36,4.59.15,4.44-3.38-.06-1.62,0-3.24,0-4.86h-.03c0-.88.08-1.76-.01-2.62-.3-2.76.95-5.76-1.44-8.2Zm-4.41,11.57c-.17,3.05-1.99,4.35-4.32,4.49-2.39-.05-4.06-.79-3.82-2.74.45-3.78,3.96-3.04,6.41-3.74,1.78-.5,1.79.84,1.73,1.99Z"/><path class="cls-2" d="m133.43,392.75c-5.18-.2-9.39,2.95-10.76,8.06-1.33,4.98.7,10.46,4.72,12.74,4.32,2.44,10.4,1.71,13.46-1.71.86-.95,2.47-2.13,1.34-3.41-.97-1.08-2.82-.7-4.21-.03-.65.32-1.08,1.11-1.74,1.39-2.42,1.02-4.85,1.33-6.85-.89-.66-.74-1.26-1.68-.93-2.72.4-1.3,1.62-.89,2.55-.92,1.62-.06,3.24-.02,4.86-.02,1.38,0,2.76-.14,4.12.03,3.21.39,3.93-1.05,3.31-3.93-1.11-5.2-4.69-8.39-9.87-8.59Zm-.79,9.05c-1.39-.66-3.88.98-4.04-1.41-.14-2.24,1.92-3.26,4.16-3.33,2.27-.08,4.44.92,4.32,3.1-.15,2.88-3,.81-4.44,1.64Z"/><path class="cls-2" d="m297.47,394.01c-3.87-2.02-9.18-1.51-12.33,1.19-3.47,2.98-4.76,8.55-3.02,13.02,1.74,4.46,5.15,6.7,10.18,6.7,2.98-.01,5.7-.66,7.67-3.12.81-1.01,2.45-2.16,1.25-3.41-.97-1-2.82-.7-4.2.06-.53.29-.9.88-1.42,1.2-2.46,1.55-6.07,1.03-7.36-1.11-1.11-1.86-1.28-3.36,1.66-3.31,3.36.05,6.73.01,10.09.01,1.28-.01,2.5.05,2.67-1.79.26-2.95-2.44-7.99-5.19-9.44Zm-5.43,7.83c-1.43-.78-4.08,1.07-4.26-1.56-.15-2.28,2.01-3.18,4.2-3.24,2.26-.06,4.32.99,4.22,3.21-.12,2.7-2.81.75-4.16,1.59Z"/><path class="cls-2" d="m96.87,400.72c-.23-6.88-5.39-9.95-11.65-6.95-1.25.6-1.9,1.11-3.44-.05-2.61-1.96-4.93-.42-4.97,2.88-.03,2.37,0,4.73,0,7.1,0,2.74.11,5.48-.03,8.21-.12,2.35,1.16,2.57,3.02,2.6,1.99.03,2.99-.5,2.94-2.72-.09-3.48-.11-6.98.16-10.44.2-2.51,1.73-4.21,4.45-4.04,2.63.16,3.53,2.04,3.57,4.41.05,3.24.13,6.48,0,9.71-.08,2.19.57,3.13,2.93,3.11,2.2-.02,3.18-.62,3.08-2.97-.15-3.6.06-7.22-.06-10.83Z"/><path class="cls-2" d="m278.79,400.81c-.21-6.94-5.22-10-11.57-7.06-1.25.58-1.95,1.05-3.51-.05-2.78-1.95-4.89-.46-4.94,3.01-.03,2.37,0,4.74,0,7.1,0,2.62.13,5.24-.04,7.85-.16,2.5,1.14,2.8,3.2,2.86,2.23.06,2.8-.9,2.74-2.91-.09-3.11-.12-6.24.03-9.34.13-2.72,1.17-5.02,4.39-4.96,3.13.06,3.78,2.38,3.82,4.95.05,3.24.1,6.48,0,9.72-.06,2.03.9,2.57,2.74,2.52,1.74-.05,3.24,0,3.17-2.46-.11-3.74.07-7.48-.04-11.22Z"/><path class="cls-2" d="m111.61,354.25c-.01-7.21-5.69-12.93-12.77-12.86-7.04.07-12.73,5.67-12.7,12.52.03,7.37,5.49,13.08,12.54,13.11,7.08.04,12.94-5.75,12.93-12.77Zm-12.92,8.65c-4.67-.09-8.29-4.01-8.23-8.89.07-4.9,3.79-8.74,8.44-8.72,4.78.03,8.57,4.12,8.42,9.11-.14,4.84-3.95,8.58-8.63,8.5Z"/><path class="cls-2" d="m461.01,341.41c-7.23-.04-13,5.59-12.92,12.62.08,7.37,5.56,13.01,12.62,12.97,7.19-.03,12.71-5.64,12.66-12.87-.04-7.21-5.36-12.69-12.36-12.72Zm-.27,21.51c-4.66-.01-8.29-3.79-8.34-8.68-.05-5.04,3.71-9.04,8.46-8.97,4.66.07,8.3,3.87,8.37,8.72.06,5.03-3.66,8.95-8.49,8.93Z"/><path class="cls-2" d="m35.81,353.67c-.14,7.26,5.27,13.11,12.33,13.32,7.01.2,13.03-5.56,13.13-12.57.1-7.28-5.31-12.88-12.56-12.98-7.18-.11-12.76,5.19-12.9,12.23Zm12.59-8.42c4.83-.07,8.65,3.87,8.64,8.9-.02,5.01-3.85,8.88-8.72,8.8-4.62-.07-8.26-4-8.24-8.88.02-4.87,3.69-8.76,8.32-8.82Z"/><path class="cls-2" d="m289.44,364.64c-.02-2.1-1.11-2.45-2.85-2.42-3.36.06-6.73-.06-10.08.04-2.09.06-2.92-.75-2.86-2.84.1-3.61.09-7.22,0-10.82-.05-1.95.75-2.64,2.66-2.58,3.36.1,6.72,0,10.08.03,1.52.01,2.66-.19,2.7-2.16.04-1.96-.79-2.63-2.67-2.6-4.98.07-9.96.09-14.94-.01-2.22-.05-2.77,1-2.73,2.96.08,3.36.02,6.72.02,10.08,0,3.24.08,6.47-.03,9.7-.08,2.18.61,3.16,2.96,3.1,4.98-.13,9.96-.08,14.94-.02,1.77.02,2.81-.37,2.8-2.45Z"/><path class="cls-2" d="m260.5,365.18c6.27-3.81,8-12.02,3.88-18.26-3.85-5.81-11.13-7.27-16.91-3.37,0,0,0,0,0,0-3.32,1.15-4.37,4.41-6.68,7.57,0-3.08.06-5.4-.02-7.72-.09-2.75-2.11-2.14-3.49-1.55-1.37.58-.88,2.26-.73,3.38.48,3.62-.92,4.72-4.53,4.55-5.9-.28-5.97-.05-6.43-5.95-.13-1.73-.69-2.42-2.47-2.39-1.67.03-2.18.76-2.15,2.28.05,2.12.22,4.27-.04,6.36-.43,3.47.88,4.85,4.32,4.29,2.7-.44,3.51.9,3.34,3.43-.16,2.36.04,4.74-.02,7.11-.04,1.86.91,2.33,2.58,2.3,1.62-.03,2.2-.76,2.15-2.31-.06-1.87,0-3.74,0-5.61,0-5.09,0-5,5.15-4.96,1.95.01,2.99.45,3.2,2.58.15,1.59.73,3.15,2.08,4.25,2.35,6,11.39,7.3,16.77,4.03Zm-14.95-11.08c.02-4.89,3.62-8.73,8.28-8.84,4.76-.11,8.62,3.85,8.63,8.87,0,5-3.82,8.89-8.66,8.8-4.65-.09-8.27-3.95-8.25-8.83Z"/><path class="cls-2" d="m382.06,344.33c1.36-2.09,1.28-3.15-1.57-3.03-2.24.09-4.49.02-6.74.01-1.87,0-3.74-.01-5.62.01-4.29.02-4.76.45-2.18,3.61,5.37,6.56,5.18,12.5-.53,18.6-.74.79-2.51,2.25-.94,3.28,1.41.93,3.38.51,4.48-1.39.99-1.73,2.18-3.35,3.18-5.08,1.13-1.95,2.1-1.74,3.19.03,1.18,1.91,2.41,3.8,3.69,5.64,1.04,1.5,2.88,1.54,4.05.86,1.75-1.03-.15-2.1-.67-2.97-1.41-2.35-2.93-4.65-4.59-6.83-1.4-1.83-1.59-3.41-.21-5.39,1.64-2.35,2.9-4.95,4.46-7.35Zm-6.11,2.37c-.25,1.25-.69,3.14-2.03,3.22-1.68.1-2.09-1.93-2.43-3.22-.48-1.87,1.27-1.23,2.2-1.47.97.21,2.63-.38,2.26,1.47Z"/><path class="cls-2" d="m116.94,406.37c-1.58-.11-1.92,1.25-2.67,2.23-2.41,3.13-6.54,2.43-7.97-1.29-.74-1.92-.8-3.89-.28-5.88.49-1.9,1.35-3.57,3.38-4.13,2.16-.6,3.94.13,5.15,2.06,1.41,2.26,3.94,1.92,5.25.97,1.92-1.4-.14-3.12-1.12-4.33-2.84-3.51-8.86-4.32-13.46-2.03-4.08,2.04-6.4,7.88-5.16,12.99,1.2,4.96,5.05,7.92,10.41,7.98,3.92.09,7.1-1.26,9.09-4.78.54-.95,1.48-2.05.84-3.1-.75-1.24-2.27-.59-3.46-.68Z"/><path class="cls-2" d="m443.97,362.14c-1.96-.76-5.23-.54-5.61-2.28-.46-2.06,2.74-2.76,4.35-4.01,1.73-1.34,1.67-2.18-.15-3.27-1.85-1.11-3.95-1.94-5.74-4.07,3.03-.95,5.62-1.76,8.2-2.57,1.96-.61,1.86-2.2,1.55-3.67-.4-1.89-1.79-.87-2.69-.59-5.47,1.7-10.9,3.48-16.89,5.41,2.49,2.67,5.06,3.99,7.43,5.53,2.18,1.42,2.06,2.4-.09,3.67-1.82,1.07-3.51,2.38-5.26,3.59-.6.42-1.49.76-1.31,1.61.17.82,1.1.89,1.81,1.11,4.89,1.52,9.79,2.98,14.65,4.57,2.19.72,2.58-.26,2.6-2.15.02-2.04-1.42-2.31-2.85-2.86Z"/><path class="cls-2" d="m423.88,364.55c-2.63-6.98-5.29-13.95-7.86-20.96-.6-1.65-1.53-2.29-3.3-2.32-2.02-.03-2.8.92-3.4,2.69-2.23,6.6-4.64,13.13-6.88,19.72-.36,1.07-1.78,2.72.58,3.26,1.67.38,3.07.05,3.72-2.06,1.27-4.16,2.74-8.26,4.29-12.33.44-1.16.14-3.31,1.78-3.23,1.39.07,1.38,2.14,1.86,3.36,1.65,4.16,3.24,8.34,4.73,12.56.67,1.9,2.07,1.89,3.6,1.79.86-.06,1.43-.42,1.19-1.43-.1-.36-.18-.73-.31-1.07Z"/><path class="cls-2" d="m81.31,309.02c2.04.57,4.21.75,5.02-1.7.75-2.27-.68-3.79-2.75-4.61-2.9-1.15-5.79-2.27-8.1-4.51-1.52-1.47-2.59-2.93-1.77-5.23.87-2.45-.52-4.05-2.73-4.33-2.48-.32-3.42,1.59-3.59,3.81-.15,1.95.51,3.71,1.67,5.22,1.13,1.48,2.38,2.88,3.67,4.22,1.2,1.25,1.35,1.99-.65,2.39-2.44.49-4.9,1.06-7.02,2.43-2.05,1.32-4.14,2.73-3.53,5.88,6.15-4.46,12.69-5.56,19.78-3.57Z"/><path class="cls-2" d="m315.02,354.16c0,1.52.58,2.17,2.16,2.36,5.48.65,5.47.71,5.51,6.39,0,.62.03,1.24,0,1.87-.08,1.9,1.08,2.34,2.65,2.21,3.62-.3,2.09-3.13,2.16-4.88.2-5.21.07-5.28,5.26-5.57,1.86-.1,2.85-.67,2.61-2.64.18-2.04-1.16-2.07-2.65-2.15-5.15-.26-5.15-.29-5.15-5.63,0-.87-.04-1.74,0-2.61.07-1.63-.8-2.12-2.3-2.18-3.38-.12-2.55,2.34-2.58,4.16-.09,5.68-.04,5.75-5.56,6.32-1.65.17-2.1.88-2.1,2.36Z"/><path class="cls-2" d="m2.61,356.4c4.13-.71,5.25,1.24,4.75,4.95-.17,1.22-.01,2.48,0,3.73,0,1.49.92,1.87,2.21,1.87,1.34,0,2.55-.13,2.54-1.91,0-.99.02-1.99.02-2.98.01-5.3,0-5.33,5.18-5.6,1.67-.09,3.05-.28,2.83-2.33-.04-1.86-.27-2.09-2.22-2.31q-5.75-.65-5.78-6.5c0-.75,0-1.49-.02-2.24-.05-1.57-1.16-1.68-2.35-1.69-1.2,0-2.32.12-2.39,1.66-.06,1.37-.18,2.75,0,4.1.44,3.5-.43,5.55-4.53,4.78-1.66-.31-2.86.12-2.82,2.3.04,1.95,1.08,2.43,2.61,2.17Z"/><path class="cls-2" d="m159.58,361.89c0,.62,0,1.25,0,1.87.01,1.61-.29,3.29,2.3,3.29,2.45,0,2.51-1.47,2.48-3.2-.02-.75,0-1.49,0-2.24.08-4.37-1.03-5.44,5.03-5.1,1.69.09,3.06-.15,2.77-2.4.36-2.11-.86-2.47-2.64-2.37-5.88.33-5.11-.21-5.16-5.32-.01-1-.02-1.99-.01-2.99.01-1.62-.86-2.13-2.37-2.11-1.44.01-2.45.32-2.4,2.03.03.87,0,1.74,0,2.61,0,5.39,0,5.46-5.34,5.84-1.74.12-2.44.72-2.44,2.47,0,1.93,1.15,2.15,2.68,2.26,5.12.35,5.11.39,5.12,5.37Z"/><path class="cls-2" d="m192.59,362.32c0,.75.05,1.5,0,2.24-.1,1.75.67,2.46,2.44,2.42,1.59-.04,2.28-.72,2.23-2.27-.02-.87,0-1.74,0-2.62.02-5.31.01-5.38,5.23-5.61,1.86-.08,2.88-.59,2.58-2.6.23-1.72-.71-2.02-2.21-2.13-5.58-.38-5.58-.44-5.6-5.99,0-.75-.03-1.5,0-2.24.07-1.92-1.1-2.3-2.67-2.14-3.39.35-1.9,3.01-1.96,4.64-.2,5.39-.08,5.46-5.41,5.81-1.52.1-2.3.49-2.33,2.12-.03,1.69.53,2.39,2.34,2.52,5.35.36,5.35.45,5.36,5.83Z"/><path class="cls-2" d="m147.09,342.42c-2.74.82-5.48,1.67-8.12,2.77-2.33.97-6.23.73-6.6,3.11-.31,2.01,3.41,3.1,5.47,4.37,2.39,1.47,1.96,2.56.19,4.15-3.31,2.97-6.49,6.09-9.72,9.15.13.31.26.62.4.94,1.76.09,3.59.6,5.18-.81,3.82-3.38,7.59-6.81,11.42-10.18,1.31-1.15,1.11-1.97-.22-2.91-1.58-1.12-3.58-1.77-4.7-3.86,2.72-.83,5.3-1.68,7.92-2.4,2.08-.57,2.4-2.1,2.02-3.78-.55-2.42-2.14-.87-3.23-.54Z"/><path class="cls-2" d="m472.63,393.03c-1.59-.76-3.18.09-4.58.89-1.29.74-2.28,2.49-3.51-.3-.46-1.05-2.55-.6-3.84-.29-1.49.36-1.05,1.78-1.07,2.83-.05,2.48-.02,4.97-.01,7.46,0,2.86.08,5.72-.02,8.58-.08,2.23,1.27,2.28,2.9,2.29,1.63,0,3.01-.05,2.95-2.26-.06-2.36-.04-4.72.02-7.08.13-4.68,1.31-6.15,5.91-6.93,1.4-.24,2.04-.72,1.9-2.1-.11-1.06.53-2.51-.65-3.08Z"/><path class="cls-2" d="m473.59,298.6c-.3-5.54-2.07-11.04-.58-16.65.39-1.46.72-2.99-.79-4.07-1.23-.88-2.42-.41-3.4.45-1.46,1.27-2.6,2.76-1.88,4.87,3.13,9.11,4.38,18.19-.63,27.69,5.14-2.33,7.58-6.85,7.28-12.29Z"/><path class="cls-2" d="m329.57,299.21c-.45-6.28-2.17-12.5-.46-18.88.42-1.59-.69-2.89-2.65-2.69-2.5.26-4.12,3.56-3.35,5.96,2.85,8.89,4.23,17.8-.64,27,4.46-1.9,7.44-6.7,7.1-11.39Z"/><path class="cls-2" d="m255.02,403.71c0-2.73-.06-5.46.01-8.18.06-2.45-1.55-2.35-3.25-2.41-1.8-.06-2.79.43-2.76,2.47.07,5.45.1,10.91-.01,16.36-.05,2.35,1.2,2.56,3.04,2.56,1.88,0,3.11-.33,3-2.63-.13-2.72-.03-5.45-.03-8.18Z"/><path class="cls-2" d="m455.86,395.82c.04-2.25-1.05-2.71-2.99-2.69-1.92.01-3.11.43-3.02,2.69.11,2.74.03,5.48.03,8.22,0,2.62.1,5.24-.03,7.85-.11,2.3,1.12,2.63,3.02,2.64,1.9,0,3.06-.32,3.01-2.63-.12-5.35-.11-10.71,0-16.07Z"/><path class="cls-2" d="m66.65,367.17c1.82,0,2.4-.74,2.39-2.44-.04-6.95-.03-13.91,0-20.86,0-1.62-.46-2.53-2.34-2.53-1.83,0-2.37.8-2.35,2.48.05,3.35.02,6.71.02,10.06,0,3.6.04,7.2-.02,10.8-.03,1.66.45,2.49,2.31,2.5Z"/><path class="cls-2" d="m298.13,354.18c-3.82,0-6.68,2.84-6.64,6.58.04,3.6,2.76,6.08,6.65,6.06,3.75-.02,6.72-2.69,6.76-6.09.05-3.49-3.12-6.55-6.77-6.55Zm-.2,8.86c-1.6-.06-2.65-1.11-2.7-2.56-.05-1.74,1.18-2.64,2.94-2.61,1.61.03,2.5.89,2.71,2.49-.26,1.7-1.17,2.73-2.95,2.68Z"/><path class="cls-2" d="m126.2,360.78c.07-3.66-2.86-6.57-6.63-6.59-3.69-.01-6.76,2.95-6.76,6.52s2.91,6.09,6.67,6.1c3.82.01,6.65-2.53,6.72-6.03Zm-9.51-.33c-.03-1.79,1.23-2.58,2.95-2.56,1.62.01,2.45.96,2.68,2.5-.26,1.73-1.24,2.7-2.99,2.64-1.6-.06-2.61-1.07-2.64-2.58Z"/><path class="cls-2" d="m393.17,354.24c-3.78-.12-6.82,2.68-6.87,6.34-.06,3.53,2.71,6.14,6.53,6.19,3.85.04,6.56-2.45,6.59-6.06.03-3.65-2.59-6.36-6.25-6.47Zm-.33,8.86c-1.64-.17-2.8-.97-2.79-2.75.02-1.85,1.3-2.52,2.97-2.5,1.56.03,2.61.85,2.63,2.45.02,1.75-1.05,2.65-2.81,2.8Z"/><path class="cls-2" d="m34.28,361.08c.21-3.56-2.45-6.57-6.02-6.81-3.62-.25-6.72,2.3-7.05,5.78-.34,3.66,2.14,6.4,6,6.65,3.86.24,6.86-2.14,7.07-5.62Zm-6.41,2.03c-1.73.06-2.91-.82-3.06-2.52-.17-1.79.99-2.7,2.7-2.78,1.71-.09,2.8.71,3.12,2.45-.19,1.66-.97,2.79-2.76,2.85Z"/><path class="cls-2" d="m212.89,366.72c3.82,0,6.62-2.55,6.63-6.04.01-3.61-3.02-6.49-6.76-6.41-3.53.07-6.43,2.93-6.46,6.36-.03,3.48,2.81,6.1,6.59,6.09Zm-.1-9c1.72-.08,2.77.83,3.12,2.55-.15,1.7-1.06,2.81-2.76,2.92-1.86.12-3.17-.86-3.25-2.77-.07-1.82,1.22-2.63,2.89-2.7Z"/><path class="cls-2" d="m78.66,355.81c-3.49-.02-6.29,2.44-6.31,5.55-.02,3.1,2.76,5.61,6.25,5.61,3.45.01,6.31-2.5,6.33-5.55.01-3.08-2.79-5.58-6.27-5.61Zm-.14,7.7c-1.41-.06-2.47-.65-2.47-2.16.01-1.49,1.09-2.15,2.47-2.16,1.4-.01,2.45.69,2.45,2.16s-1.01,2.14-2.45,2.16Z"/><path class="cls-2" d="m348.6,346.81c-.07,3.2,2.57,5.7,6.07,5.75,3.54.06,6.24-2.29,6.32-5.48.08-3.26-2.44-5.64-6.05-5.71-3.54-.07-6.26,2.27-6.34,5.44Zm8.61-.08c-.29,1.72-1.23,2.36-2.66,2.31-1.44-.04-2.46-.74-2.41-2.24.05-1.53,1.22-2.07,2.58-2.09,1.46-.01,2.23.86,2.49,2.02Z"/><path class="cls-2" d="m354.59,366.94c3.51.06,6.23-2.29,6.29-5.43.06-3.19-2.53-5.6-6.06-5.66-3.48-.05-6.27,2.33-6.35,5.42-.07,3.09,2.65,5.61,6.12,5.67Zm-.07-7.84c1.55-.03,2.67.74,2.59,2.42-.07,1.5-1.14,2.12-2.54,2.08-1.41-.03-2.32-.71-2.42-2.36.07-1.37,1-2.11,2.37-2.14Z"/><path class="cls-2" d="m78.73,341.4c-3.49-.01-6.2,2.4-6.22,5.54-.01,3.08,2.79,5.6,6.21,5.59,3.44,0,6.24-2.52,6.24-5.59s-2.74-5.53-6.23-5.54Zm-.11,7.71c-1.54,0-2.75-.61-2.68-2.34.06-1.46,1.11-2.14,2.52-2.15,1.57,0,2.52.81,2.76,2.32-.25,1.55-1.21,2.18-2.6,2.17Z"/><path class="cls-2" d="m312.53,344.67c0-1.68.46-3.61-2.31-3.76-2.97-.16-3.19,1.72-3.19,3.85,0,6.35-.02,12.69.11,19.03.02,1.05-.65,2.61,1.13,3.13h.01c2.96,1.36,4.34.57,4.29-2.85-.11-6.47-.02-12.94-.04-19.41Z"/><path class="cls-2" d="m199.78,393.18c-1.36-.92-2.83-.38-4.05.66-1.53.27-2.74,2.09-4.66-.35-1.52-1.93-4.5,0-4.53,2.8-.05,4.98.07,9.96-.05,14.94-.06,2.34.6,3.33,3.14,3.32,2.5-.01,2.87-1.19,2.8-3.23-.09-2.49-.15-4.99.08-7.46.27-2.95,1.54-5.26,4.9-5.65,1.17-.13,2.73.28,2.9-1.53.11-1.18.64-2.7-.52-3.5Z"/><path class="cls-2" d="m344.97,385.19c-1.24-.21-3.08-.79-3.73.66-.74,1.64-1.2,4.32.31,5.19,2.89,1.68,1.5,2.72.14,4.15-.62.65-1.16,1.49-.43,2.28.77.84,1.66.11,2.35-.29,2.88-1.68,3.22-4.49,3.11-7.69-.45-1.34,1.14-3.81-1.75-4.31Z"/><path class="cls-2" d="m201.9,285.05c1.57-.81,3.04-1.72,4.54-.62,1.49.09,2.5-.37,3.12-1.38.6-.96.29-1.91-.48-2.68-.86-.87-2.03-1.36-2.99-.56-1.61,1.35-3.19.64-4.85.44-1.05-.13-1.99.27-2.42,1.31-.4.97-.3,1.97.4,2.78.71.81,1.71,1.2,2.67.7Z"/><path class="cls-2" d="m346.02,284.86c1.44-.86,2.84-1.56,4.31-.47,1.32-.08,2.44-.26,3.02-1.42.42-.85.27-1.78-.34-2.46-.8-.9-1.96-1.41-3.01-.65-1.43,1.04-2.7,1.16-4.33.49-1.09-.44-2.25.04-2.83,1.21-.49.99-.26,1.97.47,2.76.75.81,1.73,1.11,2.71.53Z"/><path class="cls-2" d="m156.78,278.82c1.71-.96,3.26-2.23,5.3-2.49,1.36-1.02,2.05-2.15-.3-2.52-2.31-.36-1.46-1.16-.57-2.16-.43-1.88-1.82-2.18-3.35-1.77-1.38.37-2.43,1.37-2.43,2.91,0,1.78.28,3.42-.54,5.26-.62,1.41.98,1.27,1.88.76Z"/><path class="cls-2" d="m249.03,387.41c0,2.02.81,2.71,2.38,2.51,1.89-.06,3.62.33,3.61-2.29,0-2.03-.89-2.62-2.71-2.55-1.63.06-3.28-.24-3.28,2.33Z"/><path class="cls-2" d="m452.9,385.04c-1.8.01-3.06.21-3.07,2.54,0,2.47,1.49,2.42,3.18,2.35,1.62.1,2.83-.09,2.86-2.27.03-2.27-1.1-2.64-2.97-2.62Z"/><path class="cls-2" d="m224.25,315.71c-.08,1.39.93,2.28,2.31,2.36,1.58.1,2.48-.83,2.79-2.37-.11-1.41-.82-2.4-2.27-2.36-1.44.04-2.73.79-2.83,2.37Z"/><path class="cls-2" d="m266.53,285.57c1.52.02,2.53-.74,2.71-2.11.1-1.84-.86-2.46-2.26-2.44-1.34.02-2.44.63-2.53,2.1-.09,1.37.56,2.43,2.08,2.45Z"/><path class="cls-2" d="m53.1,316.09c.13-1.39-1.02-2.15-2.42-2.2-1.42-.05-2.33.63-2.64,2.08.1,1.39.81,2.37,2.23,2.46,1.57.1,2.7-.92,2.84-2.34Z"/><path class="cls-2" d="m54.02,315.7c-.03,1.47.74,2.32,2.38,2.37,1.36-.13,2.23-.98,2.33-2.37.1-1.49-.79-2.4-2.27-2.33-1.36.06-2.4.8-2.43,2.33Z"/><path class="cls-2" d="m218.63,316.12c.02,1.35.84,2.36,2.31,2.32,1.39-.04,2.14-1.01,2.49-2.31-.15-1.46-.95-2.23-2.4-2.22-1.42.02-2.42.76-2.39,2.2Z"/><path class="cls-2" d="m48.66,356.33c1.2-.08,1.93-.94,2.05-2.19-.17-1.26-.82-2.14-2.09-2.18-1.41-.05-2.38.77-2.39,2.2-.01,1.47,1.06,2.25,2.43,2.17Z"/></g></svg>