<svg id="Layer_2" xmlns="http://www.w3.org/2000/svg" viewBox="0 0 1895.92 549.98"><defs><style>.cls-1{fill:#f9e11f;}.cls-1,.cls-2{stroke-width:0px;}.cls-2{fill:#fff;}</style></defs><g id="Layer_1-2"><path class="cls-2" d="m990.92,516.48v-33.5h3.5c2.8,0,3.5.4,3.5,2,0,1.9.2,1.8,4.8-.6,4.1-2.3,5.6-2.5,11.8-2.1,5.2.3,8,1,10.1,2.5,4.8,3.4,5.8,7.1,5.8,22.2s-1,18.6-7.2,21.5c-5.4,2.6-16.1,2.4-20.9-.4-1.9-1.2-3.7-2.1-4-2.1-.2,0-.4,5.4-.4,12v12h-7v-33.5h0Zm29.2,6.1c2.8-1.7,3.8-6.1,3.8-16.3s-1.5-15.4-4.8-17.2c-3-1.6-12.8-1.3-16.1.4-3.4,1.7-5.1,7.3-5.1,16.8,0,12.1,2.1,16.4,8.6,17.7,4.5.9,11,.3,13.6-1.4Z"/><path class="cls-2" d="m779.32,529.98c-11.4-1.6-12.9-4.4-12.9-24,0-12.3.3-15,1.8-17.3,3.4-5.2,6.2-6.2,17.7-6.2,17.6,0,20.2,2.8,20.7,22,.5,20.1-2.4,24.7-16.2,25.7-3.3.3-8.3.2-11.1-.2Zm16.7-7.1c2.9-1.5,4.2-8.4,3.7-19.8-.5-9.8-.6-10.6-3.2-12.8-4.7-4-20.3-2.9-22.1,1.6-1.1,2.6-1.8,18.5-1.1,23.3.9,6,2.5,7.9,7.2,8.9,4.4.9,12.9.3,15.5-1.2h0Z"/><path class="cls-2" d="m831.22,529.88c-7.7-1.8-8.3-3.5-8.3-23.5v-17.3l-3.2-.3c-2.7-.2-3.4-.8-3.6-3-.3-2.4.1-2.7,3-3,3.2-.3,3.3-.4,3.8-5.8.5-5.3.6-5.5,3.5-5.5s3,.1,3.3,5.8l.3,5.7h18l-.3,2.8-.3,2.7-8.7-.1h-8.8v15.9c0,8.7.4,16.7,1,17.7,1.3,2.4,5.5,3.3,8.3,1.9,3.1-1.6,3.7-2.8,3.7-7.1,0-3.7.1-3.8,3.6-3.8h3.7l-.6,4.5c-.4,2.5-1.3,5.8-2.1,7.4-2.4,4.5-9.3,6.6-16.3,5h0Z"/><path class="cls-2" d="m917.62,529.98c-10.7-1.9-13.1-6.1-13.2-23.5,0-10.1.3-12.6,2-15.9,3.5-7,6.1-8.1,18.4-8.1,15.7,0,18.9,2.6,19.8,16.5l.6,8h-16.6c-16.4,0-16.6,0-16.9,2.3-.6,3.7.8,10.7,2.4,12.3,2.2,2.3,9.5,3.6,15.3,2.9,6.6-.9,7.5-1.5,8.4-5.6.6-3,1.1-3.4,4-3.7l3.4-.3-.5,4.6c-.6,5.3-2.7,8-7.2,9.4-4.8,1.5-14.6,2-19.9,1.1h0Zm20.3-32.4c0-2.8-.7-5.2-1.9-6.7-1.8-2.2-2.7-2.4-11-2.4-10.3,0-11.9.9-13,7.2-1.2,6.3-1.3,6.3,13,6.3h12.9v-4.4Z"/><path class="cls-2" d="m1056.92,529.78c-2.9-.5-5.5-1.8-7.4-3.8-2.6-2.5-3.1-3.9-3.4-9.3-.6-9.2,1.2-12.2,8.5-14.3,6.8-2,16.3-1.5,21.2,1.1l3.3,1.7-.4-6.6c-.6-9.3-2.3-10.9-11.7-10.8-8.3,0-12.1,1.8-12.1,5.7,0,2.2-.4,2.5-3.5,2.5-3.3,0-3.5-.2-3.5-3.6,0-5,4.2-9,10.4-9.9,7.3-1.1,18-.1,21.8,2.2,4.9,2.9,5.7,6.3,5.7,27.1l.1,18.2h-3.5c-2.8,0-3.5-.4-3.5-1.9,0-1.8-.1-1.8-3.7-.1-4.5,2.2-12.1,2.9-18.3,1.8h0Zm14-5.9c3.1-.7,5.6-1.9,6.5-3.2,2.1-3,1.9-9.3-.4-11.6-3.8-3.8-19.9-3.4-22.9.6-1.5,2-1.2,10.7.6,12.5,1,1,6.2,2.5,9.4,2.7.9.1,4-.4,6.8-1Z"/><path class="cls-2" d="m1158.52,529.98c-3.6-.5-5.5-1.3-7.2-3.4-2.3-2.6-2.4-3.3-2.4-20.2,0-18.8.2-18-5.2-17.6-1.4.1-1.8-.6-1.8-2.7,0-2.6.4-3,3.3-3.3,3.2-.3,3.2-.4,3.5-5.9.3-5.4.4-5.6,3.2-5.6s2.9.2,3.2,5.6l.3,5.6,9,.5c8.2.5,9,.7,9,2.5,0,3-1.3,3.5-10.3,3.5h-8.4l.4,16.1c.3,15.5.4,16.1,2.7,18,4.7,3.9,9.9,1.1,10.8-5.9.5-3.8.8-4.2,3.4-4.2,2.8,0,2.9.2,2.9,4.6,0,9.5-5.6,13.7-16.4,12.4Z"/><path class="cls-2" d="m1198.82,530.08c-5.6-.8-9.3-3.1-11.6-7.4-2.6-4.7-2.6-28.7,0-33.4,2.9-5.4,6.8-6.8,18.2-6.8,15.5,0,19,2.9,20.1,16.8l.7,7.7-16.9.2c-19.3.3-18.6-.1-16.4,9.6,1.4,6.5,3.2,7.5,14.4,7.5,7,0,8.2-.3,9.8-2.3,1-1.2,1.8-3.3,1.8-4.7,0-2.1.4-2.4,3.3-2.1,3.9.4,4.6,2.8,2.3,8.2-1,2.5-2.6,4.1-4.8,5-4.1,1.7-14.8,2.5-20.9,1.7h0Zm20.1-31c0-4.6-1.9-8.7-4.6-10-3.7-1.7-15.5-1.4-18.1.4-2.1,1.5-4.3,7-4.3,10.8,0,1.5,1.3,1.7,13.5,1.7h13.5v-2.9Z"/><path class="cls-2" d="m1308.92,529.98c-1.9-.3-4.5-1.2-5.8-1.9-8.3-4.5-8.2-21.7.1-25.3,4.9-2,19.4-1.7,23.6.5l3.3,1.9-.4-6.6c-.6-9.3-2.3-10.9-11.7-10.8-8.3,0-12.1,1.8-12.1,5.7,0,2.2-.4,2.5-3.6,2.5h-3.7l.6-4.1c1-7.4,5.6-9.9,18.2-9.8,9,.1,14.3,1.7,16.9,5.2,1.9,2.6,2.1,4.3,2.4,22.8l.4,19.9h-3.6c-2.9,0-3.6-.4-3.6-2,0-1.9-.1-1.9-3.2-.1-3.7,2.1-12.5,3.2-17.8,2.1h0Zm13-6.1c6.2-1.4,8-3.3,8-8.6,0-5.7-2.2-7.8-9.2-8.7-5.7-.7-13.3.5-15.2,2.4-1.5,1.5-1.4,11.6.1,13.1,2.5,2.5,9.7,3.3,16.3,1.8h0Z"/><path class="cls-2" d="m1436.12,529.88c-11.1-1.5-13.6-5.8-13.7-23.4,0-13.3,1.4-18,6.7-21.8,5.7-4.2,25.2-3.1,29.6,1.6,2.6,2.8,4.2,8.8,4.2,15.5v5.2h-16.4c-9.1,0-16.7.4-17,.9-1,1.6.7,11.2,2.3,13.2,2.1,2.7,8.4,4,15.2,3.3,7.1-.8,7.9-1.3,8.8-5.5.6-3,1.1-3.4,4-3.7l3.4-.3-.5,4.6c-.6,5.3-2.7,8-7.2,9.4s-13.3,1.9-19.4,1h0Zm19.8-32.3c0-2.8-.7-5.2-1.9-6.7-1.8-2.2-2.7-2.4-11.1-2.4s-9.3.2-11.1,2.4c-1.2,1.5-1.9,3.9-1.9,6.7v4.4h26v-4.4Z"/><path class="cls-2" d="m1521.52,529.88c-5.7-.9-9.5-3.3-11.6-7.5-2.3-4.5-2.1-28.8.3-33.1,2.9-5.4,6.8-6.8,18.2-6.8,15.6,0,19,2.9,20.2,17l.6,7.5h-34.6l.6,6c1.1,10.3,2.8,11.6,14.8,11.4,8.3-.2,10.6-1.4,11.5-6,.6-3.2.9-3.5,3.8-3.1,3.8.4,4.4,2.8,2.2,8.1-1,2.5-2.6,4.1-4.8,5-4.2,1.8-14.9,2.5-21.2,1.5h0Zm19.6-32.9c-.2-3.4-.9-5.1-2.9-6.8-2.4-2.2-3.4-2.4-10.4-2-9.4.4-11.4,1.9-12.4,9.1l-.7,4.8,13.3-.3,13.4-.3-.3-4.5h0Z"/><path class="cls-2" d="m1667.62,530.08c-2.1-.5-5.1-1.8-6.8-3l-2.9-2.2v2.6c0,2.4-.3,2.6-3.2,2.3-1.8-.2-3.2-.6-3-1,.1-.5.2-15.4.2-33.3v-32.5h6v12c0,6.6.2,12,.5,12s2-1,3.6-2.2c2.6-2,4.3-2.3,11.4-2.3,9.7,0,12.7,1.5,16,8.1,1.7,3.3,2,5.9,2,15.9s-.3,12.6-2.1,15.9c-3.3,6.3-12.4,9.6-21.7,7.7Zm9.6-6.2c5.9-1.6,7.1-4.4,7.2-16.8,0-15.9-2.1-19.1-12.5-19.1s-13.2,3.4-13.2,17.9c0,13,1.5,16.6,7.4,17.9s6.7,1.3,11.1.1Z"/><path class="cls-2" d="m1719.22,529.68c-9.7-1.6-12.5-7-12.4-24.1.1-15.3,2.4-20.3,10.7-22.6,5.6-1.6,19-.8,23.2,1.4,3.7,1.9,5.9,7.5,6.5,16.4l.3,6.2h-33.8l.4,6.5c.5,7.6,1.7,9.2,7.9,10.6,4.8,1.1,14,.3,16.3-1.5.8-.6,1.7-2.4,1.9-4.1.3-2.7.7-3,3.8-3,3.3,0,3.4.1,3.1,3.5-.5,4.7-2.7,7.9-6.5,9.5-4.1,1.7-14.8,2.3-21.4,1.2Zm20.7-32.1c0-7-2.3-8.9-10.9-9.4-11.4-.7-15.1,1.9-15.1,10.4v3.4h26v-4.4Z"/><path class="cls-2" d="m1774.42,530.18c-5-.5-8.5-2.3-10-5.3-1.1-2.1-1.5-6.9-1.5-19.7v-16.9l-3,.3c-2.7.3-3,.1-3-2.6s.3-3,3-3h3v-12.1l3.3.3c3.1.3,3.2.4,3.7,5.8l.5,5.5,8.8.3,8.8.3-.3,2.7q-.3,2.7-8.8,2.8l-8.5.2-.3,15.6q-.3,15.6,2.3,18.2c2,2,3.2,2.4,5.3,1.9,4.1-1,5.1-2.3,5.4-6.8.3-3.9.5-4.2,3.6-4.5s3.2-.2,3.2,3.3c0,4.2-2,9.4-4.3,11.3-2,1.7-7.2,2.8-11.2,2.4h0Z"/><path class="cls-2" d="m1813.32,529.98c-11.4-1.6-12.9-4.4-12.9-24,0-12.3.3-15,1.8-17.3,3.4-5.2,6.2-6.2,17.7-6.2,17.6,0,20.2,2.8,20.7,22,.5,19.9-2.5,24.8-16.2,25.7-3.3.3-8.3.1-11.1-.2Zm16.6-7c2.3-1.2,2.8-2.7,3.6-10.4,1-10-.3-19.4-3.1-22.2-2.1-2.1-3.4-2.4-9.4-2.4-12.9,0-14.6,2.5-14,20.8.5,12.4,1.1,13.8,7,15.3,3.9.9,13.3.3,15.9-1.1h0Z"/><path class="cls-2" d="m263.82,528.68c-5.6-2.1-8.4-4.6-41.1-37.6-31.9-32-34.8-35.6-34.7-43.1,0-1.9.6-5,1.2-6.8.9-2.2,25.7-27.8,77.2-79.3,41.8-41.8,77.1-76.7,78.5-77.4,4.3-2.3,9.8-2.8,14.6-1.5,3.9,1.1,8.3,5.1,37.3,33.9,18.1,18,34.1,34.4,35.5,36.5,3.6,5.3,3.7,14.7.3,19.7-3.4,4.9-151.3,152.7-154.5,154.3-4.3,2.2-10.3,2.7-14.3,1.3Z"/><path class="cls-2" d="m721.42,528.28c-2.3-6-21.5-60.5-22.1-62.7-.6-2.5-.4-2.6,3.3-2.6h3.9l2.6,7.8c2.3,6.6,12.7,36.5,17.1,48.7l1.4,4,2.3-7c1.2-3.9,5.9-17.5,10.3-30.2l7.9-23.3h3.9c2.2,0,3.9.3,3.9.7,0,.3-4.6,13.5-10.1,29.2-5.6,15.7-10.8,30.5-11.6,32.9l-1.5,4.2h-5.3c-4.1,0-5.4-.4-6-1.7h0Z"/><path class="cls-2" d="m860.92,506.48v-23.5h3.5c2.8,0,3.5.4,3.5,2,0,1.8.2,1.8,3.6-.5,2.9-2,5-2.5,9.5-2.5,5,0,6.3.4,9,2.8,2.6,2.3,3.3,3.8,3.7,8l.5,5.2h-3.7c-3.4,0-3.6-.2-3.6-3.2,0-4.1-.8-5.4-4.3-6.7-5.8-2.2-12.8,1.8-14.1,8-.3,1.8-.6,10.1-.6,18.5v15.4h-7v-23.5h0Z"/><path class="cls-2" d="m1104.62,529.28c-.4-.3-.7-10.9-.7-23.5v-22.8h3.5c2.9,0,3.5.4,3.5,2.2v2.1l2.5-2.3c3.4-3.2,14.1-4.1,18.1-1.5,3,1.9,5.4,7.1,5.4,11.5,0,2.8-.3,3-3.5,3s-3.5-.2-3.5-3.2c0-4.2-.8-5.4-4.4-6.7-1.9-.8-4-.8-6.6-.1-3.1.8-4.2,1.9-5.9,5.3-1.9,3.8-2.1,6.2-2.1,20.5v16.2h-2.8c-1.6,0-3.2-.3-3.5-.7Z"/><path class="cls-2" d="m1241.92,506.38v-23.5l3.3.3c2.8.3,3.2.6,2.9,2.8l-.4,2.5,2.4-2.3c4.8-4.4,17.3-5.7,23.8-2.4,6.2,3.1,7,6.1,7,27.5v18.7h-7v-18.5c0-18.4,0-18.6-2.5-21-5-5.1-19.1-2.4-21.5,4.1-.6,1.4-1,9.9-1,19v16.4h-7v-23.6h0Z"/><path class="cls-2" d="m1354.92,506.58v-23.6h6.5l-.2,23.2-.3,23.3-3,.3-3,.3v-23.5h0Z"/><path class="cls-2" d="m1379.62,529.28c-.4-.3-.7-10.9-.7-23.5v-22.8h3.5c2.9,0,3.5.4,3.5,2.2v2.1l2.5-2.3c2.1-2,3.9-2.5,9.4-2.8,6.4-.4,7-.2,10.1,2.5,2.7,2.4,3.3,3.8,3.8,8.1l.5,5.2h-3.7c-3.4,0-3.6-.2-3.6-3.2,0-1.8-.4-3.8-.8-4.5-1.2-1.9-6.1-3.4-9-2.6-7.9,1.9-9.2,5.6-9.2,26.7v15.6h-2.8c-1.6,0-3.2-.3-3.5-.7h0Z"/><path class="cls-2" d="m1564.92,506.48v-23.5h3c2.6,0,3,.4,3,2.6v2.6l3-2.6c5.2-4.3,19.5-4.9,24.8-.9,4.3,3.2,5.1,7.2,5.1,27.1l.1,18.2h-7v-18.5c0-18.4,0-18.6-2.5-21-4.9-5-18.1-2.7-21.6,3.7-.9,1.5-1.5,8.1-1.7,19.1l-.4,16.7h-5.8v-23.5h0Z"/><path class="cls-2" d="m1856.92,506.48v-23.5h3c2.6,0,3,.4,3,2.7v2.6l2.3-2.1c4.7-4.4,17.2-5.7,23.7-2.4,6.2,3.1,7,6.1,7,27.5v18.8l-3.2-.3-3.3-.3-.3-18.7-.2-18.7-2.7-2c-5.7-4.6-19-1.7-21.3,4.5-.6,1.4-1,9.9-1,19v16.4h-7v-23.5Z"/><path class="cls-2" d="m1723.02,475.18c-.9-1.7-.4-2.5,4.2-5.9,7.1-5.4,7.6-5.6,9.2-4.3,2.5,2.1,1.7,3.7-3.2,6.6-2.7,1.5-5.8,3.4-7,4.1-1.9,1.3-2.3,1.2-3.2-.5h0Z"/><path class="cls-2" d="m1354.92,466.48c0-3.5.1-3.6,3.3-3.3,2.8.3,3.2.6,3.2,3.3s-.4,3-3.3,3.3c-3.1.3-3.2.2-3.2-3.3Z"/><path class="cls-2" d="m1465.72,418.58c-15.9-2.9-26.3-7.3-38.6-16.6-21.3-16.1-37.2-41.8-41.7-67.7-1.9-11.1-1.9-31.8,0-42,4.4-22.9,14.3-41.4,31.5-58.3,21.3-21,40.9-28.5,74-28.4,13.1,0,18.6.5,26.8,2.3,20.7,4.4,40.3,14.7,51.6,27.3,5.4,5.9,12.1,17.8,16.4,28.8,5.1,13.1,5.5,17.9,5.9,87.3l.4,64.7h-36l-.4-62.7c-.4-67.9-.3-67-6-79.2-3-6.3-14.8-18-23.1-22.6-11.9-6.6-20.3-8.8-34.1-8.9-13.6-.1-20.8,1.5-31.1,6.6-34.2,17.4-48.6,56.8-33.7,92.3,3.2,7.5,7.2,13.4,14.2,20.9,12.3,12.9,30.5,21.6,45.4,21.6,17.5,0,35.3-8.8,47.4-23.5,2.5-3,4.8-5.3,5.1-5,.3.3.4,10.5.3,22.8l-.2,22.2-3.2,2.8c-4.9,4.2-20.2,11.3-29.7,13.7-10.9,2.7-30.5,3.5-41.2,1.6h0Z"/><path class="cls-2" d="m1857.72,344.78c-.3-73.9-.3-74.3-2.5-79-6.8-14.7-24.8-23.9-40.6-20.8-11.8,2.3-21,8.7-26.3,18.2l-2.9,5.3-.3,74.8-.2,74.7h-41.9l-.3-73.7-.3-73.8-2.2-4.8c-6.9-14.8-24.6-23.8-40.6-20.7-12.7,2.4-22.4,9.8-27.6,20.9l-2.6,5.6-.3,72.8-.3,72.7h-39.9v-74.3c0-69.8.1-74.8,1.9-81.8,3.4-13.4,6.3-18.5,15.9-27.9,14.6-14.3,30.2-22.4,48.3-25,13.3-1.8,29.9,1,42.2,7.1,7.2,3.6,17.7,11.2,22.7,16.3l3.4,3.6,4.1-3.8c17.2-16.4,33.5-23.2,55.4-23.2,14,0,21.7,1.7,32.8,7,20,9.7,33.2,25.3,38.3,45.4,1.9,7.6,2,11.1,2,83.3v75.3h-38l-.2-74.2Z"/><path class="cls-2" d="m924.92,416.08c-39.2-8.4-70.5-38.9-81.1-79.2-3.1-11.7-3.8-34-1.5-46.2,6.6-35,30.7-65.9,62.1-79.5,46.5-20.1,97.7-5.7,128.3,36,5.5,7.5,12.5,20.9,11.5,21.9-.4.4-10.5,6.2-22.3,12.9-11.8,6.7-26.9,15.2-33.5,18.9-19.2,10.9-42.1,23.9-54,30.6-6,3.4-14.4,8.1-18.5,10.3l-7.5,4.1-7.8-15.1-7.7-15.1,13.7-8.2c7.6-4.5,29.5-17.4,48.6-28.6l34.9-20.4-6.3-5.8c-13.6-12.5-30.7-17.1-49.3-13.2-24.9,5.3-45.6,25.8-52.2,51.8-2.8,10.7-2.6,28.7.4,39.2,9,31.3,37.9,53.2,67.7,51.2,16.8-1.2,33.5-9.3,45-22,7.5-8.2,14.9-23.2,17.2-34.7.9-4.7,1.8-8.6,1.8-8.7.2-.3,37.9,4.8,38.3,5.2.2.2-.2,3.2-.8,6.6-7.9,45.1-41.7,80.1-85.3,88.4-10.9,2.1-30.9,1.9-41.7-.4h0Z"/><path class="cls-2" d="m722.42,415.98c-8.9-2.3-14.9-6.9-21-16-4.5-6.8-7.8-16.2-51.6-146.9-25.7-76.8-47-140.4-47.4-141.3-.7-1.7.7-1.8,20.8-1.8h21.6l41.1,123.7c22.6,68.1,41.3,123.9,41.5,124.1.1.1,9.5-27.5,20.9-61.5s30-89.7,41.5-123.8l20.8-62,20.1-.3c11.1-.1,20.2.1,20.2.4,0,.4-6.5,20.3-14.4,44.3s-21,63.4-28.9,87.6c-47.9,145.3-49.7,150.7-53.1,155.8-6.5,10-13.2,15.4-21.4,17.3-6.3,1.5-6.4,1.5-10.7.4h0Z"/><path class="cls-2" d="m1314.42,414.88c-34.1-5-64.1-26.3-79.2-56.4-17.8-35.3-14.1-76.8,9.6-108.2,10.3-13.7,22.8-23.8,38.6-31.4,17.6-8.4,21.8-9.2,53.8-9.7l27.7-.4v36.9l-22.2.6c-16.4.4-23.9,1-28.3,2.2-31,8.6-51.2,36.4-49.2,67.7.7,11.2,3.3,20.2,8.5,28.7,8.6,14.3,20.6,24.1,36.1,29.4,8.1,2.8,10,3,31.6,3.9,12.7.6,23.1,1.1,23.2,1.2s0,8.4-.4,18.4l-.6,18.2-21.6-.1c-11.9-.1-24.3-.5-27.6-1h0Z"/><path class="cls-2" d="m1144.42,413.98c-13.5-.8-19.5-2.6-29.2-8.9-10.6-6.9-18.7-17.9-23.1-31.5-1.5-4.6-1.7-15.1-1.7-111.6v-106.5l19.3-.3,19.2-.2v52h73v38h-74v58c0,50,.2,58.6,1.5,61.7,2,4.8,4.1,7,9,9.6,3.8,2,5.7,2.2,32.8,2.5l28.7.4v37.8l-21.7-.2c-12-.1-27.2-.5-33.8-.8h0Z"/><path class="cls-2" d="m262.52,340.58c-2.5-.9-7.2-4.8-12.8-10.3-34.7-34.4-59.4-59.5-60.4-61.5-2.1-3.8-2.6-9.3-1.4-13.9,1-4,8.5-11.8,77.3-80.6,44-44.1,77.6-77,79.7-78,4.6-2.2,12.6-2.2,16.9.1,4.1,2.2,68.4,66.4,70.5,70.4,2.3,4.4,2.9,9.5,1.6,14.3-1,4-8.1,11.4-76.8,80.2-41.6,41.7-77,76.6-78.7,77.7-4.2,2.6-11.2,3.3-15.9,1.6h0Z"/><path class="cls-2" d="m72.92,339.38c-4.9-2.1-68.7-66.6-71.1-71.9-2.3-4.9-2.4-10.4-.4-15.3,2.2-5.1,150.3-153.4,156.1-156.2,4.7-2.3,11.1-2.6,15.9-.6,4.4,1.9,70.3,67.9,72.1,72.3,1.8,4.3,1.8,10.5-.1,15.1-2,4.8-151.4,154.6-156.4,156.8-4.3,1.8-11.6,1.7-16.1-.2Z"/><path class="cls-1" d="m169.02,434.88c-1.9-.6-4.4-1.7-5.5-2.5-1.2-.8-16.4-15.7-33.9-33.2-32.7-32.6-36.7-37.4-36.7-44.4,0-9,.3-9.4,35.8-45.1,18.6-18.6,35.1-34.6,36.7-35.4,3.8-2.1,12.9-2.1,17.6-.1,2.3,1,15.8,13.7,36.7,34.4,34.7,34.5,37.1,37.5,37.2,45.7,0,7.5-3.5,11.9-36.2,44.6-17.2,17.3-32.9,32.4-34.8,33.7-4.1,2.7-12,3.8-16.9,2.3h0Z"/><path class="cls-1" d="m440.02,349.68c-4.4-1.4-71-68.2-72.8-73-1.5-4.3-1.6-7.7,0-13.4,1.1-4.2,4.2-7.7,34.9-38.4,27.5-27.5,34.5-34,38.2-35.4,6.4-2.5,13.1-1.7,18.7,2.3,2.4,1.6,18.8,17.6,36.5,35.4,31.3,31.6,32.1,32.4,33.2,37.6,1.6,7.1,1.5,8.7-.5,13-2,4.4-62.7,65.8-69.2,70.2-3.7,2.5-5.4,3-10,2.9-3.1-.1-7.1-.6-9-1.2h0Z"/><path class="cls-1" d="m252.12,161.58c-4.7-1.6-69.5-66.5-72.3-72.3-2.4-4.9-2.6-8.1-.9-14.3,1-4,4.8-8.1,35.3-38.8C240.62,9.78,249.22,1.68,251.92.98c5.6-1.6,12.7-1.2,16.8.9,4.8,2.5,69.7,67.7,71.1,71.4,1.8,4.7,1.4,14.8-.8,18.1-1.1,1.6-16.8,17.8-35,36.1-35.1,35.2-35.6,35.6-44.7,35.4-2.2,0-5.4-.6-7.2-1.3h0Z"/></g></svg>