<svg xmlns="http://www.w3.org/2000/svg" width="33" height="28" viewBox="0 0 33 28" fill="none">
  <path d="M1.17857 12H31.8214C32.134 12 32.4338 11.8946 32.6548 11.7071C32.8758 11.5196 33 11.2652 33 11V9C33 8.73478 32.8758 8.48043 32.6548 8.29289C32.4338 8.10536 32.134 8 31.8214 8H1.17857C0.865995 8 0.566221 8.10536 0.345196 8.29289C0.124171 8.48043 0 8.73478 0 9L0 11C0 11.2652 0.124171 11.5196 0.345196 11.7071C0.566221 11.8946 0.865995 12 1.17857 12ZM31.8214 24H1.17857C0.865995 24 0.566221 24.1054 0.345196 24.2929C0.124171 24.4804 0 24.7348 0 25L0 27C0 27.2652 0.124171 27.5196 0.345196 27.7071C0.566221 27.8946 0.865995 28 1.17857 28H31.8214C32.134 28 32.4338 27.8946 32.6548 27.7071C32.8758 27.5196 33 27.2652 33 27V25C33 24.7348 32.8758 24.4804 32.6548 24.2929C32.4338 24.1054 32.134 24 31.8214 24ZM32.0549 2.43974e-07H12.7308C12.6066 -8.19463e-05 12.4837 0.020603 12.369 0.0608718C12.2543 0.101141 12.1501 0.160203 12.0623 0.234681C11.9745 0.309158 11.9049 0.397589 11.8575 0.494914C11.81 0.592239 11.7856 0.696549 11.7857 0.801875V3.19812C11.7856 3.30345 11.81 3.40776 11.8575 3.50509C11.9049 3.60241 11.9745 3.69084 12.0623 3.76532C12.1501 3.8398 12.2543 3.89886 12.369 3.93913C12.4837 3.9794 12.6066 4.00008 12.7308 4H32.0549C32.1791 4.00008 32.302 3.9794 32.4167 3.93913C32.5314 3.89886 32.6356 3.8398 32.7234 3.76532C32.8112 3.69084 32.8808 3.60241 32.9283 3.50509C32.9757 3.40776 33.0001 3.30345 33 3.19812V0.801875C33.0001 0.696549 32.9757 0.592239 32.9283 0.494914C32.8808 0.397589 32.8112 0.309158 32.7234 0.234681C32.6356 0.160203 32.5314 0.101141 32.4167 0.0608718C32.302 0.020603 32.1791 -8.19463e-05 32.0549 2.43974e-07ZM32.0549 16H12.7308C12.6066 15.9999 12.4837 16.0206 12.369 16.0609C12.2543 16.1011 12.1501 16.1602 12.0623 16.2347C11.9745 16.3092 11.9049 16.3976 11.8575 16.4949C11.81 16.5922 11.7856 16.6965 11.7857 16.8019V19.1981C11.7856 19.3035 11.81 19.4078 11.8575 19.5051C11.9049 19.6024 11.9745 19.6908 12.0623 19.7653C12.1501 19.8398 12.2543 19.8989 12.369 19.9391C12.4837 19.9794 12.6066 20.0001 12.7308 20H32.0549C32.1791 20.0001 32.302 19.9794 32.4167 19.9391C32.5314 19.8989 32.6356 19.8398 32.7234 19.7653C32.8112 19.6908 32.8808 19.6024 32.9283 19.5051C32.9757 19.4078 33.0001 19.3035 33 19.1981V16.8019C33.0001 16.6965 32.9757 16.5922 32.9283 16.4949C32.8808 16.3976 32.8112 16.3092 32.7234 16.2347C32.6356 16.1602 32.5314 16.1011 32.4167 16.0609C32.302 16.0206 32.1791 15.9999 32.0549 16Z" fill="url(#paint0_linear_1226_4005)"/>
  <defs>
    <linearGradient id="paint0_linear_1226_4005" x1="-2.77371" y1="16.3333" x2="48.0776" y2="16.3333" gradientUnits="userSpaceOnUse">
      <stop stop-color="#4FDEDC"/>
      <stop offset="1" stop-color="#F4C45B"/>
    </linearGradient>
  </defs>
</svg>