<svg width="43" height="43" viewBox="0 0 43 43" fill="none" xmlns="http://www.w3.org/2000/svg">
<path id="Vector" d="M27.4604 15.7079C32.3615 20.6141 32.2943 28.4799 27.4899 33.3109C27.4809 33.3208 27.4703 33.3314 27.4604 33.3413L21.9479 38.8538C17.0859 43.7157 9.17572 43.7151 4.31446 38.8538C-0.54753 33.9926 -0.54753 26.0815 4.31446 21.2204L7.35832 18.1765C8.1655 17.3693 9.55561 17.9058 9.59728 19.0465C9.65043 20.5003 9.91113 21.9609 10.3922 23.3713C10.5551 23.8489 10.4387 24.3772 10.0818 24.734L9.00829 25.8075C6.70928 28.1065 6.63718 31.8499 8.91355 34.1714C11.2124 36.5158 14.9909 36.5297 17.3074 34.2133L22.8199 28.7016C25.1324 26.3891 25.1228 22.6512 22.8199 20.3484C22.5163 20.0453 22.2105 19.8099 21.9716 19.6454C21.8026 19.5294 21.6631 19.3755 21.5641 19.1959C21.4652 19.0164 21.4096 18.8162 21.4017 18.6114C21.3693 17.7445 21.6764 16.8513 22.3613 16.1663L24.0884 14.4392C24.5413 13.9863 25.2518 13.9307 25.777 14.2972C26.3784 14.7171 26.9417 15.1892 27.4604 15.7079ZM39.0215 4.14624C34.1602 -0.715086 26.25 -0.715742 21.388 4.14624L15.8755 9.65873C15.8657 9.66857 15.855 9.67924 15.846 9.68908C11.0418 14.5201 10.9744 22.3859 15.8755 27.2921C16.3942 27.8108 16.9575 28.2828 17.5589 28.7027C18.0841 29.0693 18.7946 29.0136 19.2474 28.5607L20.9745 26.8336C21.6595 26.1486 21.9666 25.2554 21.9341 24.3886C21.9263 24.1837 21.8707 23.9835 21.7717 23.804C21.6728 23.6245 21.5332 23.4705 21.3643 23.3545C21.1254 23.19 20.8196 22.9546 20.516 22.6516C18.2131 20.3487 18.2034 16.6109 20.516 14.2983L26.0285 8.78666C28.3449 6.47018 32.1234 6.48413 34.4223 8.82849C36.6987 11.15 36.6267 14.8934 34.3276 17.1924L33.254 18.2659C32.8972 18.6228 32.7808 19.151 32.9437 19.6286C33.4247 21.0391 33.6854 22.4996 33.7386 23.9534C33.7803 25.0941 35.1704 25.6306 35.9776 24.8234L39.0214 21.7796C43.8835 16.9185 43.8835 9.0074 39.0215 4.14624Z" fill="white"/>
</svg>
