<svg viewBox="5.69 -11.29 90.913 67.497"  fill="#50D8B0" width="90.913" height="67.497" xmlns="http://www.w3.org/2000/svg">
  <path d="M 94.066 0.311 C 93.225 -4.328 89.222 -7.705 84.575 -8.761 C 77.62 -10.235 64.75 -11.29 50.826 -11.29 C 36.909 -11.29 23.832 -10.235 16.87 -8.761 C 12.232 -7.705 8.219 -4.541 7.379 0.311 C 6.529 5.585 5.69 12.967 5.69 22.458 C 5.69 31.95 6.529 39.334 7.586 44.606 C 8.434 49.245 12.438 52.624 17.076 53.678 C 24.459 55.153 37.114 56.207 51.039 56.207 C 64.964 56.207 77.62 55.153 85.002 53.678 C 89.642 52.624 93.645 49.46 94.494 44.606 C 95.334 39.334 96.39 31.736 96.603 22.458 C 96.175 12.967 95.121 5.585 94.066 0.311 Z M 39.439 37.224 L 39.439 7.695 L 65.17 22.458 L 39.439 37.224 Z" style="transform-origin: 51.1465px 22.4585px;"/>
</svg>